<svg width="393" height="378" viewBox="0 0 393 378" fill="none" xmlns="http://www.w3.org/2000/svg">
<g opacity="0.59">
<path d="M298.201 253.869C274.878 278.84 232.933 277.535 204.498 250.982C176.062 224.428 171.915 182.655 195.218 157.704C218.541 132.733 260.486 134.039 288.921 160.592C317.357 187.145 321.504 228.919 298.201 253.869Z" fill="url(#paint0_linear)"/>
<path d="M204.299 250.922C177.976 226.341 172.474 188.756 190.226 163.503C188.276 165.064 186.41 166.778 184.647 168.666C161.315 193.647 165.483 235.419 193.93 261.983C222.378 288.548 264.359 289.833 287.673 264.872C289.416 263.005 291 261.026 292.442 258.954C268.48 278.446 230.622 275.502 204.299 250.922Z" fill="url(#paint1_linear)"/>
<g opacity="0.5">
<path opacity="0.5" d="M206.16 252.635L195.844 263.68C197.114 264.79 198.403 265.881 199.729 266.891L210.064 255.826C208.738 254.815 207.45 253.764 206.16 252.635Z" fill="url(#paint2_linear)"/>
<path opacity="0.5" d="M197.362 243.625L187.046 254.67C188.107 255.964 189.245 257.217 190.402 258.449L200.737 247.383C199.56 246.132 198.442 244.899 197.362 243.625Z" fill="url(#paint3_linear)"/>
<path opacity="0.5" d="M216.318 260.232L205.984 271.297C207.443 272.205 208.922 273.092 210.437 273.9L220.772 262.835C219.275 262.007 217.798 261.158 216.318 260.232Z" fill="url(#paint4_linear)"/>
<path opacity="0.5" d="M227.959 266.242L217.624 277.307C219.312 278.011 221.037 278.635 222.74 279.201L233.075 268.136C231.332 267.571 229.647 266.946 227.959 266.242Z" fill="url(#paint5_linear)"/>
<path opacity="0.5" d="M189.944 233.094L179.629 244.139C180.5 245.635 181.41 247.092 182.397 248.545L192.732 237.48C191.744 236.027 190.815 234.551 189.944 233.094Z" fill="url(#paint6_linear)"/>
<path opacity="0.5" d="M184.155 220.819L173.82 231.884C174.445 233.605 175.147 235.323 175.908 237.02L186.242 225.955C185.482 224.258 184.779 222.54 184.155 220.819Z" fill="url(#paint7_linear)"/>
<path opacity="0.5" d="M180.137 202.996L169.803 214.061C169.991 216.209 170.275 218.334 170.679 220.494L181.013 209.429C180.609 207.27 180.323 205.105 180.137 202.996Z" fill="url(#paint8_linear)"/>
<path opacity="0.5" d="M181.45 183.116L171.098 194.2C170.429 197.103 169.957 200.038 169.722 203.044L180.055 191.98C180.29 188.975 180.742 186.021 181.45 183.116Z" fill="url(#paint9_linear)"/>
<path opacity="0.5" d="M244.266 270.904L233.932 281.969C236 282.307 238.084 282.545 240.145 282.687L250.479 271.623C248.418 271.481 246.333 271.242 244.266 270.904Z" fill="url(#paint10_linear)"/>
<path opacity="0.5" d="M250.579 282.616C253.294 282.382 255.984 281.972 258.609 281.389L268.961 270.305C266.336 270.888 263.627 271.318 260.912 271.552L250.579 282.616Z" fill="url(#paint11_linear)"/>
</g>
<path opacity="0.6" d="M289.15 242.363C307.984 222.197 304.881 188.695 282.218 167.532C259.555 146.369 225.915 145.561 207.08 165.726C188.246 185.891 191.35 219.394 214.013 240.557C236.676 261.72 270.316 262.528 289.15 242.363Z" stroke="url(#paint12_linear)" stroke-width="1.0818" stroke-miterlimit="10"/>
<path opacity="0.6" d="M285.797 238.701C302.905 220.384 300.086 189.953 279.501 170.73C258.915 151.507 228.359 150.773 211.251 169.09C194.143 187.407 196.962 217.838 217.548 237.061C238.133 256.284 268.689 257.018 285.797 238.701Z" stroke="url(#paint13_linear)" stroke-width="0.3152" stroke-miterlimit="10"/>
<path d="M124.978 257.246C124.299 273.658 108.569 286.369 89.8105 285.689C71.0781 284.982 56.3979 271.116 57.0772 254.705C57.7565 238.293 73.4862 225.582 92.2447 226.262C110.977 226.969 125.631 240.863 124.978 257.246Z" fill="url(#paint14_linear)"/>
<path d="M92.1937 226.292C109.521 226.942 123.355 238.867 124.836 253.636C125.067 252.44 125.19 251.248 125.258 250.004C125.937 233.591 111.256 219.726 92.5231 219.018C73.7903 218.31 58.0342 231.049 57.3551 247.461C57.3138 248.677 57.3543 249.918 57.4748 251.128C60.1015 236.483 74.8666 225.642 92.1937 226.292Z" fill="url(#paint15_linear)"/>
<g opacity="0.5">
<path opacity="0.5" d="M93.3781 226.337C94.2165 226.388 95.0029 226.495 95.8153 226.574L96.1163 219.275C95.33 219.168 94.5176 219.089 93.6792 219.038L93.3781 226.337Z" fill="url(#paint16_linear)"/>
<path opacity="0.5" d="M87.3051 226.353C88.1122 226.27 88.9209 226.242 89.7297 226.213L90.0048 218.942C89.1959 218.971 88.3872 219 87.5801 219.083L87.3051 226.353Z" fill="url(#paint17_linear)"/>
<path opacity="0.5" d="M99.4305 227.236C100.246 227.422 101.036 227.637 101.826 227.852L102.101 220.581C101.311 220.366 100.494 220.125 99.6777 219.938L99.4305 227.236Z" fill="url(#paint18_linear)"/>
<path opacity="0.5" d="M105.407 229.165C106.228 229.514 107.023 229.891 107.764 230.269L108.04 222.997C107.27 222.593 106.475 222.216 105.654 221.868L105.407 229.165Z" fill="url(#paint19_linear)"/>
<path opacity="0.5" d="M81.2161 227.396C82.0195 227.205 82.8231 227.015 83.6544 226.85L83.9555 219.552C83.1242 219.716 82.3206 219.907 81.5171 220.098L81.2161 227.396Z" fill="url(#paint20_linear)"/>
<path opacity="0.5" d="M75.0462 229.588C75.8444 229.235 76.6685 228.855 77.5223 228.555L77.8234 221.257C76.9696 221.557 76.1714 221.91 75.3472 222.29L75.0462 229.588Z" fill="url(#paint21_linear)"/>
<path opacity="0.5" d="M67.5692 234.232C68.3567 233.557 69.1998 232.933 70.0707 232.335L70.3717 225.038C69.5008 225.636 68.6577 226.26 67.8702 226.936L67.5692 234.232Z" fill="url(#paint22_linear)"/>
<path opacity="0.5" d="M61.2233 241.419C61.9931 240.204 62.8463 239.068 63.7812 237.955L64.0822 230.659C63.1472 231.772 62.294 232.908 61.5242 234.123L61.2233 241.419Z" fill="url(#paint23_linear)"/>
<path opacity="0.5" d="M112.56 233.184C113.362 233.776 114.166 234.423 114.917 235.071L115.218 227.77C114.468 227.122 113.691 226.502 112.861 225.883L112.56 233.184Z" fill="url(#paint24_linear)"/>
<path opacity="0.5" d="M118.391 238.634C119.233 239.63 119.998 240.71 120.682 241.819L120.983 234.518C120.299 233.409 119.508 232.357 118.666 231.361L118.391 238.634Z" fill="url(#paint25_linear)"/>
</g>
<path d="M118.325 257.104C118.292 257.753 117.741 258.231 117.066 258.228C116.417 258.198 115.884 257.596 115.889 256.921C115.918 256.164 115.894 255.409 115.843 254.681C115.794 254.008 116.288 253.424 116.961 253.373C117.634 253.322 118.217 253.814 118.266 254.487C118.321 255.322 118.349 256.185 118.323 257.05L118.325 257.104ZM116.718 264.126C116.696 264.262 116.673 264.398 116.625 264.562C116.299 265.356 115.919 266.099 115.484 266.843C115.152 267.422 114.43 267.637 113.852 267.306C113.275 266.976 113.062 266.255 113.394 265.676C113.751 265.015 114.107 264.354 114.408 263.642C114.658 263.039 115.376 262.716 116.006 262.991C116.471 263.163 116.756 263.639 116.718 264.126ZM116.451 247.668C116.439 248.127 116.182 248.514 115.729 248.719C115.117 248.984 114.407 248.739 114.144 248.128C113.852 247.436 113.479 246.775 113.08 246.141C112.737 245.559 112.903 244.825 113.485 244.48C114.068 244.135 114.802 244.298 115.145 244.879C115.573 245.593 115.975 246.335 116.325 247.132C116.439 247.29 116.472 247.478 116.451 247.668ZM111.168 271.911C111.151 272.208 111.026 272.51 110.791 272.761C110.161 273.324 109.504 273.86 108.846 274.396C108.319 274.793 107.533 274.686 107.138 274.16C106.743 273.635 106.852 272.848 107.379 272.451C107.984 271.97 108.59 271.49 109.141 271.011C109.638 270.534 110.423 270.587 110.844 271.085C111.067 271.293 111.157 271.587 111.168 271.911ZM110.749 240.042C110.757 240.312 110.658 240.585 110.45 240.809C109.98 241.311 109.253 241.364 108.726 240.924C108.169 240.404 107.559 239.94 106.95 239.476C106.425 239.09 106.292 238.338 106.706 237.784C107.094 237.257 107.846 237.122 108.399 237.534C109.09 238.022 109.729 238.567 110.367 239.111C110.618 239.345 110.764 239.69 110.749 240.042ZM102.99 276.927C102.978 277.387 102.668 277.83 102.216 278.035C101.443 278.359 100.642 278.604 99.8397 278.849C99.1978 279.033 98.5382 278.679 98.3275 278.012C98.1445 277.37 98.501 276.71 99.169 276.497C99.8909 276.282 100.639 276.039 101.331 275.745C101.971 275.506 102.683 275.804 102.892 276.418C102.979 276.604 103.038 276.764 102.99 276.927ZM102.542 235.098C102.519 235.233 102.497 235.369 102.446 235.479C102.224 236.108 101.506 236.43 100.876 236.156C100.164 235.857 99.428 235.641 98.692 235.424C98.0378 235.231 97.6652 234.57 97.8598 233.915C98.0544 233.26 98.7171 232.885 99.3713 233.078C100.189 233.319 100.981 233.587 101.746 233.884C102.267 234.108 102.58 234.61 102.542 235.098ZM93.6305 278.854C93.6237 279.476 93.1003 279.98 92.4531 280.003C91.6442 280.032 90.8613 280.033 90.0505 280.008L89.9687 279.984C89.3198 279.953 88.8151 279.377 88.8479 278.728C88.8807 278.079 89.4842 277.545 90.1592 277.548C90.916 277.574 91.6449 277.575 92.4 277.549C93.0472 277.525 93.658 278.044 93.653 278.719C93.6287 278.8 93.6305 278.854 93.6305 278.854ZM93.1658 233.192C93.133 233.841 92.5573 234.401 91.8805 234.344C91.1237 234.318 90.3408 234.318 89.5857 234.345C88.9386 234.369 88.3277 233.85 88.3327 233.175C88.3115 232.528 88.8054 231.944 89.5065 231.918C90.3155 231.89 91.1523 231.887 91.9631 231.912L91.991 231.938C92.6938 231.967 93.1986 232.543 93.1658 233.192ZM84.1171 277.709C84.1206 277.817 84.0963 277.899 84.072 277.981C83.8774 278.636 83.2147 279.01 82.5604 278.818C81.7705 278.603 80.951 278.308 80.1854 278.012C79.5572 277.791 79.2368 277.074 79.5132 276.443C79.7356 275.814 80.4541 275.491 81.084 275.766C81.7956 276.064 82.5316 276.281 83.2676 276.498C83.7862 276.668 84.1534 277.168 84.1171 277.709ZM83.6741 234.368C83.6639 234.881 83.3004 235.326 82.7925 235.479C82.0706 235.694 81.3226 235.936 80.6303 236.231C79.9901 236.47 79.2785 236.171 79.0695 235.558C78.8326 234.918 79.1072 234.234 79.7473 233.995C80.5196 233.67 81.3216 233.426 82.1235 233.181C82.7654 232.996 83.4249 233.351 83.6357 234.018C83.6653 234.098 83.6706 234.26 83.6741 234.368ZM75.5298 273.507C75.5108 273.751 75.4639 273.969 75.2813 274.164C74.8936 274.691 74.142 274.826 73.5886 274.414C72.8977 273.925 72.259 273.381 71.6203 272.837C71.1191 272.369 71.0684 271.642 71.51 271.113C71.9796 270.611 72.7068 270.558 73.2341 270.998C73.7911 271.518 74.4002 271.982 75.0093 272.446C75.3695 272.73 75.5436 273.102 75.5298 273.507ZM75.1214 238.669C75.1059 239.02 74.9547 239.349 74.6382 239.577C74.0329 240.057 73.4276 240.538 72.8763 241.017C72.3789 241.493 71.5943 241.44 71.1731 240.942C70.7258 240.472 70.7533 239.662 71.2524 239.239C71.882 238.676 72.5116 238.114 73.1969 237.603C73.7238 237.207 74.4824 237.288 74.9054 237.84C75.0499 238.131 75.1126 238.399 75.1214 238.669ZM69.0639 266.476C69.0502 266.882 68.8468 267.267 68.4763 267.496C67.8937 267.841 67.1315 267.652 66.8164 267.096C66.3882 266.383 65.9843 265.587 65.636 264.844C65.3731 264.232 65.6199 263.521 66.2322 263.257C66.8445 262.992 67.5543 263.236 67.8451 263.874C68.1376 264.565 68.5102 265.227 68.8827 265.889C69.022 266.019 69.083 266.232 69.0639 266.476ZM68.7411 245.835C68.7203 246.025 68.6995 246.214 68.5969 246.38C68.2405 247.041 67.9119 247.727 67.5834 248.414C67.3331 249.017 66.6147 249.339 65.9848 249.065C65.3827 248.816 65.0624 248.099 65.3387 247.468C65.6638 246.674 66.0445 245.931 66.4513 245.161C66.7834 244.582 67.5052 244.367 68.083 244.697C68.5511 244.978 68.7809 245.401 68.7411 245.835ZM66.1759 257.4C66.1414 257.995 65.6718 258.498 65.0524 258.547C64.3792 258.598 63.7962 258.106 63.7472 257.433C63.693 256.598 63.6666 255.789 63.7202 254.95L63.7184 254.896C63.7512 254.247 64.3008 253.715 64.9776 253.771C65.6265 253.802 66.1852 254.376 66.1263 255.053C66.097 255.81 66.0938 256.539 66.1445 257.266C66.1723 257.292 66.1742 257.346 66.1759 257.4Z" fill="url(#paint26_linear)"/>
<path d="M218.418 87.6161C200.706 89.7978 184.387 75.1663 181.962 54.9406C179.537 34.715 191.924 16.5483 209.615 14.3477C227.327 12.1661 243.647 26.7976 246.071 47.0232C248.477 67.2691 236.09 85.4358 218.418 87.6161Z" fill="url(#paint27_linear)"/>
<path d="M242.366 48.2337C244.624 66.9367 234.177 83.878 218.588 88.0427C219.902 88.0546 221.234 88.007 222.562 87.8419C240.274 85.6601 252.661 67.4927 250.216 47.2474C247.792 27.021 231.472 12.3888 213.759 14.5706C212.431 14.7357 211.126 14.998 209.863 15.3372C226.008 15.6035 240.128 29.5104 242.366 48.2337Z" fill="url(#paint28_linear)"/>
<g opacity="0.5">
<path opacity="0.5" d="M242.542 49.5853C242.629 50.4644 242.678 51.3448 242.687 52.2267L250.556 51.2595C250.527 50.3979 250.479 49.5175 250.411 48.6181L242.542 49.5853Z" fill="url(#paint29_linear)"/>
<path opacity="0.5" d="M241.417 43.0725C241.641 43.9272 241.807 44.8034 241.953 45.6608L249.802 44.6748C249.636 43.7985 249.451 42.9425 249.227 42.0879L241.417 43.0725Z" fill="url(#paint30_linear)"/>
<path opacity="0.5" d="M242.615 56.2044C242.566 57.1078 242.457 57.9938 242.33 58.9001L250.178 57.9141C250.287 57.0281 250.395 56.1421 250.463 55.2184L242.615 56.2044Z" fill="url(#paint31_linear)"/>
<path opacity="0.5" d="M241.574 62.9643C241.349 63.8935 241.086 64.8242 240.782 65.7172L248.649 64.7501C248.933 63.8383 249.217 62.9265 249.441 61.9972L241.574 62.9643Z" fill="url(#paint32_linear)"/>
<path opacity="0.5" d="M239.262 36.6931C239.622 37.5233 239.944 38.3548 240.266 39.2256L248.136 38.2583C247.834 37.4064 247.492 36.556 247.132 35.7258L239.262 36.6931Z" fill="url(#paint33_linear)"/>
<path opacity="0.5" d="M235.872 30.4606C236.408 31.265 236.905 32.0708 237.384 32.936L245.255 31.9687C244.776 31.1034 244.279 30.2976 243.743 29.4932L235.872 30.4606Z" fill="url(#paint34_linear)"/>
<path opacity="0.5" d="M229.584 23.2658C230.432 24.02 231.242 24.7755 232.034 25.6297L239.906 24.6621C239.133 23.8268 238.304 23.0524 237.476 22.3171L229.584 23.2658Z" fill="url(#paint35_linear)"/>
<path opacity="0.5" d="M220.785 17.7048C222.217 18.3204 223.612 19.0157 224.953 19.8503L232.825 18.8828C231.484 18.0483 230.088 17.3529 228.656 16.7374L220.785 17.7048Z" fill="url(#paint36_linear)"/>
<path opacity="0.5" d="M238.517 71.308C238.02 72.2861 237.482 73.2265 236.906 74.1682L244.772 73.2013C245.351 72.2987 245.887 71.3192 246.384 70.3411L238.517 71.308Z" fill="url(#paint37_linear)"/>
<path opacity="0.5" d="M233.674 78.5287C232.73 79.6206 231.724 80.6166 230.657 81.5562L238.523 80.5894C239.59 79.6499 240.575 78.6349 241.501 77.5632L233.674 78.5287Z" fill="url(#paint38_linear)"/>
</g>
<path d="M213.755 81.6453C213.032 81.73 212.427 81.2026 212.344 80.4801C212.262 79.7576 212.829 79.1099 213.55 78.9861C214.37 78.8784 215.189 78.7315 215.967 78.5469C216.687 78.3839 217.387 78.8099 217.567 79.5093C217.747 80.2087 217.3 80.9305 216.6 81.1123C215.705 81.3404 214.79 81.5103 213.871 81.602L213.755 81.6453ZM205.955 81.1593C205.799 81.1649 205.642 81.1705 205.484 81.1369C204.594 80.9138 203.704 80.6516 202.83 80.3298C202.156 80.0795 201.798 79.3276 202.05 78.652C202.303 77.9763 203.055 77.6161 203.75 77.8854C204.505 78.1722 205.316 78.398 206.107 78.605C206.819 78.7757 207.253 79.4856 207.081 80.1976C206.941 80.7124 206.502 81.1005 205.955 81.1593ZM223.557 78.0013C223.088 78.0573 222.591 77.8593 222.303 77.4382C221.891 76.8256 222.041 76.0164 222.655 75.6023C223.346 75.1463 223.996 74.6525 224.625 74.1007C225.179 73.6299 226.024 73.6977 226.493 74.2496C226.962 74.8014 226.891 75.647 226.338 76.1177C225.632 76.7115 224.886 77.2676 224.138 77.7844C223.965 77.8887 223.751 77.9551 223.557 78.0013ZM196.689 76.5692C196.356 76.6007 196.001 76.535 195.699 76.2909C194.995 75.7474 194.289 75.1256 193.64 74.4822C193.114 73.9912 193.107 73.1484 193.599 72.621C194.092 72.0937 194.934 72.0832 195.46 72.5741C196.067 73.1407 196.674 73.7072 197.337 74.2129C197.901 74.6633 198.006 75.483 197.535 76.0684C197.329 76.3698 197.021 76.5377 196.689 76.5692ZM230.782 70.5084C230.489 70.5385 230.193 70.4902 229.913 70.3042C229.292 69.9146 229.109 69.0978 229.5 68.476C229.948 67.7933 230.356 67.0729 230.724 66.3147C231.056 65.6755 231.85 65.3922 232.509 65.7412C233.147 66.0713 233.428 66.8652 233.077 67.5247C232.652 68.3437 232.208 69.1439 231.723 69.9062C231.519 70.2468 231.133 70.4567 230.782 70.5084ZM189.903 68.7142C189.395 68.7715 188.879 68.5547 188.608 68.0742C188.152 67.3063 187.713 66.4789 187.334 65.669C187.038 65.0129 187.306 64.2387 187.962 63.9016C188.619 63.6036 189.411 63.8498 189.727 64.5247C190.085 65.2766 190.482 66.0271 190.897 66.7181C191.27 67.3322 191.062 68.1631 190.426 68.5191C190.253 68.6233 190.079 68.6883 189.903 68.7142ZM234.683 60.86C234.546 60.8845 234.408 60.8698 234.251 60.8362C233.54 60.7047 233.085 59.9759 233.239 59.2842C233.428 58.4736 233.558 57.6455 233.649 56.8188C233.743 56.1096 234.393 55.5767 235.122 55.6879C235.83 55.7802 236.361 56.4278 236.267 57.137C236.159 58.0231 235.992 58.931 235.805 59.82C235.687 60.3928 235.209 60.7824 234.683 60.86ZM186.214 59.0036C185.531 59.0869 184.889 58.6392 184.768 57.9573C184.604 57.1201 184.457 56.2235 184.35 55.3646L184.348 55.2862C184.265 54.5638 184.774 53.9378 185.497 53.8532C186.22 53.7686 186.884 54.3134 186.967 55.0359C187.052 55.8367 187.196 56.655 187.339 57.4341C187.48 58.135 187.013 58.8379 186.311 58.9806C186.292 59.0008 186.253 59.0022 186.214 59.0036ZM235.127 50.4528C234.405 50.5374 233.76 50.0115 233.678 49.289C233.572 48.4693 233.428 47.651 233.284 46.8327C233.143 46.1318 233.61 45.4289 234.312 45.2862C235.013 45.1435 235.714 45.6086 235.855 46.3094C236.021 47.1858 236.167 48.0824 236.294 48.9602L236.295 48.9994C236.358 49.703 235.83 50.3493 235.127 50.4528ZM185.855 48.6055C185.758 48.6286 185.64 48.6328 185.522 48.5978C184.813 48.5055 184.282 47.8579 184.395 47.1284C184.504 46.2422 184.67 45.3344 184.857 44.4454C185.009 43.7146 185.72 43.2774 186.412 43.4292C187.103 43.5809 187.577 44.2894 187.423 44.9811C187.234 45.7917 187.104 46.6198 187.013 47.4465C186.916 48.0774 186.421 48.5265 185.855 48.6055ZM232.253 40.4778C231.706 40.5366 231.167 40.2617 230.896 39.7421C230.538 38.9902 230.141 38.2397 229.726 37.5487C229.353 36.9346 229.561 36.1038 230.197 35.7478C230.812 35.3729 231.642 35.5785 231.996 36.2128C232.452 36.9808 232.891 37.8082 233.271 38.6181C233.566 39.2741 233.318 40.0673 232.642 40.3855C232.506 40.41 232.389 40.4533 232.253 40.4778ZM188.903 38.6542C188.649 38.6829 188.392 38.6333 188.153 38.5242C187.515 38.1941 187.234 37.4002 187.585 36.7407C188.01 35.9217 188.454 35.1215 188.939 34.3592C189.33 33.7374 190.148 33.5513 190.749 33.9612C191.37 34.3507 191.553 35.1676 191.142 35.7705C190.693 36.4532 190.267 37.1938 189.918 37.9317C189.716 38.3507 189.332 38.5997 188.903 38.6542ZM226.194 32.0479C225.804 32.1011 225.427 31.9773 225.124 31.694C224.517 31.1275 223.891 30.5813 223.247 30.0553C222.683 29.6049 222.578 28.7852 223.03 28.2201C223.482 27.655 224.302 27.5472 224.866 27.9976C225.57 28.541 226.276 29.1628 226.925 29.8063C227.45 30.2973 227.458 31.1401 226.966 31.6674C226.776 31.8703 226.467 31.999 226.194 32.0479ZM195.361 30.483C194.931 30.5375 194.475 30.3774 194.19 30.0347C193.721 29.4829 193.791 28.6373 194.364 28.1855C195.071 27.5916 195.817 27.0356 196.565 26.5187C197.179 26.1046 197.989 26.2914 198.381 26.8852C198.793 27.4978 198.603 28.3085 198.009 28.7022C197.318 29.1583 196.667 29.6521 196.018 30.185C195.827 30.3487 195.576 30.4557 195.361 30.483ZM217.426 26.5184C217.211 26.5457 217.014 26.5136 216.816 26.4422C216.042 26.1758 215.25 25.9296 214.459 25.7225C213.748 25.5519 213.313 24.842 213.486 24.13C213.658 23.418 214.37 22.9809 215.081 23.1515C215.97 23.3746 216.861 23.6369 217.714 23.9397C218.389 24.1901 218.747 24.942 218.494 25.6176C218.315 26.1338 217.914 26.4422 217.426 26.5184ZM204.579 25.7618C203.934 25.8437 203.294 25.4353 203.134 24.7547C202.954 24.0553 203.401 23.3335 204.122 23.1706C204.997 22.9628 205.874 22.7943 206.772 22.6837L206.83 22.662C207.553 22.5774 208.177 23.0845 208.26 23.807C208.342 24.5295 207.795 25.196 207.073 25.2806C206.272 25.3681 205.492 25.5135 204.714 25.6982C204.676 25.7388 204.618 25.7604 204.579 25.7618Z" fill="url(#paint39_linear)"/>
<g filter="url(#filter0_d)">
<path d="M270.338 172.622L263.443 162.21L258.744 166.245L265.3 175.313L248.166 175.324L242.284 180.369L265.807 180.184L279.254 191.095L283.616 185.717L272.431 177.81L288.991 178.657L292.679 173.447L270.338 172.622Z" fill="white"/>
<path d="M270.338 172.622L263.443 162.21L258.744 166.245L265.3 175.313L248.166 175.324L242.284 180.369L265.807 180.184L279.254 191.095L283.616 185.717L272.431 177.81L288.991 178.657L292.679 173.447L270.338 172.622Z" stroke="#3BC3C3"/>
</g>
<g filter="url(#filter1_d)">
<path d="M211.534 220.764L203.079 215.704L224.048 198.345L231.513 202.59L224.398 208.807L249.688 224.232L244.343 231.556L218.846 214.144L211.534 220.764Z" fill="white"/>
<path d="M211.534 220.764L203.079 215.704L224.048 198.345L231.513 202.59L224.398 208.807L249.688 224.232L244.343 231.556L218.846 214.144L211.534 220.764Z" stroke="#3BC3C3"/>
</g>
<g filter="url(#filter2_d)">
<path d="M260.878 215.297L225.279 195.908C225.279 195.908 237.547 183.977 240.908 183.263C244.269 182.548 245.845 181.856 250.336 184.24C254.827 186.624 253.722 191.534 253.722 191.534L275.394 195.548L271.291 200.604L253.816 196.365L249.341 201.408C255.008 205.312 258.272 207.29 264.666 209.887L260.878 215.297Z" fill="white"/>
<path d="M260.878 215.297L225.279 195.908C225.279 195.908 237.547 183.977 240.908 183.263C244.269 182.548 245.845 181.856 250.336 184.24C254.827 186.624 253.722 191.534 253.722 191.534L275.394 195.548L271.291 200.604L253.816 196.365L249.341 201.408C255.008 205.312 258.272 207.29 264.666 209.887L260.878 215.297Z" stroke="#3BC3C3"/>
</g>
<g filter="url(#filter3_i)">
<path d="M235.532 195.046L243.16 198.586C243.16 198.586 247.616 194.813 248.151 193.413C248.87 191.535 247.262 190.203 245.416 189.496C243.662 188.826 242.714 189.181 241.859 189.572C240.507 190.189 235.532 195.046 235.532 195.046Z" fill="#3BC3C3"/>
</g>
<path d="M235.532 195.046L243.16 198.586C243.16 198.586 247.616 194.813 248.151 193.413C248.87 191.535 247.262 190.203 245.416 189.496C243.662 188.826 242.714 189.181 241.859 189.572C240.507 190.189 235.532 195.046 235.532 195.046Z" stroke="#3BC3C3"/>
<path d="M296.275 254.13C272.952 279.1 231.007 277.795 202.571 251.242C174.136 224.689 169.988 182.915 193.292 157.964C216.615 132.994 258.56 134.299 286.995 160.852C315.431 187.405 319.578 229.179 296.275 254.13Z" fill="url(#paint40_linear)"/>
<g filter="url(#filter4_d)">
<path d="M100.611 243.471L97.5322 237.696L94.8796 239.567L97.8486 244.624L88.9089 243.777L85.5888 246.117L97.8707 247.191L104.343 253.553L106.887 250.964L101.445 246.282L110.042 247.548L112.226 245.014L100.611 243.471Z" fill="white"/>
<path d="M100.611 243.471L97.5322 237.696L94.8796 239.567L97.8486 244.624L88.9089 243.777L85.5888 246.117L97.8707 247.191L104.343 253.553L106.887 250.964L101.445 246.282L110.042 247.548L112.226 245.014L100.611 243.471Z" stroke="#3BC3C3"/>
</g>
<g filter="url(#filter5_d)">
<path d="M67.5328 265.661L63.3731 262.6L75.1778 254.587L78.8612 257.174L74.8393 260.063L87.2659 269.37L84.1127 272.925L71.6769 262.571L67.5328 265.661Z" fill="white"/>
<path d="M67.5328 265.661L63.3731 262.6L75.1778 254.587L78.8612 257.174L74.8393 260.063L87.2659 269.37L84.1127 272.925L71.6769 262.571L67.5328 265.661Z" stroke="#3BC3C3"/>
</g>
<g filter="url(#filter6_d)">
<path d="M93.5503 265.265L75.9426 253.377C75.9426 253.377 82.9374 247.763 84.7262 247.558C86.5151 247.353 87.3721 247.07 89.5966 248.537C91.821 250.005 90.9998 252.511 90.9998 252.511L102.107 255.684L99.7149 258.118L90.8083 255.036L88.2226 257.445C90.9847 259.764 92.5894 260.958 95.7959 262.631L93.5503 265.265Z" fill="white"/>
<path d="M93.5503 265.265L75.9426 253.377C75.9426 253.377 82.9374 247.763 84.7262 247.558C86.5151 247.353 87.3721 247.07 89.5966 248.537C91.821 250.005 90.9998 252.511 90.9998 252.511L102.107 255.684L99.7149 258.118L90.8083 255.036L88.2226 257.445C90.9847 259.764 92.5894 260.958 95.7959 262.631L93.5503 265.265Z" stroke="#3BC3C3"/>
</g>
<g filter="url(#filter7_i)">
<path d="M81.3376 253.438L85.1416 255.664C85.1416 255.664 87.6541 253.918 88.0031 253.214C88.4714 252.27 87.6992 251.495 86.7708 251.034C85.8894 250.597 85.3769 250.735 84.9114 250.897C84.1753 251.152 81.3376 253.438 81.3376 253.438Z" fill="#3BC3C3"/>
</g>
<path d="M81.3376 253.438L85.1416 255.664C85.1416 255.664 87.6541 253.918 88.0031 253.214C88.4714 252.27 87.6992 251.495 86.7708 251.034C85.8894 250.597 85.3769 250.735 84.9114 250.897C84.1753 251.152 81.3376 253.438 81.3376 253.438Z" stroke="#3BC3C3"/>
<g filter="url(#filter8_d)">
<path d="M215.803 59.8937L219.345 46.075L221.446 51.3456L219.564 59.7233L225.227 58.447L228.012 62.1789L218.98 64.4503L213.607 79.9483L211.324 75.5728L215.721 63.9771L207.011 66.5001L205.443 63.2009L215.803 59.8937Z" fill="white"/>
<path d="M215.803 59.8937L219.345 46.075L221.446 51.3456L219.564 59.7233L225.227 58.447L228.012 62.1789L218.98 64.4503L213.607 79.9483L211.324 75.5728L215.721 63.9771L207.011 66.5001L205.443 63.2009L215.803 59.8937Z" stroke="#3BC3C3"/>
</g>
<g filter="url(#filter9_d)">
<path d="M204.224 20.6207L207.053 17.0002L212.318 30.8347L209.607 34.3044L207.653 29.3756L197.396 42.5L195.387 38.4997L205.762 25.2245L204.224 20.6207Z" fill="white"/>
<path d="M204.224 20.6207L207.053 17.0002L212.318 30.8347L209.607 34.3044L207.653 29.3756L197.396 42.5L195.387 38.4997L205.762 25.2245L204.224 20.6207Z" stroke="#3BC3C3"/>
</g>
<g filter="url(#filter10_d)">
<path d="M200.067 48.7978L213.691 32.0122C213.691 32.0122 218.236 40.9773 218.07 42.8424C217.905 44.7075 217.955 45.7445 215.995 47.7025C214.034 49.6606 211.653 48.2987 211.653 48.2987L205.589 60.5132L203.875 56.23L209.121 47.5743L207.846 44.9047L201.569 52.3854L200.067 48.7978Z" fill="white"/>
<path d="M200.067 48.7978L213.691 32.0122C213.691 32.0122 218.236 40.9773 218.07 42.8424C217.905 44.7075 217.955 45.7445 215.995 47.7025C214.034 49.6606 211.653 48.2987 211.653 48.2987L205.589 60.5132L203.875 56.23L209.121 47.5743L207.846 44.9047L201.569 52.3854L200.067 48.7978Z" stroke="#3BC3C3"/>
</g>
<g filter="url(#filter11_i)">
<path d="M212.56 37.3816L209.578 41.1978C209.578 41.1978 210.679 43.9503 211.347 44.4721C212.243 45.1721 213.23 44.5248 213.918 43.6441C214.571 42.808 214.537 42.2366 214.468 41.7097C214.358 40.8766 212.56 37.3816 212.56 37.3816Z" fill="#3BC3C3"/>
</g>
<path d="M212.56 37.3816L209.578 41.1978C209.578 41.1978 210.679 43.9503 211.347 44.4721C212.243 45.1721 213.23 44.5248 213.918 43.6441C214.571 42.808 214.537 42.2366 214.468 41.7097C214.358 40.8766 212.56 37.3816 212.56 37.3816Z" stroke="#3BC3C3"/>
</g>
<defs>
<filter id="filter0_d" x="236.92" y="156.39" width="60.7073" height="49.0641" filterUnits="userSpaceOnUse" color-interpolation-filters="sRGB">
<feFlood flood-opacity="0" result="BackgroundImageFix"/>
<feColorMatrix in="SourceAlpha" type="matrix" values="0 0 0 0 0 0 0 0 0 0 0 0 0 0 0 0 0 0 127 0"/>
<feOffset dy="4"/>
<feGaussianBlur stdDeviation="2"/>
<feColorMatrix type="matrix" values="0 0 0 0 0.126979 0 0 0 0 0.575 0 0 0 0 0.575 0 0 0 1 0"/>
<feBlend mode="normal" in2="BackgroundImageFix" result="effect1_dropShadow"/>
<feBlend mode="normal" in="SourceGraphic" in2="effect1_dropShadow" result="shape"/>
</filter>
<filter id="filter1_d" x="197.539" y="192.774" width="62.2933" height="49.9053" filterUnits="userSpaceOnUse" color-interpolation-filters="sRGB">
<feFlood flood-opacity="0" result="BackgroundImageFix"/>
<feColorMatrix in="SourceAlpha" type="matrix" values="0 0 0 0 0 0 0 0 0 0 0 0 0 0 0 0 0 0 127 0"/>
<feOffset dy="4"/>
<feGaussianBlur stdDeviation="2"/>
<feColorMatrix type="matrix" values="0 0 0 0 0.14902 0 0 0 0 0.615686 0 0 0 0 0.615686 0 0 0 1 0"/>
<feBlend mode="normal" in2="BackgroundImageFix" result="effect1_dropShadow"/>
<feBlend mode="normal" in="SourceGraphic" in2="effect1_dropShadow" result="shape"/>
</filter>
<filter id="filter2_d" x="218.463" y="176.484" width="62.4319" height="49.9184" filterUnits="userSpaceOnUse" color-interpolation-filters="sRGB">
<feFlood flood-opacity="0" result="BackgroundImageFix"/>
<feColorMatrix in="SourceAlpha" type="matrix" values="0 0 0 0 0 0 0 0 0 0 0 0 0 0 0 0 0 0 127 0"/>
<feOffset dy="4"/>
<feGaussianBlur stdDeviation="2"/>
<feColorMatrix type="matrix" values="0 0 0 0 0.126979 0 0 0 0 0.575 0 0 0 0 0.575 0 0 0 1 0"/>
<feBlend mode="normal" in2="BackgroundImageFix" result="effect1_dropShadow"/>
<feBlend mode="normal" in="SourceGraphic" in2="effect1_dropShadow" result="shape"/>
</filter>
<filter id="filter3_i" x="234.43" y="186.169" width="15.3245" height="18.0869" filterUnits="userSpaceOnUse" color-interpolation-filters="sRGB">
<feFlood flood-opacity="0" result="BackgroundImageFix"/>
<feBlend mode="normal" in="SourceGraphic" in2="BackgroundImageFix" result="shape"/>
<feColorMatrix in="SourceAlpha" type="matrix" values="0 0 0 0 0 0 0 0 0 0 0 0 0 0 0 0 0 0 127 0" result="hardAlpha"/>
<feOffset dy="4"/>
<feGaussianBlur stdDeviation="2"/>
<feComposite in2="hardAlpha" operator="arithmetic" k2="-1" k3="1"/>
<feColorMatrix type="matrix" values="0 0 0 0 0.145098 0 0 0 0 0.607843 0 0 0 0 0.607843 0 0 0 1 0"/>
<feBlend mode="normal" in2="shape" result="effect1_innerShadow"/>
</filter>
<filter id="filter4_d" x="80.183" y="233.453" width="37.0253" height="32.2291" filterUnits="userSpaceOnUse" color-interpolation-filters="sRGB">
<feFlood flood-opacity="0" result="BackgroundImageFix"/>
<feColorMatrix in="SourceAlpha" type="matrix" values="0 0 0 0 0 0 0 0 0 0 0 0 0 0 0 0 0 0 127 0"/>
<feOffset dy="4"/>
<feGaussianBlur stdDeviation="2"/>
<feColorMatrix type="matrix" values="0 0 0 0 0.126979 0 0 0 0 0.575 0 0 0 0 0.575 0 0 0 1 0"/>
<feBlend mode="normal" in2="BackgroundImageFix" result="effect1_dropShadow"/>
<feBlend mode="normal" in="SourceGraphic" in2="effect1_dropShadow" result="shape"/>
</filter>
<filter id="filter5_d" x="58.0268" y="250.633" width="37.5395" height="32.3912" filterUnits="userSpaceOnUse" color-interpolation-filters="sRGB">
<feFlood flood-opacity="0" result="BackgroundImageFix"/>
<feColorMatrix in="SourceAlpha" type="matrix" values="0 0 0 0 0 0 0 0 0 0 0 0 0 0 0 0 0 0 127 0"/>
<feOffset dy="4"/>
<feGaussianBlur stdDeviation="2"/>
<feColorMatrix type="matrix" values="0 0 0 0 0.14902 0 0 0 0 0.615686 0 0 0 0 0.615686 0 0 0 1 0"/>
<feBlend mode="normal" in2="BackgroundImageFix" result="effect1_dropShadow"/>
<feBlend mode="normal" in="SourceGraphic" in2="effect1_dropShadow" result="shape"/>
</filter>
<filter id="filter6_d" x="69.7777" y="243.204" width="37.6253" height="32.4007" filterUnits="userSpaceOnUse" color-interpolation-filters="sRGB">
<feFlood flood-opacity="0" result="BackgroundImageFix"/>
<feColorMatrix in="SourceAlpha" type="matrix" values="0 0 0 0 0 0 0 0 0 0 0 0 0 0 0 0 0 0 127 0"/>
<feOffset dy="4"/>
<feGaussianBlur stdDeviation="2"/>
<feColorMatrix type="matrix" values="0 0 0 0 0.126979 0 0 0 0 0.575 0 0 0 0 0.575 0 0 0 1 0"/>
<feBlend mode="normal" in2="BackgroundImageFix" result="effect1_dropShadow"/>
<feBlend mode="normal" in="SourceGraphic" in2="effect1_dropShadow" result="shape"/>
</filter>
<filter id="filter7_i" x="80.2922" y="248.562" width="9.00538" height="12.4467" filterUnits="userSpaceOnUse" color-interpolation-filters="sRGB">
<feFlood flood-opacity="0" result="BackgroundImageFix"/>
<feBlend mode="normal" in="SourceGraphic" in2="BackgroundImageFix" result="shape"/>
<feColorMatrix in="SourceAlpha" type="matrix" values="0 0 0 0 0 0 0 0 0 0 0 0 0 0 0 0 0 0 127 0" result="hardAlpha"/>
<feOffset dy="4"/>
<feGaussianBlur stdDeviation="2"/>
<feComposite in2="hardAlpha" operator="arithmetic" k2="-1" k3="1"/>
<feColorMatrix type="matrix" values="0 0 0 0 0.145098 0 0 0 0 0.607843 0 0 0 0 0.607843 0 0 0 1 0"/>
<feBlend mode="normal" in2="shape" result="effect1_innerShadow"/>
</filter>
<filter id="filter8_d" x="195.257" y="44.4214" width="42.6973" height="45.0416" filterUnits="userSpaceOnUse" color-interpolation-filters="sRGB">
<feFlood flood-opacity="0" result="BackgroundImageFix"/>
<feColorMatrix in="SourceAlpha" type="matrix" values="0 0 0 0 0 0 0 0 0 0 0 0 0 0 0 0 0 0 127 0"/>
<feOffset dy="4"/>
<feGaussianBlur stdDeviation="2"/>
<feColorMatrix type="matrix" values="0 0 0 0 0.126979 0 0 0 0 0.575 0 0 0 0 0.575 0 0 0 1 0"/>
<feBlend mode="normal" in2="BackgroundImageFix" result="effect1_dropShadow"/>
<feBlend mode="normal" in="SourceGraphic" in2="effect1_dropShadow" result="shape"/>
</filter>
<filter id="filter9_d" x="186.139" y="15.9939" width="35.835" height="38.253" filterUnits="userSpaceOnUse" color-interpolation-filters="sRGB">
<feFlood flood-opacity="0" result="BackgroundImageFix"/>
<feColorMatrix in="SourceAlpha" type="matrix" values="0 0 0 0 0 0 0 0 0 0 0 0 0 0 0 0 0 0 127 0"/>
<feOffset dy="4"/>
<feGaussianBlur stdDeviation="2"/>
<feColorMatrix type="matrix" values="0 0 0 0 0.14902 0 0 0 0 0.615686 0 0 0 0 0.615686 0 0 0 1 0"/>
<feBlend mode="normal" in2="BackgroundImageFix" result="effect1_dropShadow"/>
<feBlend mode="normal" in="SourceGraphic" in2="effect1_dropShadow" result="shape"/>
</filter>
<filter id="filter10_d" x="191.466" y="30.8411" width="36.2115" height="39.0089" filterUnits="userSpaceOnUse" color-interpolation-filters="sRGB">
<feFlood flood-opacity="0" result="BackgroundImageFix"/>
<feColorMatrix in="SourceAlpha" type="matrix" values="0 0 0 0 0 0 0 0 0 0 0 0 0 0 0 0 0 0 127 0"/>
<feOffset dy="4"/>
<feGaussianBlur stdDeviation="2"/>
<feColorMatrix type="matrix" values="0 0 0 0 0.126979 0 0 0 0 0.575 0 0 0 0 0.575 0 0 0 1 0"/>
<feBlend mode="normal" in2="BackgroundImageFix" result="effect1_dropShadow"/>
<feBlend mode="normal" in="SourceGraphic" in2="effect1_dropShadow" result="shape"/>
</filter>
<filter id="filter11_i" x="207.958" y="36.4583" width="9.35849" height="13.6492" filterUnits="userSpaceOnUse" color-interpolation-filters="sRGB">
<feFlood flood-opacity="0" result="BackgroundImageFix"/>
<feBlend mode="normal" in="SourceGraphic" in2="BackgroundImageFix" result="shape"/>
<feColorMatrix in="SourceAlpha" type="matrix" values="0 0 0 0 0 0 0 0 0 0 0 0 0 0 0 0 0 0 127 0" result="hardAlpha"/>
<feOffset dy="4"/>
<feGaussianBlur stdDeviation="2"/>
<feComposite in2="hardAlpha" operator="arithmetic" k2="-1" k3="1"/>
<feColorMatrix type="matrix" values="0 0 0 0 0.145098 0 0 0 0 0.607843 0 0 0 0 0.607843 0 0 0 1 0"/>
<feBlend mode="normal" in2="shape" result="effect1_innerShadow"/>
</filter>
<linearGradient id="paint0_linear" x1="196.648" y1="183.187" x2="306.351" y2="232.976" gradientUnits="userSpaceOnUse">
<stop stop-color="#88FFF3"/>
<stop offset="1" stop-color="#68B69D"/>
</linearGradient>
<linearGradient id="paint1_linear" x1="236.384" y1="210.434" x2="213.648" y2="290.997" gradientUnits="userSpaceOnUse">
<stop offset="0.0873" stop-color="#88FFF3"/>
<stop offset="0.9709" stop-color="#3C53D7"/>
</linearGradient>
<linearGradient id="paint2_linear" x1="197.686" y1="265.402" x2="208.223" y2="254.117" gradientUnits="userSpaceOnUse">
<stop stop-color="#70C5A3"/>
<stop offset="0.4947" stop-color="#0A11AB"/>
<stop offset="1"/>
</linearGradient>
<linearGradient id="paint3_linear" x1="188.553" y1="256.721" x2="199.193" y2="245.328" gradientUnits="userSpaceOnUse">
<stop stop-color="#70C5A3"/>
<stop offset="0.4947" stop-color="#0A11AB"/>
<stop offset="1"/>
</linearGradient>
<linearGradient id="paint4_linear" x1="207.834" y1="272.998" x2="218.936" y2="261.109" gradientUnits="userSpaceOnUse">
<stop stop-color="#70C5A3"/>
<stop offset="0.4947" stop-color="#0A11AB"/>
<stop offset="1"/>
</linearGradient>
<linearGradient id="paint5_linear" x1="219.449" y1="279.024" x2="231.22" y2="266.419" gradientUnits="userSpaceOnUse">
<stop stop-color="#7DFBDC"/>
<stop offset="0.4947" stop-color="#0A11AB"/>
<stop offset="1"/>
</linearGradient>
<linearGradient id="paint6_linear" x1="180.556" y1="246.822" x2="191.783" y2="234.799" gradientUnits="userSpaceOnUse">
<stop stop-color="#7DFBDC"/>
<stop offset="0.4947" stop-color="#0A11AB"/>
<stop offset="1"/>
</linearGradient>
<linearGradient id="paint7_linear" x1="174.083" y1="235.294" x2="186.003" y2="222.53" gradientUnits="userSpaceOnUse">
<stop stop-color="#70C5A3"/>
<stop offset="0.4947" stop-color="#0A11AB"/>
<stop offset="1"/>
</linearGradient>
<linearGradient id="paint8_linear" x1="168.843" y1="218.753" x2="181.973" y2="204.693" gradientUnits="userSpaceOnUse">
<stop stop-color="#70C5A3"/>
<stop offset="0.4947" stop-color="#0A11AB"/>
<stop offset="1"/>
</linearGradient>
<linearGradient id="paint9_linear" x1="167.869" y1="201.329" x2="183.272" y2="184.835" gradientUnits="userSpaceOnUse">
<stop stop-color="#70C5A3"/>
<stop offset="0.4947" stop-color="#0A11AB"/>
<stop offset="1"/>
</linearGradient>
<linearGradient id="paint10_linear" x1="235.779" y1="283.689" x2="248.652" y2="269.903" gradientUnits="userSpaceOnUse">
<stop stop-color="#70C5A3"/>
<stop offset="0.4947" stop-color="#0A11AB"/>
<stop offset="1"/>
</linearGradient>
<linearGradient id="paint11_linear" x1="252.413" y1="284.338" x2="267.108" y2="268.601" gradientUnits="userSpaceOnUse">
<stop stop-color="#70C5A3"/>
<stop offset="0.4947" stop-color="#0A11AB"/>
<stop offset="1"/>
</linearGradient>
<linearGradient id="paint12_linear" x1="232.996" y1="150.068" x2="263.515" y2="257.955" gradientUnits="userSpaceOnUse">
<stop stop-color="#70C5A3"/>
<stop offset="0.4947" stop-color="#0A11AB"/>
<stop offset="1" stop-color="#000067"/>
</linearGradient>
<linearGradient id="paint13_linear" x1="235.033" y1="155.745" x2="262.255" y2="251.974" gradientUnits="userSpaceOnUse">
<stop stop-color="#70C5A3"/>
<stop offset="0.4947" stop-color="#0A11AB"/>
<stop offset="1" stop-color="#000067"/>
</linearGradient>
<linearGradient id="paint14_linear" x1="66.3147" y1="246.578" x2="120.48" y2="267.355" gradientUnits="userSpaceOnUse">
<stop stop-color="#7DFBDC"/>
<stop offset="1" stop-color="#68B69D"/>
</linearGradient>
<linearGradient id="paint15_linear" x1="89.1773" y1="250.939" x2="108.966" y2="215.822" gradientUnits="userSpaceOnUse">
<stop offset="0.0873" stop-color="#7DFBDC"/>
<stop offset="0.9709" stop-color="#3C53D7"/>
</linearGradient>
<linearGradient id="paint16_linear" x1="94.8893" y1="219.105" x2="94.6103" y2="226.529" gradientUnits="userSpaceOnUse">
<stop stop-color="#70C5A3"/>
<stop offset="0.4947" stop-color="#0A11AB"/>
<stop offset="1"/>
</linearGradient>
<linearGradient id="paint17_linear" x1="88.8251" y1="218.921" x2="88.5434" y2="226.416" gradientUnits="userSpaceOnUse">
<stop stop-color="#70C5A3"/>
<stop offset="0.4947" stop-color="#0A11AB"/>
<stop offset="1"/>
</linearGradient>
<linearGradient id="paint18_linear" x1="100.928" y1="220.003" x2="100.634" y2="227.826" gradientUnits="userSpaceOnUse">
<stop stop-color="#70C5A3"/>
<stop offset="0.4947" stop-color="#0A11AB"/>
<stop offset="1"/>
</linearGradient>
<linearGradient id="paint19_linear" x1="106.923" y1="221.934" x2="106.611" y2="230.228" gradientUnits="userSpaceOnUse">
<stop stop-color="#70C5A3"/>
<stop offset="0.4947" stop-color="#0A11AB"/>
<stop offset="1"/>
</linearGradient>
<linearGradient id="paint20_linear" x1="82.7328" y1="219.537" x2="82.4357" y2="227.446" gradientUnits="userSpaceOnUse">
<stop stop-color="#70C5A3"/>
<stop offset="0.4947" stop-color="#0A11AB"/>
<stop offset="1"/>
</linearGradient>
<linearGradient id="paint21_linear" x1="76.5882" y1="221.238" x2="76.2727" y2="229.634" gradientUnits="userSpaceOnUse">
<stop stop-color="#70C5A3"/>
<stop offset="0.4947" stop-color="#0A11AB"/>
<stop offset="1"/>
</linearGradient>
<linearGradient id="paint22_linear" x1="69.1583" y1="225.039" x2="68.8108" y2="234.287" gradientUnits="userSpaceOnUse">
<stop stop-color="#70C5A3"/>
<stop offset="0.4947" stop-color="#0A11AB"/>
<stop offset="1"/>
</linearGradient>
<linearGradient id="paint23_linear" x1="62.8648" y1="230.62" x2="62.4571" y2="241.469" gradientUnits="userSpaceOnUse">
<stop stop-color="#70C5A3"/>
<stop offset="0.4947" stop-color="#0A11AB"/>
<stop offset="1"/>
</linearGradient>
<linearGradient id="paint24_linear" x1="114.05" y1="225.941" x2="113.709" y2="235.014" gradientUnits="userSpaceOnUse">
<stop stop-color="#70C5A3"/>
<stop offset="0.4947" stop-color="#0A11AB"/>
<stop offset="1"/>
</linearGradient>
<linearGradient id="paint25_linear" x1="119.911" y1="231.418" x2="119.521" y2="241.777" gradientUnits="userSpaceOnUse">
<stop stop-color="#70C5A3"/>
<stop offset="0.4947" stop-color="#0A11AB"/>
<stop offset="1"/>
</linearGradient>
<linearGradient id="paint26_linear" x1="44.776" y1="281.674" x2="145.912" y2="225.718" gradientUnits="userSpaceOnUse">
<stop offset="0.0873" stop-color="#42E8E0"/>
<stop offset="0.9709" stop-color="#3C53D7"/>
</linearGradient>
<linearGradient id="paint27_linear" x1="219.899" y1="22.8325" x2="207.129" y2="84.647" gradientUnits="userSpaceOnUse">
<stop stop-color="#42E8E0"/>
<stop offset="1" stop-color="#7DFBDC"/>
</linearGradient>
<linearGradient id="paint28_linear" x1="215.425" y1="49.3352" x2="256.379" y2="64.5165" gradientUnits="userSpaceOnUse">
<stop offset="0.0873" stop-color="#42E8E0"/>
<stop offset="0.9709" stop-color="#3C53D7"/>
</linearGradient>
<linearGradient id="paint29_linear" x1="250.535" y1="49.9223" x2="242.522" y2="50.8847" gradientUnits="userSpaceOnUse">
<stop stop-color="#70C5A3"/>
<stop offset="0.4947" stop-color="#0A11AB"/>
<stop offset="1"/>
</linearGradient>
<linearGradient id="paint30_linear" x1="249.68" y1="43.3842" x2="241.59" y2="44.356" gradientUnits="userSpaceOnUse">
<stop stop-color="#70C5A3"/>
<stop offset="0.4947" stop-color="#0A11AB"/>
<stop offset="1"/>
</linearGradient>
<linearGradient id="paint31_linear" x1="250.618" y1="56.546" x2="242.176" y2="57.5599" gradientUnits="userSpaceOnUse">
<stop stop-color="#70C5A3"/>
<stop offset="0.4947" stop-color="#0A11AB"/>
<stop offset="1"/>
</linearGradient>
<linearGradient id="paint32_linear" x1="249.589" y1="63.3093" x2="240.639" y2="64.3842" gradientUnits="userSpaceOnUse">
<stop stop-color="#7DFBDC"/>
<stop offset="0.4947" stop-color="#315994"/>
<stop offset="1"/>
</linearGradient>
<linearGradient id="paint33_linear" x1="247.968" y1="36.9509" x2="239.429" y2="37.9766" gradientUnits="userSpaceOnUse">
<stop stop-color="#7DFBDC"/>
<stop offset="0.4947" stop-color="#0A11AB"/>
<stop offset="1"/>
</linearGradient>
<linearGradient id="paint34_linear" x1="245.093" y1="30.6664" x2="236.027" y2="31.7553" gradientUnits="userSpaceOnUse">
<stop stop-color="#7DFBDC"/>
<stop offset="0.4947" stop-color="#0A11AB"/>
<stop offset="1"/>
</linearGradient>
<linearGradient id="paint35_linear" x1="239.718" y1="23.3537" x2="229.729" y2="24.5534" gradientUnits="userSpaceOnUse">
<stop stop-color="#7DFBDC"/>
<stop offset="0.4947" stop-color="#0A11AB"/>
<stop offset="1"/>
</linearGradient>
<linearGradient id="paint36_linear" x1="232.649" y1="17.5711" x2="220.93" y2="18.9786" gradientUnits="userSpaceOnUse">
<stop stop-color="#7DFBDC"/>
<stop offset="0.4947" stop-color="#0A11AB"/>
<stop offset="1"/>
</linearGradient>
<linearGradient id="paint37_linear" x1="246.514" y1="71.6543" x2="236.726" y2="72.8299" gradientUnits="userSpaceOnUse">
<stop stop-color="#70C5A3"/>
<stop offset="0.4947" stop-color="#0A11AB"/>
<stop offset="1"/>
</linearGradient>
<linearGradient id="paint38_linear" x1="241.668" y1="78.8799" x2="230.496" y2="80.2218" gradientUnits="userSpaceOnUse">
<stop stop-color="#70C5A3"/>
<stop offset="0.4947" stop-color="#0A11AB"/>
<stop offset="1"/>
</linearGradient>
<linearGradient id="paint39_linear" x1="174.926" y1="7.10358" x2="252.344" y2="105.492" gradientUnits="userSpaceOnUse">
<stop offset="0.0873" stop-color="#7DFBDC"/>
<stop offset="0.9709" stop-color="#3C53D7"/>
</linearGradient>
<linearGradient id="paint40_linear" x1="310.126" y1="145.856" x2="200.855" y2="219.941" gradientUnits="userSpaceOnUse">
<stop offset="0.348958" stop-color="#69BECF" stop-opacity="0.44"/>
<stop offset="0.979167" stop-color="#68B680" stop-opacity="0"/>
</linearGradient>
</defs>
</svg>
