<svg width="461" height="472" viewBox="0 0 461 472" fill="none" xmlns="http://www.w3.org/2000/svg">
<g opacity="0.59">
<path d="M143.131 318.96C124.505 290.315 135.862 249.916 168.476 228.703C201.09 207.49 242.635 213.514 261.247 242.136C279.873 270.78 268.516 311.18 235.902 332.392C203.288 353.605 161.743 347.581 143.131 318.96Z" fill="url(#paint0_linear)"/>
<path d="M168.582 228.525C198.773 208.888 236.578 212.588 256.819 235.895C255.773 233.627 254.558 231.403 253.15 229.238C234.515 200.581 192.968 194.578 160.34 215.799C127.712 237.021 116.365 277.46 134.984 306.094C136.377 308.235 137.917 310.248 139.581 312.147C126.426 284.199 138.391 248.161 168.582 228.525Z" fill="url(#paint1_linear)"/>
<g opacity="0.5">
<path opacity="0.5" d="M166.472 229.918L158.232 217.248C156.849 218.214 155.481 219.203 154.181 220.247L162.435 232.941C163.735 231.897 165.065 230.899 166.472 229.918Z" fill="url(#paint2_linear)"/>
<path opacity="0.5" d="M177.333 223.547L169.094 210.876C167.583 211.595 166.093 212.398 164.619 213.224L172.874 225.918C174.371 225.076 175.837 224.288 177.333 223.547Z" fill="url(#paint3_linear)"/>
<path opacity="0.5" d="M156.654 237.951L148.4 225.258C147.168 226.456 145.951 227.678 144.802 228.954L153.056 241.647C154.22 240.394 155.399 239.165 156.654 237.951Z" fill="url(#paint4_linear)"/>
<path opacity="0.5" d="M148.02 247.804L139.766 235.111C138.677 236.581 137.656 238.104 136.697 239.621L144.951 252.314C145.918 250.759 146.931 249.273 148.02 247.804Z" fill="url(#paint5_linear)"/>
<path opacity="0.5" d="M189.34 218.88L181.101 206.211C179.438 206.697 177.806 207.229 176.157 207.838L184.412 220.531C186.06 219.922 187.716 219.375 189.34 218.88Z" fill="url(#paint6_linear)"/>
<path opacity="0.5" d="M202.647 216.214L194.393 203.521C192.572 203.713 190.735 203.981 188.905 204.312L197.159 217.004C198.989 216.674 200.826 216.406 202.647 216.214Z" fill="url(#paint7_linear)"/>
<path opacity="0.5" d="M220.912 216.601L212.659 203.909C210.529 203.574 208.398 203.34 206.204 203.212L214.458 215.904C216.651 216.032 218.821 216.275 220.912 216.601Z" fill="url(#paint8_linear)"/>
<path opacity="0.5" d="M239.893 222.658L231.625 209.944C228.968 208.596 226.233 207.432 223.372 206.481L231.625 219.172C234.485 220.123 237.244 221.272 239.893 222.658Z" fill="url(#paint9_linear)"/>
<path opacity="0.5" d="M139.571 262.511L131.318 249.818C130.493 251.744 129.76 253.71 129.126 255.676L137.379 268.369C138.013 266.402 138.746 264.436 139.571 262.511Z" fill="url(#paint10_linear)"/>
<path opacity="0.5" d="M126.685 265.821C126.259 268.513 126.01 271.222 125.944 273.91L134.213 286.625C134.278 283.936 134.512 281.204 134.938 278.513L126.685 265.821Z" fill="url(#paint11_linear)"/>
</g>
<path opacity="0.6" d="M156.477 312.942C171.519 336.075 204.785 341.122 230.778 324.216C256.771 307.309 265.649 274.852 250.606 251.719C235.564 228.587 202.299 223.54 176.306 240.446C150.312 257.352 141.435 289.81 156.477 312.942Z" stroke="url(#paint12_linear)" stroke-width="1.0818" stroke-miterlimit="10"/>
<path opacity="0.6" d="M160.838 310.569C174.501 331.581 204.717 336.166 228.328 320.809C251.938 305.453 260.001 275.97 246.338 254.958C232.675 233.947 202.459 229.362 178.848 244.719C155.238 260.075 147.174 289.557 160.838 310.569Z" stroke="url(#paint13_linear)" stroke-width="0.3152" stroke-miterlimit="10"/>
<path d="M181.525 150.011C165.758 145.404 157.205 127.078 162.377 109.034C167.57 91.0222 184.56 80.1087 200.327 84.7162C216.093 89.3236 224.646 107.649 219.474 125.693C214.281 143.705 197.27 154.587 181.525 150.011Z" fill="url(#paint14_linear)"/>
<path d="M219.457 125.636C214.658 142.298 199.755 152.857 185.063 150.742C186.168 151.254 187.296 151.66 188.488 152.025C204.254 156.632 221.245 145.718 226.438 127.706C231.632 109.693 223.057 91.3355 207.291 86.7281C206.12 86.3954 204.906 86.1363 203.702 85.962C217.286 92.0349 224.256 108.974 219.457 125.636Z" fill="url(#paint15_linear)"/>
<g opacity="0.5">
<path opacity="0.5" d="M219.128 126.775C218.877 127.577 218.584 128.314 218.312 129.084L225.324 131.132C225.617 130.394 225.889 129.625 226.141 128.823L219.128 126.775Z" fill="url(#paint16_linear)"/>
<path opacity="0.5" d="M220.573 120.877C220.46 121.68 220.293 122.472 220.126 123.264L227.117 125.28C227.284 124.488 227.451 123.696 227.564 122.893L220.573 120.877Z" fill="url(#paint17_linear)"/>
<path opacity="0.5" d="M216.8 132.434C216.423 133.181 216.024 133.896 215.626 134.611L222.617 136.627C223.016 135.912 223.446 135.176 223.824 134.429L216.8 132.434Z" fill="url(#paint18_linear)"/>
<path opacity="0.5" d="M213.489 137.77C212.953 138.483 212.396 139.165 211.851 139.793L218.843 141.809C219.421 141.16 219.978 140.479 220.514 139.765L213.489 137.77Z" fill="url(#paint19_linear)"/>
<path opacity="0.5" d="M221.027 114.716C221.018 115.542 221.01 116.367 220.97 117.214L227.981 119.262C228.021 118.415 228.03 117.589 228.038 116.764L221.027 114.716Z" fill="url(#paint20_linear)"/>
<path opacity="0.5" d="M220.383 108.2C220.533 109.059 220.704 109.951 220.79 110.852L227.801 112.9C227.715 111.999 227.565 111.139 227.394 110.248L220.383 108.2Z" fill="url(#paint21_linear)"/>
<path opacity="0.5" d="M217.674 99.8251C218.14 100.752 218.543 101.72 218.913 102.71L225.923 104.757C225.553 103.768 225.15 102.8 224.684 101.873L217.674 99.8251Z" fill="url(#paint22_linear)"/>
<path opacity="0.5" d="M212.225 91.9366C213.218 92.9759 214.116 94.0775 214.971 95.2527L221.981 97.2999C221.126 96.1248 220.228 95.0232 219.234 93.9838L212.225 91.9366Z" fill="url(#paint23_linear)"/>
<path opacity="0.5" d="M207.868 143.747C207.1 144.383 206.279 145.008 205.469 145.58L212.483 147.629C213.293 147.057 214.082 146.452 214.882 145.795L207.868 143.747Z" fill="url(#paint24_linear)"/>
<path opacity="0.5" d="M201.175 148.095C200.006 148.673 198.774 149.155 197.532 149.553L204.546 151.601C205.788 151.204 206.999 150.69 208.169 150.111L201.175 148.095Z" fill="url(#paint25_linear)"/>
</g>
<path d="M183.264 143.588C182.642 143.4 182.31 142.75 182.475 142.095C182.661 141.473 183.374 141.101 184.028 141.268C184.755 141.478 185.494 141.636 186.212 141.762C186.877 141.876 187.326 142.496 187.213 143.162C187.101 143.828 186.483 144.275 185.818 144.161C184.994 144.012 184.15 143.832 183.317 143.599L183.264 143.588ZM176.834 140.339C176.708 140.285 176.581 140.23 176.434 140.143C175.741 139.637 175.112 139.089 174.494 138.488C174.012 138.026 173.977 137.274 174.437 136.792C174.896 136.311 175.648 136.278 176.13 136.74C176.685 137.245 177.241 137.75 177.86 138.213C178.385 138.601 178.525 139.376 178.107 139.921C177.828 140.331 177.298 140.493 176.834 140.339ZM192.874 144.039C192.431 143.917 192.117 143.574 192.027 143.086C191.917 142.428 192.325 141.797 192.982 141.689C193.723 141.572 194.455 141.369 195.166 141.135C195.813 140.942 196.487 141.279 196.681 141.927C196.876 142.576 196.541 143.249 195.894 143.442C195.099 143.686 194.282 143.898 193.424 144.046C193.243 144.118 193.053 144.105 192.874 144.039ZM170.614 133.079C170.329 132.991 170.066 132.797 169.879 132.509C169.484 131.762 169.122 130.995 168.759 130.228C168.501 129.621 168.794 128.883 169.399 128.626C170.005 128.369 170.742 128.665 171.001 129.272C171.321 129.975 171.642 130.678 171.974 131.328C172.317 131.925 172.077 132.674 171.493 132.963C171.237 133.13 170.93 133.147 170.614 133.079ZM201.647 140.339C201.383 140.282 201.142 140.12 200.975 139.864C200.6 139.287 200.724 138.569 201.278 138.163C201.916 137.747 202.513 137.268 203.111 136.788C203.612 136.371 204.373 136.423 204.812 136.958C205.23 137.461 205.18 138.223 204.647 138.661C204.006 139.214 203.325 139.704 202.643 140.193C202.355 140.38 201.985 140.438 201.647 140.339ZM167.712 123.934C167.269 123.812 166.913 123.405 166.823 122.917C166.694 122.089 166.649 121.252 166.605 120.415C166.58 119.747 167.082 119.192 167.781 119.148C168.447 119.125 169.003 119.63 169.049 120.329C169.083 121.082 169.139 121.866 169.258 122.609C169.336 123.288 168.875 123.907 168.23 123.962C168.028 124.002 167.859 124.021 167.712 123.934ZM208.421 133.563C208.294 133.508 208.168 133.453 208.073 133.378C207.517 133.011 207.376 132.236 207.794 131.691C208.255 131.072 208.643 130.409 209.03 129.747C209.374 129.158 210.106 128.956 210.695 129.302C211.284 129.649 211.488 130.382 211.144 130.971C210.713 131.707 210.262 132.411 209.79 133.082C209.447 133.533 208.884 133.717 208.421 133.563ZM168.093 114.386C167.491 114.23 167.127 113.601 167.261 112.967C167.427 112.175 167.615 111.415 167.834 110.634L167.877 110.56C168.063 109.938 168.743 109.587 169.366 109.775C169.988 109.963 170.361 110.677 170.196 111.331C169.988 112.059 169.812 112.767 169.656 113.506C169.523 114.14 168.873 114.608 168.219 114.441C168.145 114.398 168.093 114.386 168.093 114.386ZM212.526 124.92C211.904 124.732 211.498 124.039 211.716 123.395C211.925 122.667 212.112 121.907 212.268 121.168C212.401 120.534 213.051 120.066 213.705 120.233C214.338 120.368 214.787 120.988 214.642 121.675C214.476 122.467 214.277 123.28 214.058 124.061L214.026 124.082C213.829 124.757 213.148 125.108 212.526 124.92ZM171.493 105.428C171.387 105.405 171.314 105.362 171.24 105.319C170.651 104.972 170.447 104.239 170.791 103.65C171.19 102.935 171.673 102.211 172.145 101.539C172.51 100.982 173.284 100.844 173.829 101.264C174.386 101.631 174.527 102.406 174.109 102.951C173.648 103.57 173.26 104.233 172.873 104.895C172.583 105.357 172.009 105.593 171.493 105.428ZM213.668 115.424C213.172 115.291 212.828 114.831 212.801 114.301C212.767 113.549 212.711 112.765 212.592 112.022C212.514 111.343 212.975 110.724 213.62 110.669C214.298 110.593 214.897 111.024 214.975 111.703C215.104 112.53 215.148 113.368 215.193 114.205C215.218 114.872 214.715 115.427 214.017 115.471C213.932 115.481 213.774 115.447 213.668 115.424ZM177.637 98.1035C177.405 98.0264 177.205 97.9286 177.059 97.7044C176.641 97.2013 176.691 96.4393 177.224 96.0014C177.864 95.4482 178.546 94.9592 179.228 94.4701C179.803 94.0962 180.521 94.2219 180.928 94.7778C181.303 95.3545 181.179 96.0731 180.625 96.4791C179.987 96.8945 179.389 97.3741 178.792 97.8536C178.43 98.1349 178.027 98.2144 177.637 98.1035ZM211.551 106.088C211.213 105.989 210.93 105.763 210.786 105.401C210.465 104.698 210.144 103.994 209.812 103.344C209.469 102.747 209.709 101.998 210.294 101.709C210.858 101.388 211.638 101.609 211.928 102.196C212.323 102.942 212.717 103.688 213.048 104.476C213.306 105.083 213.045 105.8 212.408 106.078C212.09 106.148 211.815 106.144 211.551 106.088ZM186.017 93.5191C185.627 93.4082 185.302 93.1181 185.169 92.7034C184.974 92.0549 185.341 91.3605 185.956 91.1884C186.752 90.9444 187.621 90.7437 188.426 90.5845C189.083 90.4764 189.714 90.8869 189.823 91.545C189.933 92.203 189.525 92.8331 188.836 92.962C188.095 93.0796 187.363 93.282 186.631 93.4845C186.471 93.5884 186.249 93.5962 186.017 93.5191ZM206.13 98.1713C205.951 98.1055 205.772 98.0396 205.636 97.9002C205.08 97.3954 204.493 96.9112 203.905 96.4272C203.38 96.0392 203.24 95.2643 203.658 94.7189C204.044 94.1943 204.817 94.0559 205.363 94.476C206.056 94.9826 206.685 95.5308 207.335 96.111C207.817 96.5725 207.852 97.3248 207.392 97.8061C207.008 98.1931 206.541 98.3143 206.13 98.1713ZM195.521 92.8992C194.952 92.7225 194.577 92.1458 194.678 91.5328C194.791 90.867 195.409 90.4196 196.074 90.534C196.897 90.6822 197.689 90.8512 198.49 91.105L198.543 91.1163C199.165 91.3043 199.55 91.9658 199.332 92.6091C199.146 93.2315 198.454 93.6357 197.811 93.4157C197.084 93.2051 196.377 93.0266 195.659 92.9009C195.627 92.9217 195.574 92.9105 195.521 92.8992Z" fill="url(#paint26_linear)"/>
<path d="M323.695 281.515C325.838 263.798 343.966 251.478 364.181 253.99C384.396 256.502 399.049 272.895 396.929 290.597C394.786 308.313 376.658 320.633 356.443 318.121C336.213 315.586 321.56 299.193 323.695 281.515Z" fill="url(#paint27_linear)"/>
<path d="M356.16 314.234C337.463 311.926 323.532 297.71 323.24 281.577C322.913 282.85 322.638 284.154 322.479 285.482C320.336 303.2 334.99 319.593 355.229 322.091C375.444 324.603 393.573 312.282 395.716 294.565C395.876 293.236 395.935 291.906 395.91 290.598C391.767 306.206 374.872 316.565 356.16 314.234Z" fill="url(#paint28_linear)"/>
<g opacity="0.5">
<path opacity="0.5" d="M354.806 314.079C353.931 313.952 353.065 313.787 352.207 313.584L351.253 321.455C352.096 321.635 352.962 321.8 353.852 321.949L354.806 314.079Z" fill="url(#paint29_linear)"/>
<path opacity="0.5" d="M361.398 314.554C360.514 314.566 359.624 314.516 358.757 314.451L357.825 322.307C358.716 322.357 359.591 322.383 360.475 322.371L361.398 314.554Z" fill="url(#paint30_linear)"/>
<path opacity="0.5" d="M348.364 312.557C347.498 312.292 346.664 311.974 345.815 311.633L344.884 319.487C345.718 319.806 346.552 320.124 347.433 320.412L348.364 312.557Z" fill="url(#paint31_linear)"/>
<path opacity="0.5" d="M342.053 309.921C341.205 309.479 340.365 309 339.571 308.49L338.617 316.359C339.434 316.854 340.251 317.349 341.099 317.79L342.053 309.921Z" fill="url(#paint32_linear)"/>
<path opacity="0.5" d="M368.108 313.997C367.216 314.147 366.331 314.259 365.409 314.362L364.454 322.234C365.354 322.145 366.261 322.018 367.154 321.868L368.108 313.997Z" fill="url(#paint33_linear)"/>
<path opacity="0.5" d="M374.973 312.206C374.063 312.533 373.162 312.821 372.207 313.078L371.252 320.95C372.207 320.693 373.109 320.405 374.019 320.078L374.973 312.206Z" fill="url(#paint34_linear)"/>
<path opacity="0.5" d="M383.469 307.833C382.533 308.475 381.605 309.079 380.586 309.643L379.631 317.516C380.628 316.967 381.579 316.348 382.492 315.721L383.469 307.833Z" fill="url(#paint35_linear)"/>
<path opacity="0.5" d="M390.984 300.63C390.042 301.872 389.031 303.059 387.899 304.16L386.944 312.033C388.077 310.932 389.087 309.745 390.029 308.503L390.984 300.63Z" fill="url(#paint36_linear)"/>
<path opacity="0.5" d="M334.689 304.947C333.859 304.229 333.076 303.481 332.301 302.694L331.347 310.563C332.084 311.341 332.905 312.097 333.735 312.815L334.689 304.947Z" fill="url(#paint37_linear)"/>
<path opacity="0.5" d="M328.846 298.509C328.013 297.33 327.288 296.113 326.633 294.852L325.679 302.719C326.334 303.981 327.082 305.182 327.9 306.338L328.846 298.509Z" fill="url(#paint38_linear)"/>
</g>
<path d="M330.612 278.425C330.704 277.703 331.362 277.242 332.083 277.336C332.804 277.43 333.296 278.136 333.243 278.866C333.15 279.688 333.096 280.518 333.088 281.318C333.073 282.056 332.491 282.633 331.769 282.639C331.046 282.645 330.453 282.038 330.445 281.315C330.439 280.392 330.494 279.462 330.626 278.548L330.612 278.425ZM332.96 270.971C332.993 270.818 333.025 270.664 333.095 270.519C333.526 269.709 333.995 268.908 334.517 268.138C334.923 267.543 335.738 267.376 336.334 267.784C336.929 268.192 337.097 269.009 336.669 269.619C336.209 270.282 335.794 271.015 335.403 271.733C335.066 272.383 334.273 272.634 333.623 272.295C333.157 272.035 332.886 271.516 332.96 270.971ZM331.791 288.815C331.85 288.347 332.161 287.913 332.639 287.734C333.333 287.482 334.083 287.822 334.337 288.517C334.613 289.298 334.936 290.048 335.32 290.791C335.644 291.441 335.375 292.246 334.727 292.568C334.078 292.89 333.274 292.619 332.951 291.968C332.544 291.14 332.184 290.282 331.862 289.432C331.803 289.239 331.789 289.015 331.791 288.815ZM339.645 263.081C339.694 262.751 339.844 262.422 340.153 262.188C340.85 261.635 341.623 261.099 342.404 260.624C343.007 260.232 343.827 260.427 344.22 261.032C344.614 261.637 344.421 262.457 343.818 262.85C343.122 263.302 342.427 263.755 341.776 264.277C341.203 264.716 340.382 264.621 339.927 264.023C339.684 263.751 339.596 263.411 339.645 263.081ZM337.326 297.631C337.367 297.34 337.485 297.064 337.733 296.837C338.261 296.328 339.098 296.346 339.607 296.876C340.162 297.475 340.763 298.044 341.411 298.583C341.951 299.06 342.035 299.899 341.538 300.454C341.064 300.994 340.226 301.076 339.67 300.576C338.977 299.967 338.307 299.344 337.684 298.69C337.403 298.409 337.292 297.985 337.326 297.631ZM348.902 258.385C348.968 257.878 349.303 257.428 349.834 257.281C350.69 257.023 351.598 256.796 352.476 256.623C353.184 256.493 353.87 256.941 354.04 257.658C354.171 258.367 353.742 259.077 353.01 259.222C352.195 259.388 351.371 259.593 350.6 259.829C349.914 260.043 349.158 259.642 348.965 258.939C348.906 258.746 348.884 258.561 348.902 258.385ZM345.753 303.738C345.762 303.6 345.809 303.47 345.88 303.325C346.178 302.667 346.995 302.401 347.629 302.716C348.371 303.095 349.143 303.42 349.924 303.707C350.59 303.969 350.951 304.728 350.667 305.409C350.407 306.074 349.651 306.434 348.985 306.172C348.151 305.853 347.31 305.473 346.492 305.078C345.965 304.826 345.701 304.268 345.753 303.738ZM359.214 257.14C359.298 256.456 359.887 255.941 360.578 255.988C361.43 256.03 362.336 256.103 363.195 256.206L363.272 256.223C363.993 256.316 364.478 256.961 364.386 257.683C364.294 258.405 363.606 258.919 362.885 258.825C362.087 258.715 361.258 258.658 360.467 258.609C359.753 258.577 359.183 257.955 359.213 257.24C359.198 257.216 359.206 257.178 359.214 257.14ZM355.747 306.673C355.839 305.952 356.505 305.453 357.226 305.546C358.047 305.642 358.876 305.698 359.705 305.755C360.419 305.787 360.989 306.41 360.958 307.125C360.928 307.84 360.308 308.409 359.594 308.376C358.703 308.327 357.798 308.253 356.915 308.165L356.877 308.157C356.179 308.048 355.679 307.38 355.747 306.673ZM369.394 259.293C369.395 259.193 369.419 259.078 369.481 258.971C369.741 258.305 370.498 257.946 371.179 258.231C372.013 258.549 372.854 258.929 373.672 259.324C374.344 259.648 374.598 260.444 374.284 261.078C373.97 261.713 373.169 262.002 372.534 261.687C371.793 261.308 371.021 260.983 370.24 260.696C369.651 260.45 369.334 259.861 369.394 259.293ZM366.121 306.283C366.195 305.738 366.592 305.282 367.161 305.143C367.977 304.976 368.801 304.772 369.572 304.535C370.258 304.321 371.014 304.723 371.207 305.425C371.423 306.113 371.023 306.869 370.322 307.06C369.467 307.318 368.559 307.545 367.681 307.718C366.973 307.848 366.263 307.416 366.117 306.683C366.126 306.545 366.112 306.422 366.121 306.283ZM378.319 264.645C378.353 264.391 378.463 264.154 378.626 263.949C379.1 263.409 379.938 263.327 380.494 263.827C381.187 264.435 381.856 265.059 382.48 265.713C382.989 266.243 382.973 267.081 382.43 267.566C381.903 268.075 381.066 268.056 380.58 267.512C380.025 266.912 379.409 266.32 378.776 265.804C378.418 265.507 378.269 265.075 378.319 264.645ZM375.761 302.43C375.803 302.038 376.014 301.703 376.362 301.476C377.058 301.024 377.738 300.548 378.404 300.049C378.977 299.61 379.798 299.705 380.237 300.28C380.677 300.855 380.584 301.677 380.012 302.115C379.315 302.668 378.541 303.204 377.761 303.679C377.158 304.071 376.338 303.876 375.944 303.271C375.793 303.038 375.743 302.707 375.761 302.43ZM384.697 272.879C384.748 272.449 385.013 272.045 385.414 271.85C386.062 271.528 386.866 271.799 387.167 272.465C387.573 273.293 387.934 274.151 388.255 275.001C388.51 275.697 388.133 276.438 387.463 276.676C386.769 276.928 386.028 276.55 385.789 275.877C385.512 275.097 385.189 274.347 384.828 273.588C384.715 273.364 384.672 273.094 384.697 272.879ZM383.237 295.25C383.262 295.035 383.341 294.851 383.458 294.676C383.903 293.989 384.332 293.28 384.723 292.562C385.06 291.912 385.854 291.661 386.503 292C387.153 292.339 387.406 293.134 387.069 293.784C386.639 294.593 386.17 295.395 385.671 296.15C385.265 296.745 384.45 296.911 383.854 296.504C383.397 296.206 383.194 295.742 383.237 295.25ZM387.062 282.962C387.138 282.317 387.688 281.793 388.387 281.802C389.109 281.796 389.702 282.403 389.687 283.142C389.678 284.041 389.631 284.933 389.522 285.831L389.529 285.893C389.438 286.615 388.795 287.099 388.074 287.005C387.353 286.911 386.838 286.22 386.929 285.498C387.037 284.7 387.083 283.908 387.091 283.108C387.061 283.062 387.054 283 387.062 282.962Z" fill="url(#paint39_linear)"/>
<g filter="url(#filter0_d)">
<path d="M228.696 311.46L240.46 307.272L237.674 301.74L227.296 305.922L231.407 289.289L227.925 282.366L222.445 305.243L208.62 315.67L212.791 321.198L223.157 312.244L218.351 328.113L222.52 332.947L228.696 311.46Z" fill="white"/>
<path d="M228.696 311.46L240.46 307.272L237.674 301.74L227.296 305.922L231.407 289.289L227.925 282.366L222.445 305.243L208.62 315.67L212.791 321.198L223.157 312.244L218.351 328.113L222.52 332.947L228.696 311.46Z" stroke="#3BC3C3"/>
</g>
<g filter="url(#filter1_d)">
<path d="M196.113 242.802L203.059 235.812L214.863 260.341L208.947 266.566L204.625 258.164L183.569 279L177.745 272.05L200.78 251.491L196.113 242.802Z" fill="white"/>
<path d="M196.113 242.802L203.059 235.812L214.863 260.341L208.947 266.566L204.625 258.164L183.569 279L177.745 272.05L200.78 251.491L196.113 242.802Z" stroke="#3BC3C3"/>
</g>
<g filter="url(#filter2_d)">
<path d="M189.549 292.012L216.933 262.123C216.933 262.123 225.562 276.901 225.447 280.335C225.332 283.768 225.625 285.465 222.23 289.251C218.836 293.037 214.337 290.782 214.337 290.782L205.227 310.853L201.306 305.654L209.624 289.711L205.806 284.155C200.653 288.716 197.949 291.409 193.89 296.99L189.549 292.012Z" fill="white"/>
<path d="M189.549 292.012L216.933 262.123C216.933 262.123 225.562 276.901 225.447 280.335C225.332 283.768 225.625 285.465 222.23 289.251C218.836 293.037 214.337 290.782 214.337 290.782L205.227 310.853L201.306 305.654L209.624 289.711L205.806 284.155C200.653 288.716 197.949 291.409 193.89 296.99L189.549 292.012Z" stroke="#3BC3C3"/>
</g>
<g filter="url(#filter3_i)">
<path d="M215.303 272.281L210.032 278.835C210.032 278.835 212.622 284.067 213.852 284.923C215.502 286.072 217.182 284.833 218.312 283.21C219.385 281.67 219.268 280.664 219.095 279.74C218.82 278.279 215.303 272.281 215.303 272.281Z" fill="#3BC3C3"/>
</g>
<path d="M215.303 272.281L210.032 278.835C210.032 278.835 212.622 284.067 213.852 284.923C215.502 286.072 217.182 284.833 218.312 283.21C219.385 281.67 219.268 280.664 219.095 279.74C218.82 278.279 215.303 272.281 215.303 272.281Z" stroke="#3BC3C3"/>
<path d="M143.342 317.027C124.715 288.382 136.073 247.983 168.687 226.77C201.301 205.558 242.846 211.581 261.457 240.203C280.084 268.848 268.726 309.247 236.112 330.46C203.499 351.672 161.954 345.649 143.342 317.027Z" fill="url(#paint40_linear)"/>
<g filter="url(#filter4_d)">
<path d="M200.758 129.674L207.104 128.075L205.926 125.05L200.303 126.715L203.276 118.242L201.804 114.456L197.806 126.119L190.074 130.871L191.975 133.963L197.829 129.807L194.531 137.847L196.466 140.577L200.758 129.674Z" fill="white"/>
<path d="M200.758 129.674L207.104 128.075L205.926 125.05L200.303 126.715L203.276 118.242L201.804 114.456L197.806 126.119L190.074 130.871L191.975 133.963L197.829 129.807L194.531 137.847L196.466 140.577L200.758 129.674Z" stroke="#3BC3C3"/>
</g>
<g filter="url(#filter5_d)">
<path d="M187.177 92.2287L191.149 88.9276L196.086 102.313L192.69 105.266L190.853 100.667L178.83 110.49L176.138 106.574L189.179 96.9945L187.177 92.2287Z" fill="white"/>
<path d="M187.177 92.2287L191.149 88.9276L196.086 102.313L192.69 105.266L190.853 100.667L178.83 110.49L176.138 106.574L189.179 96.9945L187.177 92.2287Z" stroke="#3BC3C3"/>
</g>
<g filter="url(#filter6_d)">
<path d="M181.302 117.577L197.077 103.347C197.077 103.347 200.843 111.487 200.612 113.272C200.381 115.058 200.45 115.958 198.49 117.764C196.531 119.57 194.295 118.17 194.295 118.17L188.543 128.188L186.757 125.28L191.89 117.377L190.175 114.288C187.259 116.411 185.714 117.681 183.319 120.391L181.302 117.577Z" fill="white"/>
<path d="M181.302 117.577L197.077 103.347C197.077 103.347 200.843 111.487 200.612 113.272C200.381 115.058 200.45 115.958 198.49 117.764C196.531 119.57 194.295 118.17 194.295 118.17L188.543 128.188L186.757 125.28L191.89 117.377L190.175 114.288C187.259 116.411 185.714 117.681 183.319 120.391L181.302 117.577Z" stroke="#3BC3C3"/>
</g>
<g filter="url(#filter7_i)">
<path d="M195.72 108.569L192.644 111.725C192.644 111.725 193.735 114.584 194.334 115.092C195.138 115.774 196.076 115.211 196.746 114.42C197.382 113.67 197.372 113.139 197.327 112.649C197.257 111.873 195.72 108.569 195.72 108.569Z" fill="#3BC3C3"/>
</g>
<path d="M195.72 108.569L192.644 111.725C192.644 111.725 193.735 114.584 194.334 115.092C195.138 115.774 196.076 115.211 196.746 114.42C197.382 113.67 197.372 113.139 197.327 112.649C197.257 111.873 195.72 108.569 195.72 108.569Z" stroke="#3BC3C3"/>
<g filter="url(#filter8_d)">
<path d="M351.233 285.645L363.793 292.408L358.172 293.179L350.493 289.337L350.37 295.14L346.077 296.946L346.045 287.633L332.295 278.689L337.091 277.526L347.289 284.584L346.935 275.522L350.515 274.793L351.233 285.645Z" fill="white"/>
<path d="M351.233 285.645L363.793 292.408L358.172 293.179L350.493 289.337L350.37 295.14L346.077 296.946L346.045 287.633L332.295 278.689L337.091 277.526L347.289 284.584L346.935 275.522L350.515 274.793L351.233 285.645Z" stroke="#3BC3C3"/>
</g>
<g filter="url(#filter9_d)">
<path d="M392.138 283.854L394.971 287.471L380.276 289.253L377.561 285.787L382.815 285.076L372.544 271.963L376.91 270.975L387.299 284.239L392.138 283.854Z" fill="white"/>
<path d="M392.138 283.854L394.971 287.471L380.276 289.253L377.561 285.787L382.815 285.076L372.544 271.963L376.91 270.975L387.299 284.239L392.138 283.854Z" stroke="#3BC3C3"/>
</g>
<g filter="url(#filter10_d)">
<path d="M365.788 273.041L378.803 290.303C378.803 290.303 369.008 292.558 367.238 291.948C365.467 291.339 364.448 291.138 363.02 288.764C361.591 286.39 363.485 284.407 363.485 284.407L353.088 275.582L357.658 274.949L364.798 282.123L367.695 281.528L361.944 273.636L365.788 273.041Z" fill="white"/>
<path d="M365.788 273.041L378.803 290.303C378.803 290.303 369.008 292.558 367.238 291.948C365.467 291.339 364.448 291.138 363.02 288.764C361.591 286.39 363.485 284.407 363.485 284.407L353.088 275.582L357.658 274.949L364.798 282.123L367.695 281.528L361.944 273.636L365.788 273.041Z" stroke="#3BC3C3"/>
</g>
<g filter="url(#filter11_i)">
<path d="M373.864 287.913L370.877 284.1C370.877 284.1 367.94 284.507 367.273 285.03C366.378 285.731 366.769 286.845 367.458 287.724C368.113 288.56 368.676 288.664 369.204 288.724C370.039 288.818 373.864 287.913 373.864 287.913Z" fill="#3BC3C3"/>
</g>
<path d="M373.864 287.913L370.877 284.1C370.877 284.1 367.94 284.507 367.273 285.03C366.378 285.731 366.769 286.845 367.458 287.724C368.113 288.56 368.676 288.664 369.204 288.724C370.039 288.818 373.864 287.913 373.864 287.913Z" stroke="#3BC3C3"/>
</g>
<defs>
<filter id="filter0_d" x="197.242" y="280.92" width="56.0319" height="61.0634" filterUnits="userSpaceOnUse" color-interpolation-filters="sRGB">
<feFlood flood-opacity="0" result="BackgroundImageFix"/>
<feColorMatrix in="SourceAlpha" type="matrix" values="0 0 0 0 0 0 0 0 0 0 0 0 0 0 0 0 0 0 127 0"/>
<feOffset dy="4"/>
<feGaussianBlur stdDeviation="2"/>
<feColorMatrix type="matrix" values="0 0 0 0 0.126979 0 0 0 0 0.575 0 0 0 0 0.575 0 0 0 1 0"/>
<feBlend mode="normal" in2="BackgroundImageFix" result="effect1_dropShadow"/>
<feBlend mode="normal" in="SourceGraphic" in2="effect1_dropShadow" result="shape"/>
</filter>
<filter id="filter1_d" x="170.229" y="233.875" width="57.1793" height="62.5327" filterUnits="userSpaceOnUse" color-interpolation-filters="sRGB">
<feFlood flood-opacity="0" result="BackgroundImageFix"/>
<feColorMatrix in="SourceAlpha" type="matrix" values="0 0 0 0 0 0 0 0 0 0 0 0 0 0 0 0 0 0 127 0"/>
<feOffset dy="4"/>
<feGaussianBlur stdDeviation="2"/>
<feColorMatrix type="matrix" values="0 0 0 0 0.14902 0 0 0 0 0.615686 0 0 0 0 0.615686 0 0 0 1 0"/>
<feBlend mode="normal" in2="BackgroundImageFix" result="effect1_dropShadow"/>
<feBlend mode="normal" in="SourceGraphic" in2="effect1_dropShadow" result="shape"/>
</filter>
<filter id="filter2_d" x="180.956" y="258.116" width="57.234" height="62.6416" filterUnits="userSpaceOnUse" color-interpolation-filters="sRGB">
<feFlood flood-opacity="0" result="BackgroundImageFix"/>
<feColorMatrix in="SourceAlpha" type="matrix" values="0 0 0 0 0 0 0 0 0 0 0 0 0 0 0 0 0 0 127 0"/>
<feOffset dy="4"/>
<feGaussianBlur stdDeviation="2"/>
<feColorMatrix type="matrix" values="0 0 0 0 0.126979 0 0 0 0 0.575 0 0 0 0 0.575 0 0 0 1 0"/>
<feBlend mode="normal" in2="BackgroundImageFix" result="effect1_dropShadow"/>
<feBlend mode="normal" in="SourceGraphic" in2="effect1_dropShadow" result="shape"/>
</filter>
<filter id="filter3_i" x="207.711" y="271.03" width="15.5868" height="20.1217" filterUnits="userSpaceOnUse" color-interpolation-filters="sRGB">
<feFlood flood-opacity="0" result="BackgroundImageFix"/>
<feBlend mode="normal" in="SourceGraphic" in2="BackgroundImageFix" result="shape"/>
<feColorMatrix in="SourceAlpha" type="matrix" values="0 0 0 0 0 0 0 0 0 0 0 0 0 0 0 0 0 0 127 0" result="hardAlpha"/>
<feOffset dy="4"/>
<feGaussianBlur stdDeviation="2"/>
<feComposite in2="hardAlpha" operator="arithmetic" k2="-1" k3="1"/>
<feColorMatrix type="matrix" values="0 0 0 0 0.145098 0 0 0 0 0.607843 0 0 0 0 0.607843 0 0 0 1 0"/>
<feBlend mode="normal" in2="shape" result="effect1_innerShadow"/>
</filter>
<filter id="filter4_d" x="181.489" y="113.001" width="35.3881" height="36.6192" filterUnits="userSpaceOnUse" color-interpolation-filters="sRGB">
<feFlood flood-opacity="0" result="BackgroundImageFix"/>
<feColorMatrix in="SourceAlpha" type="matrix" values="0 0 0 0 0 0 0 0 0 0 0 0 0 0 0 0 0 0 127 0"/>
<feOffset dy="4"/>
<feGaussianBlur stdDeviation="2"/>
<feColorMatrix type="matrix" values="0 0 0 0 0.126979 0 0 0 0 0.575 0 0 0 0 0.575 0 0 0 1 0"/>
<feBlend mode="normal" in2="BackgroundImageFix" result="effect1_dropShadow"/>
<feBlend mode="normal" in="SourceGraphic" in2="effect1_dropShadow" result="shape"/>
</filter>
<filter id="filter5_d" x="169.848" y="87.3916" width="35.6985" height="37.02" filterUnits="userSpaceOnUse" color-interpolation-filters="sRGB">
<feFlood flood-opacity="0" result="BackgroundImageFix"/>
<feColorMatrix in="SourceAlpha" type="matrix" values="0 0 0 0 0 0 0 0 0 0 0 0 0 0 0 0 0 0 127 0"/>
<feOffset dy="4"/>
<feGaussianBlur stdDeviation="2"/>
<feColorMatrix type="matrix" values="0 0 0 0 0.14902 0 0 0 0 0.615686 0 0 0 0 0.615686 0 0 0 1 0"/>
<feBlend mode="normal" in2="BackgroundImageFix" result="effect1_dropShadow"/>
<feBlend mode="normal" in="SourceGraphic" in2="effect1_dropShadow" result="shape"/>
</filter>
<filter id="filter6_d" x="174.197" y="100.596" width="35.7388" height="37.0799" filterUnits="userSpaceOnUse" color-interpolation-filters="sRGB">
<feFlood flood-opacity="0" result="BackgroundImageFix"/>
<feColorMatrix in="SourceAlpha" type="matrix" values="0 0 0 0 0 0 0 0 0 0 0 0 0 0 0 0 0 0 127 0"/>
<feOffset dy="4"/>
<feGaussianBlur stdDeviation="2"/>
<feColorMatrix type="matrix" values="0 0 0 0 0.126979 0 0 0 0 0.575 0 0 0 0 0.575 0 0 0 1 0"/>
<feBlend mode="normal" in2="BackgroundImageFix" result="effect1_dropShadow"/>
<feBlend mode="normal" in="SourceGraphic" in2="effect1_dropShadow" result="shape"/>
</filter>
<filter id="filter7_i" x="190.969" y="107.457" width="9.10542" height="13.2488" filterUnits="userSpaceOnUse" color-interpolation-filters="sRGB">
<feFlood flood-opacity="0" result="BackgroundImageFix"/>
<feBlend mode="normal" in="SourceGraphic" in2="BackgroundImageFix" result="shape"/>
<feColorMatrix in="SourceAlpha" type="matrix" values="0 0 0 0 0 0 0 0 0 0 0 0 0 0 0 0 0 0 127 0" result="hardAlpha"/>
<feOffset dy="4"/>
<feGaussianBlur stdDeviation="2"/>
<feComposite in2="hardAlpha" operator="arithmetic" k2="-1" k3="1"/>
<feColorMatrix type="matrix" values="0 0 0 0 0.145098 0 0 0 0 0.607843 0 0 0 0 0.607843 0 0 0 1 0"/>
<feBlend mode="normal" in2="shape" result="effect1_innerShadow"/>
</filter>
<filter id="filter8_d" x="326.724" y="267.173" width="42.7126" height="45.0359" filterUnits="userSpaceOnUse" color-interpolation-filters="sRGB">
<feFlood flood-opacity="0" result="BackgroundImageFix"/>
<feColorMatrix in="SourceAlpha" type="matrix" values="0 0 0 0 0 0 0 0 0 0 0 0 0 0 0 0 0 0 127 0"/>
<feOffset dy="4"/>
<feGaussianBlur stdDeviation="2"/>
<feColorMatrix type="matrix" values="0 0 0 0 0.126979 0 0 0 0 0.575 0 0 0 0 0.575 0 0 0 1 0"/>
<feBlend mode="normal" in2="BackgroundImageFix" result="effect1_dropShadow"/>
<feBlend mode="normal" in="SourceGraphic" in2="effect1_dropShadow" result="shape"/>
</filter>
<filter id="filter9_d" x="364.062" y="266.042" width="35.8496" height="38.2461" filterUnits="userSpaceOnUse" color-interpolation-filters="sRGB">
<feFlood flood-opacity="0" result="BackgroundImageFix"/>
<feColorMatrix in="SourceAlpha" type="matrix" values="0 0 0 0 0 0 0 0 0 0 0 0 0 0 0 0 0 0 127 0"/>
<feOffset dy="4"/>
<feGaussianBlur stdDeviation="2"/>
<feColorMatrix type="matrix" values="0 0 0 0 0.14902 0 0 0 0 0.615686 0 0 0 0 0.615686 0 0 0 1 0"/>
<feBlend mode="normal" in2="BackgroundImageFix" result="effect1_dropShadow"/>
<feBlend mode="normal" in="SourceGraphic" in2="effect1_dropShadow" result="shape"/>
</filter>
<filter id="filter10_d" x="347.768" y="267.356" width="36.228" height="39.0003" filterUnits="userSpaceOnUse" color-interpolation-filters="sRGB">
<feFlood flood-opacity="0" result="BackgroundImageFix"/>
<feColorMatrix in="SourceAlpha" type="matrix" values="0 0 0 0 0 0 0 0 0 0 0 0 0 0 0 0 0 0 127 0"/>
<feOffset dy="4"/>
<feGaussianBlur stdDeviation="2"/>
<feColorMatrix type="matrix" values="0 0 0 0 0.126979 0 0 0 0 0.575 0 0 0 0 0.575 0 0 0 1 0"/>
<feBlend mode="normal" in2="BackgroundImageFix" result="effect1_dropShadow"/>
<feBlend mode="normal" in="SourceGraphic" in2="effect1_dropShadow" result="shape"/>
</filter>
<filter id="filter11_i" x="365.378" y="282.225" width="9.36106" height="13.6492" filterUnits="userSpaceOnUse" color-interpolation-filters="sRGB">
<feFlood flood-opacity="0" result="BackgroundImageFix"/>
<feBlend mode="normal" in="SourceGraphic" in2="BackgroundImageFix" result="shape"/>
<feColorMatrix in="SourceAlpha" type="matrix" values="0 0 0 0 0 0 0 0 0 0 0 0 0 0 0 0 0 0 127 0" result="hardAlpha"/>
<feOffset dy="4"/>
<feGaussianBlur stdDeviation="2"/>
<feComposite in2="hardAlpha" operator="arithmetic" k2="-1" k3="1"/>
<feColorMatrix type="matrix" values="0 0 0 0 0.145098 0 0 0 0 0.607843 0 0 0 0 0.607843 0 0 0 1 0"/>
<feBlend mode="normal" in2="shape" result="effect1_innerShadow"/>
</filter>
<linearGradient id="paint0_linear" x1="236.168" y1="237.393" x2="161.45" y2="331.897" gradientUnits="userSpaceOnUse">
<stop stop-color="#88FFF3"/>
<stop offset="1" stop-color="#68B69D"/>
</linearGradient>
<linearGradient id="paint1_linear" x1="200.162" y1="269.407" x2="127.435" y2="227.958" gradientUnits="userSpaceOnUse">
<stop offset="0.0873" stop-color="#88FFF3"/>
<stop offset="0.9709" stop-color="#3C53D7"/>
</linearGradient>
<linearGradient id="paint2_linear" x1="156.118" y1="218.622" x2="164.536" y2="231.565" gradientUnits="userSpaceOnUse">
<stop stop-color="#70C5A3"/>
<stop offset="0.4947" stop-color="#0A11AB"/>
<stop offset="1"/>
</linearGradient>
<linearGradient id="paint3_linear" x1="166.741" y1="211.846" x2="175.24" y2="224.914" gradientUnits="userSpaceOnUse">
<stop stop-color="#70C5A3"/>
<stop offset="0.4947" stop-color="#0A11AB"/>
<stop offset="1"/>
</linearGradient>
<linearGradient id="paint4_linear" x1="146.304" y1="226.645" x2="155.172" y2="240.281" gradientUnits="userSpaceOnUse">
<stop stop-color="#70C5A3"/>
<stop offset="0.4947" stop-color="#0A11AB"/>
<stop offset="1"/>
</linearGradient>
<linearGradient id="paint5_linear" x1="137.66" y1="236.469" x2="147.064" y2="250.927" gradientUnits="userSpaceOnUse">
<stop stop-color="#7DFBDC"/>
<stop offset="0.4947" stop-color="#0A11AB"/>
<stop offset="1"/>
</linearGradient>
<linearGradient id="paint6_linear" x1="178.273" y1="206.465" x2="187.242" y2="220.255" gradientUnits="userSpaceOnUse">
<stop stop-color="#7DFBDC"/>
<stop offset="0.4947" stop-color="#0A11AB"/>
<stop offset="1"/>
</linearGradient>
<linearGradient id="paint7_linear" x1="191.019" y1="202.956" x2="200.541" y2="217.596" gradientUnits="userSpaceOnUse">
<stop stop-color="#70C5A3"/>
<stop offset="0.4947" stop-color="#0A11AB"/>
<stop offset="1"/>
</linearGradient>
<linearGradient id="paint8_linear" x1="208.336" y1="201.849" x2="218.824" y2="217.976" gradientUnits="userSpaceOnUse">
<stop stop-color="#70C5A3"/>
<stop offset="0.4947" stop-color="#0A11AB"/>
<stop offset="1"/>
</linearGradient>
<linearGradient id="paint9_linear" x1="225.482" y1="205.095" x2="237.786" y2="224.013" gradientUnits="userSpaceOnUse">
<stop stop-color="#70C5A3"/>
<stop offset="0.4947" stop-color="#0A11AB"/>
<stop offset="1"/>
</linearGradient>
<linearGradient id="paint10_linear" x1="129.204" y1="251.197" x2="139.488" y2="267.009" gradientUnits="userSpaceOnUse">
<stop stop-color="#70C5A3"/>
<stop offset="0.4947" stop-color="#0A11AB"/>
<stop offset="1"/>
</linearGradient>
<linearGradient id="paint11_linear" x1="124.572" y1="267.187" x2="136.312" y2="285.236" gradientUnits="userSpaceOnUse">
<stop stop-color="#70C5A3"/>
<stop offset="0.4947" stop-color="#0A11AB"/>
<stop offset="1"/>
</linearGradient>
<linearGradient id="paint12_linear" x1="259.571" y1="280.64" x2="147.509" y2="284.31" gradientUnits="userSpaceOnUse">
<stop stop-color="#70C5A3"/>
<stop offset="0.4947" stop-color="#0A11AB"/>
<stop offset="1" stop-color="#000067"/>
</linearGradient>
<linearGradient id="paint13_linear" x1="253.57" y1="281.252" x2="153.618" y2="284.525" gradientUnits="userSpaceOnUse">
<stop stop-color="#70C5A3"/>
<stop offset="0.4947" stop-color="#0A11AB"/>
<stop offset="1" stop-color="#000067"/>
</linearGradient>
<linearGradient id="paint14_linear" x1="205.993" y1="95.6375" x2="172.795" y2="143.214" gradientUnits="userSpaceOnUse">
<stop stop-color="#7DFBDC"/>
<stop offset="1" stop-color="#68B69D"/>
</linearGradient>
<linearGradient id="paint15_linear" x1="196.259" y1="116.779" x2="225.584" y2="144.434" gradientUnits="userSpaceOnUse">
<stop offset="0.0873" stop-color="#7DFBDC"/>
<stop offset="0.9709" stop-color="#3C53D7"/>
</linearGradient>
<linearGradient id="paint16_linear" x1="225.784" y1="129.982" x2="218.645" y2="127.925" gradientUnits="userSpaceOnUse">
<stop stop-color="#70C5A3"/>
<stop offset="0.4947" stop-color="#0A11AB"/>
<stop offset="1"/>
</linearGradient>
<linearGradient id="paint17_linear" x1="227.421" y1="124.14" x2="220.214" y2="122.063" gradientUnits="userSpaceOnUse">
<stop stop-color="#70C5A3"/>
<stop offset="0.4947" stop-color="#0A11AB"/>
<stop offset="1"/>
</linearGradient>
<linearGradient id="paint18_linear" x1="223.46" y1="135.627" x2="215.938" y2="133.46" gradientUnits="userSpaceOnUse">
<stop stop-color="#70C5A3"/>
<stop offset="0.4947" stop-color="#0A11AB"/>
<stop offset="1"/>
</linearGradient>
<linearGradient id="paint19_linear" x1="220.144" y1="140.981" x2="212.168" y2="138.683" gradientUnits="userSpaceOnUse">
<stop stop-color="#70C5A3"/>
<stop offset="0.4947" stop-color="#0A11AB"/>
<stop offset="1"/>
</linearGradient>
<linearGradient id="paint20_linear" x1="228.29" y1="118.079" x2="220.685" y2="115.888" gradientUnits="userSpaceOnUse">
<stop stop-color="#70C5A3"/>
<stop offset="0.4947" stop-color="#0A11AB"/>
<stop offset="1"/>
</linearGradient>
<linearGradient id="paint21_linear" x1="228.117" y1="111.705" x2="220.043" y2="109.379" gradientUnits="userSpaceOnUse">
<stop stop-color="#70C5A3"/>
<stop offset="0.4947" stop-color="#0A11AB"/>
<stop offset="1"/>
</linearGradient>
<linearGradient id="paint22_linear" x1="226.215" y1="103.579" x2="217.322" y2="101.017" gradientUnits="userSpaceOnUse">
<stop stop-color="#70C5A3"/>
<stop offset="0.4947" stop-color="#0A11AB"/>
<stop offset="1"/>
</linearGradient>
<linearGradient id="paint23_linear" x1="222.311" y1="96.1277" x2="211.879" y2="93.122" gradientUnits="userSpaceOnUse">
<stop stop-color="#70C5A3"/>
<stop offset="0.4947" stop-color="#0A11AB"/>
<stop offset="1"/>
</linearGradient>
<linearGradient id="paint24_linear" x1="214.54" y1="146.935" x2="205.815" y2="144.421" gradientUnits="userSpaceOnUse">
<stop stop-color="#70C5A3"/>
<stop offset="0.4947" stop-color="#0A11AB"/>
<stop offset="1"/>
</linearGradient>
<linearGradient id="paint25_linear" x1="207.813" y1="151.306" x2="197.853" y2="148.436" gradientUnits="userSpaceOnUse">
<stop stop-color="#70C5A3"/>
<stop offset="0.4947" stop-color="#0A11AB"/>
<stop offset="1"/>
</linearGradient>
<linearGradient id="paint26_linear" x1="177.108" y1="66.2882" x2="207.091" y2="177.916" gradientUnits="userSpaceOnUse">
<stop offset="0.0873" stop-color="#42E8E0"/>
<stop offset="0.9709" stop-color="#3C53D7"/>
</linearGradient>
<linearGradient id="paint27_linear" x1="386.22" y1="298.537" x2="329.293" y2="271.271" gradientUnits="userSpaceOnUse">
<stop stop-color="#42E8E0"/>
<stop offset="1" stop-color="#7DFBDC"/>
</linearGradient>
<linearGradient id="paint28_linear" x1="361.572" y1="287.819" x2="336.984" y2="323.918" gradientUnits="userSpaceOnUse">
<stop offset="0.0873" stop-color="#42E8E0"/>
<stop offset="0.9709" stop-color="#3C53D7"/>
</linearGradient>
<linearGradient id="paint29_linear" x1="352.556" y1="321.756" x2="353.549" y2="313.747" gradientUnits="userSpaceOnUse">
<stop stop-color="#70C5A3"/>
<stop offset="0.4947" stop-color="#0A11AB"/>
<stop offset="1"/>
</linearGradient>
<linearGradient id="paint30_linear" x1="359.107" y1="322.499" x2="360.11" y2="314.412" gradientUnits="userSpaceOnUse">
<stop stop-color="#70C5A3"/>
<stop offset="0.4947" stop-color="#0A11AB"/>
<stop offset="1"/>
</linearGradient>
<linearGradient id="paint31_linear" x1="346.107" y1="320.243" x2="347.153" y2="311.805" gradientUnits="userSpaceOnUse">
<stop stop-color="#70C5A3"/>
<stop offset="0.4947" stop-color="#0A11AB"/>
<stop offset="1"/>
</linearGradient>
<linearGradient id="paint32_linear" x1="339.79" y1="317.618" x2="340.899" y2="308.672" gradientUnits="userSpaceOnUse">
<stop stop-color="#7DFBDC"/>
<stop offset="0.4947" stop-color="#315994"/>
<stop offset="1"/>
</linearGradient>
<linearGradient id="paint33_linear" x1="365.764" y1="322.385" x2="366.822" y2="313.85" gradientUnits="userSpaceOnUse">
<stop stop-color="#7DFBDC"/>
<stop offset="0.4947" stop-color="#0A11AB"/>
<stop offset="1"/>
</linearGradient>
<linearGradient id="paint34_linear" x1="372.555" y1="321.106" x2="373.679" y2="312.045" gradientUnits="userSpaceOnUse">
<stop stop-color="#7DFBDC"/>
<stop offset="0.4947" stop-color="#0A11AB"/>
<stop offset="1"/>
</linearGradient>
<linearGradient id="paint35_linear" x1="380.946" y1="317.648" x2="382.185" y2="307.664" gradientUnits="userSpaceOnUse">
<stop stop-color="#7DFBDC"/>
<stop offset="0.4947" stop-color="#0A11AB"/>
<stop offset="1"/>
</linearGradient>
<linearGradient id="paint36_linear" x1="388.259" y1="312.178" x2="389.712" y2="300.465" gradientUnits="userSpaceOnUse">
<stop stop-color="#7DFBDC"/>
<stop offset="0.4947" stop-color="#0A11AB"/>
<stop offset="1"/>
</linearGradient>
<linearGradient id="paint37_linear" x1="332.429" y1="312.625" x2="333.643" y2="302.842" gradientUnits="userSpaceOnUse">
<stop stop-color="#70C5A3"/>
<stop offset="0.4947" stop-color="#0A11AB"/>
<stop offset="1"/>
</linearGradient>
<linearGradient id="paint38_linear" x1="326.582" y1="306.183" x2="327.967" y2="295.016" gradientUnits="userSpaceOnUse">
<stop stop-color="#70C5A3"/>
<stop offset="0.4947" stop-color="#0A11AB"/>
<stop offset="1"/>
</linearGradient>
<linearGradient id="paint39_linear" x1="412.306" y1="258.668" x2="298.183" y2="310.144" gradientUnits="userSpaceOnUse">
<stop offset="0.0873" stop-color="#7DFBDC"/>
<stop offset="0.9709" stop-color="#3C53D7"/>
</linearGradient>
<linearGradient id="paint40_linear" x1="245.104" y1="356.519" x2="199.482" y2="232.634" gradientUnits="userSpaceOnUse">
<stop offset="0.348958" stop-color="#69BECF" stop-opacity="0.44"/>
<stop offset="0.979167" stop-color="#68B680" stop-opacity="0"/>
</linearGradient>
</defs>
</svg>
