<svg width="894" height="736" viewBox="0 0 894 736" fill="none" xmlns="http://www.w3.org/2000/svg">
<g opacity="0.82">
<path d="M285.738 656.996C278.338 656.996 271.276 655.515 266.034 652.469L8.01579 503.927C2.83075 500.937 0 496.801 0 492.245C0 486.795 4.09196 481.29 11.2389 477.181L503.341 193.876C516.71 186.163 537.058 185.352 548.661 192.032L806.68 340.573C811.865 343.564 814.695 347.7 814.695 352.255C814.695 357.705 810.604 363.211 803.457 367.319L311.354 650.624C304.039 654.816 294.65 656.996 285.738 656.996ZM266.595 651.519C277.89 658.03 297.733 657.192 310.794 649.674L802.896 366.369C809.679 362.456 813.574 357.314 813.574 352.283C813.574 348.147 810.912 344.346 806.119 341.579L548.1 193.038C536.806 186.526 516.962 187.364 503.901 194.882L11.7714 478.159C4.98884 482.072 1.09306 487.214 1.09306 492.245C1.09306 496.381 3.75566 500.182 8.54831 502.949L266.595 651.519Z" fill="#42E8E0"/>
<path d="M813.572 283.328L776.545 289.714L547.998 157.768C536.543 151.158 516.517 151.97 503.269 159.616L66.0331 412.054L0.549866 423.341V446.56H0.577901C0.549893 450.789 3.07063 454.851 8.28016 457.847L266.124 606.711C277.579 613.321 297.605 612.509 310.853 604.862L802.621 320.943C809.735 316.826 813.432 311.589 813.544 306.575H813.572V283.328Z" fill="#BE7BFE"/>
<path d="M266.129 583.324L8.28504 434.46C-3.17032 427.85 -1.74191 416.283 11.506 408.637L503.274 124.69C516.522 117.043 536.548 116.203 548.003 122.841L805.847 271.705C817.302 278.315 815.873 289.882 802.626 297.528L310.858 581.475C297.61 589.093 277.584 589.934 266.129 583.324Z" fill="#626C9C"/>
<path d="M802.625 297.528L310.857 581.475C297.609 589.122 277.583 589.962 266.127 583.324L8.28398 434.46C3.69064 431.799 1.1979 428.354 0.665749 424.685C-0.0344564 429.447 2.43027 434.096 8.28398 437.485L266.127 586.321C277.583 592.931 297.609 592.118 310.857 584.472L802.625 300.553C810.551 295.988 814.22 289.994 813.436 284.504C812.763 289.098 809.122 293.775 802.625 297.528Z" fill="white"/>
<path opacity="0.51" d="M266.638 577.554L17.9815 433.956C6.89023 427.542 8.29064 416.367 21.0904 408.973L503.728 130.403C516.527 123.009 535.909 122.197 547 128.611L795.657 272.209C806.748 278.623 805.348 289.798 792.548 297.192L309.911 575.762C297.111 583.156 277.729 583.968 266.638 577.554Z" fill="#453C9E"/>
<path opacity="0.5" d="M266.558 570.965L17.8424 427.248C6.74854 420.829 8.14928 409.644 20.9521 402.244L503.704 123.443C516.507 116.043 535.893 115.23 546.987 121.649L795.702 265.366C806.796 271.786 805.396 282.97 792.593 290.37L309.841 569.171C297.038 576.571 277.652 577.384 266.558 570.965Z" fill="url(#paint0_radial)"/>
<path opacity="0.4" d="M742.801 289.391C738.968 291.635 732.798 291.635 728.966 289.391C725.134 287.147 725.134 283.494 728.966 281.25C732.798 279.006 738.968 279.006 742.801 281.25C746.604 283.494 746.604 287.147 742.801 289.391Z" fill="#24126A"/>
<path opacity="0.4" d="M690.2 250.94L716.98 266.75C720.241 268.687 719.851 272.048 716.061 274.27C712.271 276.492 706.558 276.748 703.298 274.811L676.517 259.002C673.256 257.065 673.647 253.703 677.437 251.481C681.199 249.259 686.912 249.032 690.2 250.94Z" fill="#24126A"/>
<path opacity="0.4" d="M536.414 157.754L563.881 173.551C567.225 175.486 566.825 178.845 562.938 181.065C559.05 183.285 553.22 183.541 549.847 181.606L522.38 165.809C519.036 163.873 519.436 160.515 523.323 158.295C527.182 156.046 533.041 155.818 536.414 157.754Z" fill="#24126A"/>
<path d="M742.791 280.185C738.961 282.429 732.794 282.429 728.964 280.185C725.134 277.942 725.134 274.288 728.964 272.044C732.794 269.8 738.961 269.8 742.791 272.044C746.622 274.288 746.593 277.942 742.791 280.185Z" fill="#42E8E0"/>
<path d="M690.2 241.746L716.98 257.548C720.241 259.484 719.851 262.844 716.061 265.065C712.271 267.286 706.558 267.542 703.298 265.606L676.517 249.804C673.256 247.867 673.647 244.508 677.437 242.287C681.199 240.066 686.912 239.809 690.2 241.746Z" fill="#42E8E0"/>
<path d="M536.414 148.528L563.881 164.338C567.225 166.275 566.825 169.636 562.938 171.858C559.05 174.08 553.22 174.336 549.847 172.399L522.38 156.59C519.036 154.652 519.436 151.291 523.323 149.069C527.182 146.847 533.041 146.619 536.414 148.528Z" fill="#42E8E0"/>
<path d="M821.339 604.89C817.558 604.89 813.777 604.05 810.892 602.397L755.492 570.412C752.607 568.759 751.038 566.519 751.038 564.11C751.038 561.701 752.635 559.461 755.492 557.808L810.892 525.823C816.662 522.518 826.016 522.49 831.786 525.823L887.186 557.808C890.071 559.461 891.64 561.701 891.64 564.11C891.64 566.519 890.043 568.759 887.186 570.412L831.786 602.397C828.901 604.05 825.12 604.89 821.339 604.89ZM821.339 524.282C817.726 524.282 814.113 525.067 811.368 526.663L755.968 558.648C753.391 560.133 751.991 562.065 751.991 564.11C751.991 566.155 753.391 568.087 755.968 569.572L811.368 601.557C816.858 604.722 825.792 604.722 831.282 601.557L886.682 569.572C889.231 568.087 890.659 566.155 890.659 564.11C890.659 562.065 889.259 560.133 886.682 558.648L831.282 526.663C828.537 525.067 824.924 524.282 821.339 524.282Z" fill="#42E8E0"/>
<path opacity="0.4" d="M893.343 551.814V532.853L889.87 530.92C888.89 536.858 881.916 540.751 876.09 541.563L836.402 564.782L819.065 571.028L763.777 542.487L765.066 541.759C760.332 539.547 757.783 534.505 755.235 529.884L751.509 532.096L749.297 532.713V552.01C749.297 554.475 750.921 556.94 754.17 558.788L809.57 590.774C816.068 594.527 826.599 594.527 833.097 590.774L888.498 558.788C891.691 556.94 893.315 554.531 893.371 552.122C893.371 552.038 893.343 551.926 893.343 551.814Z" fill="#42E8E0"/>
<path d="M893.345 534.954V522.406L889.872 520.473C888.892 526.411 881.917 530.304 876.092 531.116L836.404 554.335L819.067 560.581L763.779 532.041L765.067 531.313C760.334 529.1 757.785 524.058 755.236 519.437L751.511 521.65L749.299 522.266V535.15C749.299 537.614 750.923 540.079 754.172 541.928L809.572 573.913C816.07 577.666 826.601 577.666 833.099 573.913L888.499 541.928C891.692 540.079 893.317 537.67 893.373 535.262C893.373 535.178 893.345 535.066 893.345 534.954Z" fill="url(#paint1_linear)"/>
<path opacity="0.3" d="M876.09 531.116L836.403 554.335L821.334 559.769V576.742C825.592 576.742 829.849 575.817 833.098 573.941L888.498 541.955C891.691 540.107 893.316 537.698 893.372 535.289C893.372 535.177 893.372 535.065 893.372 534.953V522.406L890.207 520.641H889.87C888.778 526.467 881.888 530.304 876.09 531.116Z" fill="#0F054C"/>
<path d="M809.571 561.197L754.171 529.212C747.673 525.459 747.673 519.381 754.171 515.628L809.571 483.642C816.069 479.889 826.6 479.889 833.098 483.642L888.498 515.628C894.996 519.381 894.996 525.459 888.498 529.212L833.098 561.197C826.6 564.922 816.041 564.922 809.571 561.197Z" fill="url(#paint2_linear)"/>
<path d="M888.499 529.212L833.099 561.197C826.601 564.95 816.07 564.95 809.572 561.197L754.172 529.212C751.259 527.531 749.663 525.403 749.355 523.19C748.962 525.907 750.587 528.68 754.172 530.752L809.572 562.738C816.07 566.491 826.601 566.491 833.099 562.738L888.499 530.752C892.085 528.68 893.681 525.879 893.317 523.19C892.981 525.375 891.384 527.531 888.499 529.212Z" fill="white"/>
<g opacity="0.3">
<path opacity="0.3" d="M646.706 693.732V681.184L643.233 679.251C642.252 685.189 635.278 689.082 629.453 689.895L589.765 713.113L572.428 719.359L517.14 690.819L518.428 690.091C513.695 687.878 511.146 682.836 508.597 678.215L504.872 680.428L502.66 681.044V693.928C502.66 696.392 504.284 698.857 507.533 700.706L562.933 732.691C569.431 736.444 579.962 736.444 586.46 732.691L641.86 700.706C645.053 698.857 646.678 696.448 646.734 694.04C646.706 693.956 646.678 693.844 646.706 693.732Z" fill="url(#paint3_linear)"/>
<path opacity="0.3" d="M629.451 689.894L589.764 713.113L574.695 718.547V735.52C578.952 735.52 583.21 734.595 586.459 732.719L641.859 700.733C645.052 698.885 646.676 696.476 646.732 694.068C646.732 693.955 646.732 693.843 646.732 693.731V681.184L643.567 679.419H643.231C642.111 685.245 635.221 689.082 629.451 689.894Z" fill="#0F054C"/>
<g opacity="0.3">
<path opacity="0.3" d="M562.903 719.975L507.503 687.99C501.005 684.237 501.005 678.159 507.503 674.406L562.903 642.421C569.401 638.667 579.932 638.667 586.43 642.421L641.83 674.406C648.328 678.159 648.328 684.237 641.83 687.99L586.43 719.975C579.932 723.7 569.373 723.7 562.903 719.975Z" fill="url(#paint4_linear)"/>
</g>
<g opacity="0.3">
<path opacity="0.3" d="M562.903 719.975L507.503 687.99C501.005 684.237 501.005 678.159 507.503 674.406L562.903 642.421C569.401 638.667 579.932 638.667 586.43 642.421L641.83 674.406C648.328 678.159 648.328 684.237 641.83 687.99L586.43 719.975C579.932 723.7 569.373 723.7 562.903 719.975Z" fill="#0F054C"/>
</g>
</g>
<path d="M574.67 673.426C570.889 673.426 567.108 672.585 564.223 670.933L508.823 638.947C505.938 637.295 504.369 635.054 504.369 632.646C504.369 630.237 505.966 627.996 508.823 626.344L564.223 594.358C569.992 591.025 579.347 591.025 585.117 594.358L640.517 626.344C643.402 627.996 644.97 630.237 644.97 632.646C644.97 635.054 643.374 637.295 640.517 638.947L585.117 670.933C582.232 672.613 578.451 673.426 574.67 673.426ZM564.699 670.093C570.189 673.257 579.123 673.257 584.613 670.093L640.013 638.107C642.59 636.623 643.99 634.69 643.99 632.646C643.99 630.601 642.59 628.668 640.013 627.184L584.613 595.199C579.123 592.034 570.189 592.034 564.699 595.199L509.299 627.184C506.722 628.668 505.322 630.601 505.322 632.646C505.322 634.69 506.722 636.623 509.299 638.107L564.699 670.093Z" fill="#42E8E0"/>
<path opacity="0.4" d="M646.709 620.378V601.417L643.236 599.484C642.256 605.422 635.282 609.315 629.456 610.127L589.768 633.346L572.431 639.592L517.143 611.051L518.431 610.323C513.698 608.111 511.149 603.069 508.6 598.448L504.875 600.66L502.663 601.277V620.574C502.663 623.039 504.287 625.504 507.536 627.352L562.936 659.338C569.434 663.091 579.965 663.091 586.463 659.338L641.863 627.352C645.056 625.504 646.681 623.095 646.737 620.686C646.709 620.574 646.681 620.462 646.709 620.378Z" fill="#42E8E0"/>
<path d="M646.712 603.489V590.941L643.239 589.009C642.259 594.946 635.285 598.84 629.459 599.652L589.771 622.871L572.434 629.116L517.146 600.576L518.434 599.848C513.701 597.635 511.152 592.594 508.604 587.972L504.878 590.185L502.666 590.801V603.685C502.666 606.15 504.29 608.614 507.539 610.463L562.94 642.448C569.437 646.201 579.968 646.201 586.466 642.448L641.867 610.463C645.06 608.614 646.684 606.206 646.74 603.797C646.712 603.713 646.684 603.601 646.712 603.489Z" fill="url(#paint5_linear)"/>
<path opacity="0.3" d="M629.458 599.652L589.77 622.871L574.701 628.304V645.277C578.959 645.277 583.216 644.353 586.465 642.476L641.865 610.491C645.058 608.643 646.682 606.234 646.739 603.825C646.739 603.713 646.739 603.601 646.739 603.489V590.941L643.574 589.177H643.237C642.117 595.002 635.227 598.868 629.458 599.652Z" fill="#0F054C"/>
<path d="M562.91 629.733L507.509 597.747C501.012 593.994 501.012 587.916 507.509 584.163L562.91 552.178C569.408 548.425 579.939 548.425 586.437 552.178L641.837 584.163C648.335 587.916 648.335 593.994 641.837 597.747L586.437 629.733C579.939 633.486 569.38 633.486 562.91 629.733Z" fill="url(#paint6_linear)"/>
<path d="M574.675 623.907C571.258 623.907 567.841 623.151 565.237 621.666L521.964 596.683C519.359 595.17 517.931 593.154 517.931 590.941C517.931 588.757 519.359 586.712 521.964 585.228L565.237 560.244C570.446 557.247 578.905 557.247 584.114 560.244L627.387 585.228C629.992 586.74 631.42 588.757 631.42 590.969C631.42 593.154 629.992 595.198 627.387 596.683L584.114 621.666C581.509 623.179 578.092 623.907 574.675 623.907ZM565.713 620.826C570.642 623.683 578.68 623.683 583.61 620.826L626.883 595.843C629.179 594.526 630.44 592.79 630.44 590.969C630.44 589.149 629.179 587.412 626.883 586.068L583.61 561.084C578.68 558.228 570.642 558.228 565.713 561.084L522.44 586.068C520.143 587.384 518.883 589.121 518.883 590.941C518.883 592.762 520.143 594.498 522.44 595.815L565.713 620.826Z" fill="#5351AF"/>
<path d="M641.838 597.747L586.438 629.733C579.94 633.486 569.409 633.486 562.911 629.733L507.511 597.747C504.598 596.067 503.001 593.938 502.693 591.726C502.301 594.442 503.926 597.215 507.511 599.288L562.911 631.273C569.409 635.026 579.94 635.026 586.438 631.273L641.838 599.288C645.423 597.215 647.019 594.414 646.655 591.726C646.319 593.938 644.723 596.067 641.838 597.747Z" fill="white"/>
<path d="M100.858 236.358C97.0765 236.358 93.2954 235.518 90.4106 233.865L35.0104 201.88C32.1255 200.227 30.557 197.987 30.557 195.578C30.557 193.169 32.1535 190.929 35.0104 189.276L90.4106 157.291C96.1803 153.958 105.535 153.958 111.305 157.291L166.705 189.276C169.59 190.929 171.158 193.169 171.158 195.578C171.158 197.987 169.562 200.227 166.705 201.88L111.305 233.865C108.42 235.518 104.639 236.358 100.858 236.358ZM100.858 155.722C97.2445 155.722 93.6595 156.507 90.8867 158.103L35.4865 190.088C32.9097 191.573 31.5094 193.505 31.5094 195.55C31.5094 197.595 32.9097 199.527 35.4865 201.012L90.8867 232.997C96.3763 236.162 105.311 236.162 110.801 232.997L166.201 201.012C168.778 199.527 170.178 197.595 170.178 195.55C170.178 193.505 168.778 191.573 166.201 190.088L110.801 158.103C108.084 156.535 104.471 155.722 100.858 155.722Z" fill="#42E8E0"/>
<path opacity="0.4" d="M172.895 183.282V164.321L169.422 162.388C168.442 168.326 161.468 172.219 155.642 173.031L115.954 196.25L98.6174 202.496L43.3292 173.956L44.6176 173.228C39.8842 171.015 37.3354 165.973 34.7867 161.352L31.0616 163.565L28.8489 164.181V183.479C28.8489 185.943 30.4734 188.408 33.7223 190.257L89.1226 222.242C95.6205 225.995 106.152 225.995 112.65 222.242L168.05 190.257C171.243 188.408 172.867 185.999 172.923 183.591C172.895 183.507 172.895 183.395 172.895 183.282Z" fill="#42E8E0"/>
<path d="M172.892 166.421V153.874L169.419 151.941C168.438 157.879 161.464 161.772 155.639 162.584L115.923 185.803L98.5859 192.049L43.2977 163.508L44.5861 162.78C39.8527 160.568 37.3039 155.526 34.7552 150.905L31.0301 153.117L28.8174 153.734V166.617C28.8174 169.082 30.442 171.547 33.6909 173.395L89.0911 205.409C95.5891 209.162 106.12 209.162 112.618 205.409L168.018 173.423C171.211 171.575 172.836 169.166 172.892 166.757C172.892 166.645 172.892 166.533 172.892 166.421Z" fill="url(#paint7_linear)"/>
<path opacity="0.3" d="M155.637 162.584L115.922 185.803L100.853 191.237V208.21C105.11 208.21 109.368 207.286 112.617 205.409L168.017 173.424C171.21 171.575 172.834 169.166 172.89 166.758C172.89 166.646 172.89 166.534 172.89 166.422V153.874L169.725 152.109H169.389C168.297 157.935 161.407 161.772 155.637 162.584Z" fill="#0F054C"/>
<path d="M44.5907 162.78L97.078 132.475C99.1506 131.271 102.54 131.271 104.612 132.475L156.203 162.248L155.643 162.584C161.469 161.772 168.443 157.879 169.423 151.941L111.53 119.732L94.6974 115.278L80.9733 123.345L34.7598 150.905C37.3085 155.526 39.8573 160.568 44.5907 162.78Z" fill="url(#paint8_linear)"/>
<path opacity="0.3" d="M100.856 116.931L94.6658 115.306L80.9418 123.373L34.7283 150.933C37.277 155.526 39.8257 160.595 44.5591 162.808L97.0465 132.503C98.0828 131.915 99.4552 131.607 100.828 131.607V116.931H100.856Z" fill="#0F054C"/>
<path d="M89.0906 192.637L33.6904 160.652C27.1925 156.899 27.1925 150.821 33.6904 147.068L89.0906 115.082C95.5885 111.329 106.12 111.329 112.617 115.082L168.018 147.068C174.516 150.821 174.516 156.899 168.018 160.652L112.617 192.637C106.148 196.39 95.5885 196.39 89.0906 192.637ZM104.635 119.704C102.563 118.499 99.1735 118.499 97.1009 119.704L41.7007 151.689C39.6281 152.893 39.6281 154.826 41.7007 156.03L97.1009 188.016C99.1735 189.22 102.563 189.22 104.635 188.016L160.035 156.03C162.108 154.826 162.108 152.893 160.035 151.689L104.635 119.704Z" fill="url(#paint9_linear)"/>
<path d="M160.041 151.689L104.64 119.704C102.568 118.499 99.1788 118.499 97.1062 119.704L41.706 151.689C40.3336 152.501 39.8575 153.621 40.3336 154.658C40.5577 154.154 41.0338 153.677 41.706 153.257L97.1062 121.272C99.1788 120.068 102.568 120.068 104.64 121.272L160.041 153.257C160.741 153.649 161.189 154.126 161.413 154.658C161.861 153.621 161.413 152.501 160.041 151.689Z" fill="white"/>
<path d="M168.02 160.652L112.62 192.637C106.122 196.39 95.5908 196.39 89.0929 192.637L33.6926 160.652C30.7798 158.971 29.1833 156.843 28.8752 154.63C28.4831 157.347 30.1076 160.119 33.6926 162.192L89.0929 194.205C95.5908 197.959 106.122 197.959 112.62 194.205L168.02 162.22C171.605 160.147 173.201 157.347 172.837 154.658C172.529 156.843 170.933 158.999 168.02 160.652Z" fill="white"/>
<path d="M90.6638 191.741L35.2636 159.756C29.634 156.507 29.634 151.213 35.2636 147.964L90.6638 115.979C96.2935 112.73 105.452 112.73 111.054 115.979L166.454 147.964C172.084 151.213 172.084 156.507 166.454 159.728L111.054 191.713C105.424 194.99 96.2935 194.99 90.6638 191.741ZM106.18 118.808C103.239 117.099 98.4501 117.099 95.5092 118.808L40.109 150.793C37.1681 152.501 37.1681 155.246 40.109 156.955L95.5092 188.94C98.4501 190.649 103.239 190.649 106.18 188.94L161.581 156.955C164.521 155.246 164.521 152.501 161.581 150.793L106.18 118.808Z" fill="url(#paint10_linear)"/>
<path opacity="0.4" d="M104.643 119.704C102.57 118.499 99.181 118.499 97.1084 119.704L41.7081 151.689C39.6355 152.893 39.6355 154.826 41.7081 156.03L97.1084 188.016C99.181 189.22 102.57 189.22 104.643 188.016L160.043 156.03C162.115 154.826 162.115 152.893 160.043 151.689L104.643 119.704Z" fill="#42E8E0"/>
<path opacity="0.5" d="M162 160.49V0H40.0016V160.49C39.9735 161.15 40.508 161.787 41.5491 162.288L97.2022 188.266C99.2842 189.245 102.689 189.245 104.771 188.266L160.424 162.288C161.493 161.81 162.028 161.15 162 160.49Z" fill="url(#paint11_linear)"/>
<path opacity="0.5" d="M639.999 593.206V448H518.002V593.206C517.973 593.803 518.508 594.379 519.549 594.832L575.202 618.336C577.284 619.221 580.689 619.221 582.771 618.336L638.424 594.832C639.493 594.399 640.028 593.803 639.999 593.206Z" fill="url(#paint12_linear)"/>
<path opacity="0.5" d="M884.999 522.546V368H763.002V522.546C762.973 523.182 763.508 523.795 764.549 524.277L820.202 549.294C822.284 550.235 825.689 550.235 827.771 549.294L883.424 524.277C884.493 523.817 885.028 523.182 884.999 522.546Z" fill="url(#paint13_linear)"/>
<path d="M540.829 311.326C540.829 280.07 518.935 242.059 491.924 226.417C478.391 218.596 466.144 217.867 457.308 223.025L448.052 228.435L450.737 228.687C445.871 234.658 443.019 243.488 443.019 254.729C443.019 285.985 464.913 323.997 491.924 339.639C501.207 345.021 509.875 347.039 517.257 346.114L517.062 348.609L526.457 343.115C526.485 343.087 526.541 343.058 526.568 343.058L526.96 342.834H526.932C535.544 337.564 540.829 326.716 540.829 311.326Z" fill="#9FFFF8"/>
<path d="M517.568 348.369C536.697 337.325 536.699 301.516 517.572 268.388C498.446 235.261 467.433 217.359 448.304 228.404C429.175 239.448 429.173 275.257 448.3 308.384C467.427 341.512 498.439 359.414 517.568 348.369Z" fill="#42E8E0"/>
<path d="M426.866 176.196C444.987 150.765 449.189 107.1 436.221 78.6994C429.723 64.4713 420.172 56.741 409.949 55.7887L399.278 54.8364L401.323 56.601C393.872 58.6456 386.45 64.1632 379.924 73.2938C361.803 98.7253 357.602 142.39 370.542 170.79C374.995 180.565 380.905 187.259 387.459 190.788L385.862 192.693L396.701 193.673C396.757 193.673 396.785 193.673 396.841 193.673L397.289 193.701L397.262 193.673C407.316 194.457 417.96 188.688 426.866 176.196Z" fill="#9FFFF8"/>
<path d="M432.386 127.593C436.043 89.5149 421.183 56.9351 399.195 54.8234C377.208 52.7117 356.419 81.8678 352.762 119.945C349.105 158.023 363.965 190.603 385.952 192.715C407.94 194.826 428.728 165.67 432.386 127.593Z" fill="#42E8E0"/>
<path opacity="0.4" d="M388.361 432.61C354.668 432.61 320.947 425.177 295.3 410.311C270.352 395.838 256.606 376.597 256.606 356.094C256.606 335.59 270.352 316.349 295.3 301.876C346.622 272.117 430.1 272.145 481.422 301.876C506.371 316.349 520.116 335.59 520.116 356.094C520.116 376.597 506.371 395.866 481.422 410.311L481.171 409.891L481.422 410.311C455.775 425.177 422.082 432.61 388.361 432.61ZM388.361 280.531C354.836 280.531 321.31 287.936 295.775 302.717C271.134 316.994 257.584 335.955 257.584 356.094C257.584 376.233 271.162 395.193 295.803 409.47C346.845 439.061 429.905 439.061 480.947 409.47C505.589 395.193 519.138 376.233 519.138 356.094C519.138 335.955 505.561 316.994 480.919 302.717C455.412 287.908 421.887 280.531 388.361 280.531Z" fill="#42E8E0"/>
<path opacity="0.2" d="M388.361 453.322C345.518 453.322 302.675 443.934 270.074 425.129C238.396 406.855 220.934 382.545 220.934 356.671C220.934 330.796 238.396 306.459 270.074 288.212C335.304 250.602 441.418 250.602 506.649 288.212C538.326 306.487 555.788 330.796 555.788 356.671C555.788 382.545 538.326 406.883 506.649 425.129C474.047 443.906 431.204 453.322 388.361 453.322ZM388.361 260.913C345.686 260.913 303.039 270.274 270.55 288.995C239.18 307.073 221.886 331.104 221.886 356.615C221.886 382.154 239.152 406.156 270.55 424.235C335.5 461.677 441.195 461.677 506.145 424.235C537.515 406.156 554.809 382.126 554.809 356.615C554.809 331.076 537.543 307.073 506.145 288.995C473.684 270.274 431.036 260.913 388.361 260.913Z" fill="#42E8E0"/>
<path d="M388.361 416.5C361.717 416.5 335.101 410.636 314.817 398.907C295.093 387.487 284.223 372.279 284.223 356.089C284.223 339.898 295.093 324.69 314.817 313.27C355.385 289.812 421.365 289.812 461.905 313.27C481.629 324.69 492.499 339.898 492.499 356.089C492.499 372.279 481.629 387.487 461.905 398.907L461.653 398.486L461.905 398.907C441.649 410.636 415.005 416.5 388.361 416.5ZM388.361 296.687C361.913 296.687 335.437 302.523 315.293 314.168C295.878 325.392 285.175 340.291 285.175 356.145C285.175 371.998 295.878 386.87 315.293 398.121C355.582 421.411 421.141 421.411 461.429 398.121C480.845 386.898 491.547 371.998 491.547 356.173C491.547 340.347 480.845 325.448 461.429 314.196C441.285 302.495 414.837 296.687 388.361 296.687Z" fill="#42E8E0"/>
<path d="M443.019 381.518C443.019 350.263 421.126 312.251 394.115 296.609C380.581 288.788 368.334 288.059 359.498 293.217L350.243 298.627L352.927 298.88C348.062 304.851 345.21 313.681 345.21 324.922C345.21 356.177 367.104 394.189 394.115 409.831C403.398 415.213 412.066 417.231 419.448 416.306L419.252 418.801L428.647 413.307C428.675 413.279 428.731 413.251 428.759 413.251L429.15 413.027H429.123C437.735 407.757 443.019 396.88 443.019 381.518Z" fill="#9FFFF8"/>
<path d="M419.608 419.006C438.737 407.962 438.739 372.153 419.612 339.026C400.485 305.898 369.472 287.996 350.343 299.041C331.214 310.085 331.212 345.894 350.339 379.021C369.466 412.149 400.479 430.051 419.608 419.006Z" fill="#42E8E0"/>
<path opacity="0.4" d="M256.636 516.916L102.815 428.102C98.2772 425.469 98.2772 418.943 102.815 416.31L126.285 402.642C134.128 398.105 143.819 398.105 151.661 402.642L305.482 491.456C310.019 494.089 310.019 500.615 305.482 503.248L282.011 516.916C274.141 521.453 264.478 521.453 256.636 516.916Z" fill="#24126A"/>
<path d="M179.642 426.141L155.023 411.913L159.896 409.084L184.515 423.313L179.642 426.141Z" fill="#42E8E0"/>
<path d="M249.049 467.201L241.487 462.832L246.36 460.003L253.923 464.372L249.049 467.201Z" fill="#42E8E0"/>
<path d="M193.897 434.6L186.334 430.231L191.236 427.402L198.798 431.771L193.897 434.6Z" fill="#42E8E0"/>
<path d="M269.321 499.215C264.84 499.215 260.359 498.066 256.353 495.742L102.532 406.928C100.236 405.583 98.8632 403.203 98.8632 400.542C98.8632 397.881 100.236 395.5 102.532 394.156L126.003 380.488C134.014 375.867 143.928 375.867 151.939 380.488L305.76 469.302C308.056 470.618 309.429 473.027 309.429 475.688C309.429 478.349 308.056 480.729 305.76 482.074L282.289 495.742C278.284 498.066 273.802 499.215 269.321 499.215ZM138.971 378.163C134.686 378.163 130.4 379.256 126.563 381.468L103.092 395.136C101.132 396.257 99.9555 398.301 99.9555 400.542C99.9555 402.811 101.132 404.827 103.092 405.947L256.913 494.761C264.56 499.187 274.083 499.187 281.729 494.761L305.2 481.093C307.16 479.973 308.337 477.929 308.337 475.688C308.337 473.419 307.16 471.403 305.2 470.282L151.379 381.468C147.569 379.284 143.284 378.163 138.971 378.163Z" fill="#42E8E0"/>
<g filter="url(#filter0_d)">
<path d="M493.33 296.366L485.205 277.794L492.17 281.857L497.393 292.884L502.616 286.5L509 288.241L500.875 298.687L508.42 320.741L502.036 317.839L496.812 301.009L489.268 311.455L484.625 309.134L493.33 296.366Z" fill="white"/>
<path d="M493.33 296.366L485.205 277.794L492.17 281.857L497.393 292.884L502.616 286.5L509 288.241L500.875 298.687L508.42 320.741L502.036 317.839L496.812 301.009L489.268 311.455L484.625 309.134L493.33 296.366Z" stroke="#3BC3C3"/>
</g>
<g filter="url(#filter1_d)">
<path d="M446 262.529V256L464 266.882V273.14L457.5 269.331V293L451.75 290.279V266.338L446 262.529Z" fill="white"/>
<path d="M446 262.529V256L464 266.882V273.14L457.5 269.331V293L451.75 290.279V266.338L446 262.529Z" stroke="#3BC3C3"/>
</g>
<g filter="url(#filter2_d)">
<path d="M466 297.715L466.567 267C466.567 267 479.5 273.061 480.946 275.294C482.392 277.527 483.357 278.644 482.875 282.552C482.392 286.46 478.535 287.018 478.535 287.018L482.433 306L476.767 302.704L475.067 288.423L471.303 286.549L470.821 300.417L466 297.715Z" fill="white"/>
<path d="M466 297.715L466.567 267C466.567 267 479.5 273.061 480.946 275.294C482.392 277.527 483.357 278.644 482.875 282.552C482.392 286.46 478.535 287.018 478.535 287.018L482.433 306L476.767 302.704L475.067 288.423L471.303 286.549L470.821 300.417L466 297.715Z" stroke="#3BC3C3"/>
</g>
<g filter="url(#filter3_i)">
<path d="M470 274V280.882C470 280.882 473.642 283 474.846 283C476.462 283 477 281.412 477 279.824C477 278.316 476.462 277.706 475.923 277.176C475.072 276.339 470 274 470 274Z" fill="#3BC3C3"/>
</g>
<path d="M470 274V280.882C470 280.882 473.642 283 474.846 283C476.462 283 477 281.412 477 279.824C477 278.316 476.462 277.706 475.923 277.176C475.072 276.339 470 274 470 274Z" stroke="#3BC3C3"/>
<g filter="url(#filter4_d)">
<path d="M401.654 363.734L389.865 347.244L397.518 349.778L404.909 359.487L408.699 352.161L415.305 352.544L409.516 364.445L421.458 384.462L414.612 382.943L406.021 367.556L400.8 379.337L395.777 378.026L401.654 363.734Z" fill="white"/>
<path d="M401.654 363.734L389.865 347.244L397.518 349.778L404.909 359.487L408.699 352.161L415.305 352.544L409.516 364.445L421.458 384.462L414.612 382.943L406.021 367.556L400.8 379.337L395.777 378.026L401.654 363.734Z" stroke="#3BC3C3"/>
</g>
<g filter="url(#filter5_d)">
<path d="M348.35 340.415L347 334.027L366.861 340.952L368.155 347.074L361.008 344.692L365.902 367.849L359.714 366.376L354.763 342.953L348.35 340.415Z" fill="white"/>
<path d="M348.35 340.415L347 334.027L366.861 340.952L368.155 347.074L361.008 344.692L365.902 367.849L359.714 366.376L354.763 342.953L348.35 340.415Z" stroke="#3BC3C3"/>
</g>
<g filter="url(#filter6_d)">
<path d="M375.193 370.705L369.397 340.537C369.397 340.537 383.303 343.792 385.18 345.678C387.057 347.564 388.232 348.457 388.568 352.38C388.904 356.303 385.246 357.647 385.246 357.647L392.985 375.413L386.759 373.36L382.143 359.739L378.073 358.684L380.469 372.352L375.193 370.705Z" fill="white"/>
<path d="M375.193 370.705L369.397 340.537C369.397 340.537 383.303 343.792 385.18 345.678C387.057 347.564 388.232 348.457 388.568 352.38C388.904 356.303 385.246 357.647 385.246 357.647L392.985 375.413L386.759 373.36L382.143 359.739L378.073 358.684L380.469 372.352L375.193 370.705Z" stroke="#3BC3C3"/>
</g>
<g filter="url(#filter7_i)">
<path d="M374.203 346.675L375.626 353.409C375.626 353.409 379.628 354.728 380.806 354.479C382.386 354.145 382.585 352.479 382.256 350.926C381.944 349.45 381.291 348.965 380.655 348.558C379.649 347.915 374.203 346.675 374.203 346.675Z" fill="#3BC3C3"/>
</g>
<path d="M374.203 346.675L375.626 353.409C375.626 353.409 379.628 354.728 380.806 354.479C382.386 354.145 382.585 352.479 382.256 350.926C381.944 349.45 381.291 348.965 380.655 348.558C379.649 347.915 374.203 346.675 374.203 346.675Z" stroke="#3BC3C3"/>
<g filter="url(#filter8_d)">
<path d="M396.253 133.12L404.139 114.445L405.983 122.294L401.575 133.671L409.802 133.069L412.931 138.899L399.76 140.191L388.949 160.841L386.662 154.212L395.28 138.841L382.509 140.554L380.999 135.588L396.253 133.12Z" fill="white"/>
<path d="M396.253 133.12L404.139 114.445L405.983 122.294L401.575 133.671L409.802 133.069L412.931 138.899L399.76 140.191L388.949 160.841L386.662 154.212L395.28 138.841L382.509 140.554L380.999 135.588L396.253 133.12Z" stroke="#3BC3C3"/>
</g>
<g filter="url(#filter9_d)">
<path d="M388.239 75.4928L392.977 71L397.466 91.5493L392.925 95.8549L391.216 88.5175L374.041 104.804L372.059 98.7596L389.431 82.286L388.239 75.4928Z" fill="white"/>
<path d="M388.239 75.4928L392.977 71L397.466 91.5493L392.925 95.8549L391.216 88.5175L374.041 104.804L372.059 98.7596L389.431 82.286L388.239 75.4928Z" stroke="#3BC3C3"/>
</g>
<g filter="url(#filter10_d)">
<path d="M376.469 114.216L399.146 93.4927C399.146 93.4927 403.648 107.048 403.022 109.634C402.397 112.22 402.25 113.688 399.083 116.027C395.915 118.366 392.856 115.952 392.856 115.952L381.765 131.841L380.257 125.462L389.45 114.401L388.22 110.381L377.826 119.574L376.469 114.216Z" fill="white"/>
<path d="M376.469 114.216L399.146 93.4927C399.146 93.4927 403.648 107.048 403.022 109.634C402.397 112.22 402.25 113.688 399.083 116.027C395.915 118.366 392.856 115.952 392.856 115.952L381.765 131.841L380.257 125.462L389.45 114.401L388.22 110.381L377.826 119.574L376.469 114.216Z" stroke="#3BC3C3"/>
</g>
<g filter="url(#filter11_i)">
<path d="M396.429 100.801L391.435 105.536C391.435 105.536 392.405 109.636 393.233 110.51C394.345 111.682 395.868 110.98 397.02 109.887C398.115 108.85 398.186 108.039 398.2 107.284C398.222 106.091 396.429 100.801 396.429 100.801Z" fill="#3BC3C3"/>
</g>
<path d="M396.429 100.801L391.435 105.536C391.435 105.536 392.405 109.636 393.233 110.51C394.345 111.682 395.868 110.98 397.02 109.887C398.115 108.85 398.186 108.039 398.2 107.284C398.222 106.091 396.429 100.801 396.429 100.801Z" stroke="#3BC3C3"/>
<path d="M419.901 418.964C439.03 407.919 439.032 372.11 419.905 338.983C400.778 305.855 369.765 287.953 350.636 298.998C331.507 310.042 331.505 345.851 350.632 378.978C369.759 412.106 400.771 430.008 419.901 418.964Z" fill="url(#paint14_linear)"/>
<path d="M544.901 467.964C564.03 456.919 564.032 421.11 544.905 387.983C525.778 354.855 494.765 336.953 475.636 347.998C456.507 359.042 456.505 394.851 475.632 427.978C494.759 461.106 525.771 479.008 544.901 467.964Z" fill="url(#paint15_linear)"/>
<path d="M517.901 347.964C537.03 336.919 537.032 301.11 517.905 267.983C498.778 234.855 467.765 216.953 448.636 227.998C429.507 239.042 429.505 274.851 448.632 307.978C467.759 341.106 498.771 359.008 517.901 347.964Z" fill="url(#paint16_linear)"/>
<path d="M429.469 177.396C451.267 178.33 470.249 148.485 471.867 110.735C473.485 72.9851 457.125 41.6255 435.327 40.6914C413.529 39.7573 394.547 69.6023 392.929 107.352C391.311 145.102 407.671 176.462 429.469 177.396Z" fill="url(#paint17_linear)"/>
</g>
<defs>
<filter id="filter0_d" x="479.889" y="276.59" width="33.9657" height="53.0859" filterUnits="userSpaceOnUse" color-interpolation-filters="sRGB">
<feFlood flood-opacity="0" result="BackgroundImageFix"/>
<feColorMatrix in="SourceAlpha" type="matrix" values="0 0 0 0 0 0 0 0 0 0 0 0 0 0 0 0 0 0 127 0"/>
<feOffset dy="4"/>
<feGaussianBlur stdDeviation="2"/>
<feColorMatrix type="matrix" values="0 0 0 0 0.126979 0 0 0 0 0.575 0 0 0 0 0.575 0 0 0 1 0"/>
<feBlend mode="normal" in2="BackgroundImageFix" result="effect1_dropShadow"/>
<feBlend mode="normal" in="SourceGraphic" in2="effect1_dropShadow" result="shape"/>
</filter>
<filter id="filter1_d" x="441.5" y="255.113" width="27" height="46.6763" filterUnits="userSpaceOnUse" color-interpolation-filters="sRGB">
<feFlood flood-opacity="0" result="BackgroundImageFix"/>
<feColorMatrix in="SourceAlpha" type="matrix" values="0 0 0 0 0 0 0 0 0 0 0 0 0 0 0 0 0 0 127 0"/>
<feOffset dy="4"/>
<feGaussianBlur stdDeviation="2"/>
<feColorMatrix type="matrix" values="0 0 0 0 0.14902 0 0 0 0 0.615686 0 0 0 0 0.615686 0 0 0 1 0"/>
<feBlend mode="normal" in2="BackgroundImageFix" result="effect1_dropShadow"/>
<feBlend mode="normal" in="SourceGraphic" in2="effect1_dropShadow" result="shape"/>
</filter>
<filter id="filter2_d" x="461.495" y="266.22" width="26.0054" height="48.7738" filterUnits="userSpaceOnUse" color-interpolation-filters="sRGB">
<feFlood flood-opacity="0" result="BackgroundImageFix"/>
<feColorMatrix in="SourceAlpha" type="matrix" values="0 0 0 0 0 0 0 0 0 0 0 0 0 0 0 0 0 0 127 0"/>
<feOffset dy="4"/>
<feGaussianBlur stdDeviation="2"/>
<feColorMatrix type="matrix" values="0 0 0 0 0.126979 0 0 0 0 0.575 0 0 0 0 0.575 0 0 0 1 0"/>
<feBlend mode="normal" in2="BackgroundImageFix" result="effect1_dropShadow"/>
<feBlend mode="normal" in="SourceGraphic" in2="effect1_dropShadow" result="shape"/>
</filter>
<filter id="filter3_i" x="469.5" y="273.219" width="8" height="14.2813" filterUnits="userSpaceOnUse" color-interpolation-filters="sRGB">
<feFlood flood-opacity="0" result="BackgroundImageFix"/>
<feBlend mode="normal" in="SourceGraphic" in2="BackgroundImageFix" result="shape"/>
<feColorMatrix in="SourceAlpha" type="matrix" values="0 0 0 0 0 0 0 0 0 0 0 0 0 0 0 0 0 0 127 0" result="hardAlpha"/>
<feOffset dy="4"/>
<feGaussianBlur stdDeviation="2"/>
<feComposite in2="hardAlpha" operator="arithmetic" k2="-1" k3="1"/>
<feColorMatrix type="matrix" values="0 0 0 0 0.145098 0 0 0 0 0.607843 0 0 0 0 0.607843 0 0 0 1 0"/>
<feBlend mode="normal" in2="shape" result="effect1_innerShadow"/>
</filter>
<filter id="filter4_d" x="384.328" y="340.968" width="42.7273" height="57.4806" filterUnits="userSpaceOnUse" color-interpolation-filters="sRGB">
<feFlood flood-opacity="0" result="BackgroundImageFix"/>
<feColorMatrix in="SourceAlpha" type="matrix" values="0 0 0 0 0 0 0 0 0 0 0 0 0 0 0 0 0 0 127 0"/>
<feOffset dy="4"/>
<feGaussianBlur stdDeviation="2"/>
<feColorMatrix type="matrix" values="0 0 0 0 0.126979 0 0 0 0 0.575 0 0 0 0 0.575 0 0 0 1 0"/>
<feBlend mode="normal" in2="BackgroundImageFix" result="effect1_dropShadow"/>
<feBlend mode="normal" in="SourceGraphic" in2="effect1_dropShadow" result="shape"/>
</filter>
<filter id="filter5_d" x="342.327" y="329.334" width="34.5868" height="49.7692" filterUnits="userSpaceOnUse" color-interpolation-filters="sRGB">
<feFlood flood-opacity="0" result="BackgroundImageFix"/>
<feColorMatrix in="SourceAlpha" type="matrix" values="0 0 0 0 0 0 0 0 0 0 0 0 0 0 0 0 0 0 127 0"/>
<feOffset dy="4"/>
<feGaussianBlur stdDeviation="2"/>
<feColorMatrix type="matrix" values="0 0 0 0 0.14902 0 0 0 0 0.615686 0 0 0 0 0.615686 0 0 0 1 0"/>
<feBlend mode="normal" in2="BackgroundImageFix" result="effect1_dropShadow"/>
<feBlend mode="normal" in="SourceGraphic" in2="effect1_dropShadow" result="shape"/>
</filter>
<filter id="filter6_d" x="364.187" y="336.272" width="34.0474" height="51.6157" filterUnits="userSpaceOnUse" color-interpolation-filters="sRGB">
<feFlood flood-opacity="0" result="BackgroundImageFix"/>
<feColorMatrix in="SourceAlpha" type="matrix" values="0 0 0 0 0 0 0 0 0 0 0 0 0 0 0 0 0 0 127 0"/>
<feOffset dy="4"/>
<feGaussianBlur stdDeviation="2"/>
<feColorMatrix type="matrix" values="0 0 0 0 0.126979 0 0 0 0 0.575 0 0 0 0 0.575 0 0 0 1 0"/>
<feBlend mode="normal" in2="BackgroundImageFix" result="effect1_dropShadow"/>
<feBlend mode="normal" in="SourceGraphic" in2="effect1_dropShadow" result="shape"/>
</filter>
<filter id="filter7_i" x="373.553" y="344.36" width="9.95304" height="15.7133" filterUnits="userSpaceOnUse" color-interpolation-filters="sRGB">
<feFlood flood-opacity="0" result="BackgroundImageFix"/>
<feBlend mode="normal" in="SourceGraphic" in2="BackgroundImageFix" result="shape"/>
<feColorMatrix in="SourceAlpha" type="matrix" values="0 0 0 0 0 0 0 0 0 0 0 0 0 0 0 0 0 0 127 0" result="hardAlpha"/>
<feOffset dy="4"/>
<feGaussianBlur stdDeviation="2"/>
<feComposite in2="hardAlpha" operator="arithmetic" k2="-1" k3="1"/>
<feColorMatrix type="matrix" values="0 0 0 0 0.145098 0 0 0 0 0.607843 0 0 0 0 0.607843 0 0 0 1 0"/>
<feBlend mode="normal" in2="shape" result="effect1_innerShadow"/>
</filter>
<filter id="filter8_d" x="367.392" y="112.661" width="58.5822" height="57.8645" filterUnits="userSpaceOnUse" color-interpolation-filters="sRGB">
<feFlood flood-opacity="0" result="BackgroundImageFix"/>
<feColorMatrix in="SourceAlpha" type="matrix" values="0 0 0 0 0 0 0 0 0 0 0 0 0 0 0 0 0 0 127 0"/>
<feOffset dy="4"/>
<feGaussianBlur stdDeviation="2"/>
<feColorMatrix type="matrix" values="0 0 0 0 0.126979 0 0 0 0 0.575 0 0 0 0 0.575 0 0 0 1 0"/>
<feBlend mode="normal" in2="BackgroundImageFix" result="effect1_dropShadow"/>
<feBlend mode="normal" in="SourceGraphic" in2="effect1_dropShadow" result="shape"/>
</filter>
<filter id="filter9_d" x="361.211" y="70.0273" width="49.1382" height="48.3996" filterUnits="userSpaceOnUse" color-interpolation-filters="sRGB">
<feFlood flood-opacity="0" result="BackgroundImageFix"/>
<feColorMatrix in="SourceAlpha" type="matrix" values="0 0 0 0 0 0 0 0 0 0 0 0 0 0 0 0 0 0 127 0"/>
<feOffset dy="4"/>
<feGaussianBlur stdDeviation="2"/>
<feColorMatrix type="matrix" values="0 0 0 0 0.14902 0 0 0 0 0.615686 0 0 0 0 0.615686 0 0 0 1 0"/>
<feBlend mode="normal" in2="BackgroundImageFix" result="effect1_dropShadow"/>
<feBlend mode="normal" in="SourceGraphic" in2="effect1_dropShadow" result="shape"/>
</filter>
<filter id="filter10_d" x="365.388" y="92.1782" width="49.9759" height="49.1212" filterUnits="userSpaceOnUse" color-interpolation-filters="sRGB">
<feFlood flood-opacity="0" result="BackgroundImageFix"/>
<feColorMatrix in="SourceAlpha" type="matrix" values="0 0 0 0 0 0 0 0 0 0 0 0 0 0 0 0 0 0 127 0"/>
<feOffset dy="4"/>
<feGaussianBlur stdDeviation="2"/>
<feColorMatrix type="matrix" values="0 0 0 0 0.126979 0 0 0 0 0.575 0 0 0 0 0.575 0 0 0 1 0"/>
<feBlend mode="normal" in2="BackgroundImageFix" result="effect1_dropShadow"/>
<feBlend mode="normal" in="SourceGraphic" in2="effect1_dropShadow" result="shape"/>
</filter>
<filter id="filter11_i" x="389.192" y="99.9004" width="12.9651" height="16.8794" filterUnits="userSpaceOnUse" color-interpolation-filters="sRGB">
<feFlood flood-opacity="0" result="BackgroundImageFix"/>
<feBlend mode="normal" in="SourceGraphic" in2="BackgroundImageFix" result="shape"/>
<feColorMatrix in="SourceAlpha" type="matrix" values="0 0 0 0 0 0 0 0 0 0 0 0 0 0 0 0 0 0 127 0" result="hardAlpha"/>
<feOffset dy="4"/>
<feGaussianBlur stdDeviation="2"/>
<feComposite in2="hardAlpha" operator="arithmetic" k2="-1" k3="1"/>
<feColorMatrix type="matrix" values="0 0 0 0 0.145098 0 0 0 0 0.607843 0 0 0 0 0.607843 0 0 0 1 0"/>
<feBlend mode="normal" in2="shape" result="effect1_innerShadow"/>
</filter>
<radialGradient id="paint0_radial" cx="0" cy="0" r="1" gradientUnits="userSpaceOnUse" gradientTransform="translate(386.837 353.986) scale(636.527 636.904)">
<stop stop-color="#42E8E0"/>
<stop offset="0.1055" stop-color="#37B6BF"/>
<stop offset="0.2197" stop-color="#2C87A1"/>
<stop offset="0.338" stop-color="#235F87"/>
<stop offset="0.4587" stop-color="#1C3F72"/>
<stop offset="0.5824" stop-color="#162561"/>
<stop offset="0.7105" stop-color="#121355"/>
<stop offset="0.8458" stop-color="#10084E"/>
<stop offset="1" stop-color="#0F054C"/>
</radialGradient>
<linearGradient id="paint1_linear" x1="763.628" y1="497.463" x2="877.929" y2="563.455" gradientUnits="userSpaceOnUse">
<stop stop-color="#BCBEFF"/>
<stop offset="0.2271" stop-color="#AAADF8"/>
<stop offset="0.6802" stop-color="#7C83E5"/>
<stop offset="1" stop-color="#5761D7"/>
</linearGradient>
<linearGradient id="paint2_linear" x1="749.295" y1="522.408" x2="893.357" y2="522.408" gradientUnits="userSpaceOnUse">
<stop stop-color="#E9E9FD"/>
<stop offset="0.3601" stop-color="#D3D2F9"/>
<stop offset="0.7062" stop-color="#C5C4F7"/>
<stop offset="1" stop-color="#C0BFF6"/>
</linearGradient>
<linearGradient id="paint3_linear" x1="516.964" y1="656.242" x2="631.265" y2="722.234" gradientUnits="userSpaceOnUse">
<stop stop-color="#BCBEFF"/>
<stop offset="0.2271" stop-color="#AAADF8"/>
<stop offset="0.6802" stop-color="#7C83E5"/>
<stop offset="1" stop-color="#5761D7"/>
</linearGradient>
<linearGradient id="paint4_linear" x1="502.63" y1="681.187" x2="646.692" y2="681.187" gradientUnits="userSpaceOnUse">
<stop stop-color="#E9E9FD"/>
<stop offset="0.3601" stop-color="#D3D2F9"/>
<stop offset="0.7062" stop-color="#C5C4F7"/>
<stop offset="1" stop-color="#C0BFF6"/>
</linearGradient>
<linearGradient id="paint5_linear" x1="516.971" y1="566.005" x2="631.271" y2="631.996" gradientUnits="userSpaceOnUse">
<stop stop-color="#BCBEFF"/>
<stop offset="0.2271" stop-color="#AAADF8"/>
<stop offset="0.6802" stop-color="#7C83E5"/>
<stop offset="1" stop-color="#5761D7"/>
</linearGradient>
<linearGradient id="paint6_linear" x1="502.636" y1="590.949" x2="646.698" y2="590.949" gradientUnits="userSpaceOnUse">
<stop stop-color="#E9E9FD"/>
<stop offset="0.3601" stop-color="#D3D2F9"/>
<stop offset="0.7062" stop-color="#C5C4F7"/>
<stop offset="1" stop-color="#C0BFF6"/>
</linearGradient>
<linearGradient id="paint7_linear" x1="43.1585" y1="128.926" x2="157.459" y2="194.918" gradientUnits="userSpaceOnUse">
<stop stop-color="#BCBEFF"/>
<stop offset="0.2271" stop-color="#AAADF8"/>
<stop offset="0.6802" stop-color="#7C83E5"/>
<stop offset="1" stop-color="#5761D7"/>
</linearGradient>
<linearGradient id="paint8_linear" x1="50.0226" y1="124.482" x2="151.956" y2="183.334" gradientUnits="userSpaceOnUse">
<stop offset="0.2421" stop-color="#5761D7"/>
<stop offset="0.3923" stop-color="#7A82E5"/>
<stop offset="0.5463" stop-color="#979CF0"/>
<stop offset="0.7" stop-color="#ACAFF8"/>
<stop offset="0.8519" stop-color="#B8BAFD"/>
<stop offset="1" stop-color="#BCBEFF"/>
</linearGradient>
<linearGradient id="paint9_linear" x1="28.8256" y1="153.871" x2="172.887" y2="153.871" gradientUnits="userSpaceOnUse">
<stop stop-color="#E9E9FD"/>
<stop offset="0.3601" stop-color="#D3D2F9"/>
<stop offset="0.7062" stop-color="#C5C4F7"/>
<stop offset="1" stop-color="#C0BFF6"/>
</linearGradient>
<linearGradient id="paint10_linear" x1="31.0419" y1="153.871" x2="170.68" y2="153.871" gradientUnits="userSpaceOnUse">
<stop stop-color="#E9E9FD"/>
<stop offset="0.3601" stop-color="#D3D2F9"/>
<stop offset="0.7062" stop-color="#C5C4F7"/>
<stop offset="1" stop-color="#C0BFF6"/>
</linearGradient>
<linearGradient id="paint11_linear" x1="101" y1="189.01" x2="118.721" y2="28.2977" gradientUnits="userSpaceOnUse">
<stop stop-color="#42E8E0"/>
<stop offset="1" stop-color="white" stop-opacity="0"/>
</linearGradient>
<linearGradient id="paint12_linear" x1="579" y1="619.009" x2="579" y2="448.01" gradientUnits="userSpaceOnUse">
<stop stop-color="#42E8E0"/>
<stop offset="1" stop-color="white" stop-opacity="0"/>
</linearGradient>
<linearGradient id="paint13_linear" x1="824" y1="550.01" x2="824" y2="368.01" gradientUnits="userSpaceOnUse">
<stop stop-color="#42E8E0"/>
<stop offset="1" stop-color="white" stop-opacity="0"/>
</linearGradient>
<linearGradient id="paint14_linear" x1="340.5" y1="291.5" x2="419.901" y2="418.964" gradientUnits="userSpaceOnUse">
<stop stop-color="#354F84" stop-opacity="0.28"/>
<stop offset="0.31729" stop-color="#4EC2BD" stop-opacity="0.05"/>
<stop offset="0.604167" stop-color="white" stop-opacity="0"/>
</linearGradient>
<linearGradient id="paint15_linear" x1="465.5" y1="340.5" x2="544.901" y2="467.964" gradientUnits="userSpaceOnUse">
<stop stop-color="#354F84" stop-opacity="0.28"/>
<stop offset="0.31729" stop-color="#4EC2BD" stop-opacity="0.05"/>
<stop offset="0.604167" stop-color="white" stop-opacity="0"/>
</linearGradient>
<linearGradient id="paint16_linear" x1="438.5" y1="220.5" x2="517.901" y2="347.964" gradientUnits="userSpaceOnUse">
<stop stop-color="#354F84" stop-opacity="0.17"/>
<stop offset="0.31729" stop-color="#4EC2BD" stop-opacity="0.29"/>
<stop offset="0.604167" stop-color="white" stop-opacity="0"/>
</linearGradient>
<linearGradient id="paint17_linear" x1="430.853" y1="29.0691" x2="429.469" y2="177.396" gradientUnits="userSpaceOnUse">
<stop stop-color="#354F84" stop-opacity="0.28"/>
<stop offset="0.31729" stop-color="#4EC2BD" stop-opacity="0.05"/>
<stop offset="0.604167" stop-color="white" stop-opacity="0"/>
</linearGradient>
</defs>
</svg>
