<svg width="543" height="949" viewBox="0 0 543 949" fill="none" xmlns="http://www.w3.org/2000/svg">
<g opacity="0.83">
<path d="M542.167 764.938L542.088 791.145C542.088 796.845 538.366 802.546 530.884 806.861L530.964 780.654C538.446 776.339 542.167 770.638 542.167 764.938Z" fill="#445496"/>
<path d="M0 790.988L0.0792535 764.78C0.0792535 770.56 3.8401 776.34 11.441 780.695L11.3619 806.902C3.76097 802.508 0 796.728 0 790.988Z" fill="#445496"/>
<path d="M530.998 780.653L530.919 806.9L299.171 941.539L299.25 915.332L530.998 780.653Z" fill="#445496"/>
<path d="M244.657 915.332L244.618 941.539L11.3646 806.9L11.4437 780.653L244.657 915.332Z" fill="#445496"/>
<path d="M299.252 915.334L299.173 941.541C284.209 950.251 259.664 950.251 244.581 941.541L244.66 915.334C259.743 924.043 284.288 924.043 299.252 915.334Z" fill="#445496"/>
<path d="M530.826 749.024C545.869 757.734 545.948 771.946 530.984 780.655L299.236 915.334C284.271 924.043 259.727 924.043 244.644 915.334L11.3905 780.655C-3.65302 771.946 -3.73211 757.734 11.2322 749.024L242.981 614.346C257.945 605.636 282.529 605.636 297.573 614.346L530.826 749.024Z" fill="url(#paint0_linear)"/>
<path d="M517.454 742.256L517.375 766.207C517.375 771.393 513.97 776.618 507.161 780.537L507.24 756.587C514.049 752.628 517.454 747.442 517.454 742.256Z" fill="#30FDCA"/>
<path d="M22.6069 766.009L22.6861 742.059C22.6861 747.324 26.1302 752.589 33.0581 756.587L32.979 780.538C26.0511 776.54 22.6069 771.275 22.6069 766.009Z" fill="#30FDCA"/>
<path d="M507.25 756.587L507.211 780.538L295.692 903.459L295.771 879.508L507.25 756.587Z" fill="#30FDCA"/>
<path d="M245.929 879.508L245.89 903.459L32.9848 780.538L33.0639 756.587L245.929 879.508Z" fill="#30FDCA"/>
<path d="M295.755 879.507L295.676 903.458C282.018 911.375 259.611 911.375 245.874 903.458L245.954 879.507C259.651 887.424 282.098 887.424 295.755 879.507Z" fill="#30FDCA"/>
<path d="M507.123 727.727C520.86 735.644 520.939 748.629 507.281 756.587L295.762 879.508C282.104 887.425 259.697 887.425 245.96 879.508L33.0556 756.587C19.3185 748.669 19.2394 735.684 32.8973 727.727L244.416 604.806C258.074 596.849 280.521 596.849 294.258 604.806L507.123 727.727Z" fill="#30FDCA"/>
<path d="M542.681 706.9L542.602 733.108C542.602 738.808 538.881 744.509 531.398 748.824L531.478 722.617C538.92 718.302 542.681 712.601 542.681 706.9Z" fill="#445496"/>
<path d="M0.511445 732.95L0.590699 706.743C0.590699 712.523 4.35155 718.303 11.9525 722.658L11.8732 748.865C4.27229 744.471 0.471857 738.691 0.511445 732.95Z" fill="#445496"/>
<path d="M531.469 722.619L531.43 748.866L299.681 883.505L299.76 857.298L531.469 722.619Z" fill="#445496"/>
<path d="M245.167 857.298L245.088 883.505L11.8352 748.866L11.9143 722.619L245.167 857.298Z" fill="#445496"/>
<path d="M299.762 857.298L299.682 883.505C284.718 892.215 260.173 892.215 245.09 883.505L245.17 857.298C260.213 866.007 284.797 866.007 299.762 857.298Z" fill="#445496"/>
<path d="M531.301 690.987C546.344 699.696 546.423 713.909 531.459 722.618L299.75 857.297C284.785 866.006 260.241 866.006 245.158 857.297L11.9046 722.618C-3.13883 713.909 -3.21804 699.696 11.7463 690.987L243.495 556.308C258.459 547.599 283.044 547.599 298.087 556.308L531.301 690.987Z" fill="url(#paint1_linear)"/>
<path d="M517.78 682.872L517.701 706.823C517.701 712.009 514.297 717.234 507.487 721.154L507.567 697.203C514.376 693.244 517.78 688.058 517.78 682.872Z" fill="#30FDCA"/>
<path d="M22.9681 706.625L23.0472 682.674C23.0472 687.939 26.4914 693.204 33.4193 697.203L33.3401 721.153C26.3726 717.155 22.9285 711.89 22.9681 706.625Z" fill="#30FDCA"/>
<path d="M507.559 697.202L507.519 721.153L296 844.034L296.079 820.123L507.559 697.202Z" fill="#30FDCA"/>
<path d="M246.241 820.123L246.201 844.034L33.2967 721.153L33.3759 697.202L246.241 820.123Z" fill="#30FDCA"/>
<path d="M296.088 820.122L296.009 844.073C282.351 851.99 259.944 851.99 246.207 844.073L246.286 820.122C260.023 828.04 282.43 828.04 296.088 820.122Z" fill="#30FDCA"/>
<path d="M507.446 668.343C521.183 676.261 521.262 689.246 507.604 697.203L296.085 820.124C282.427 828.041 260.02 828.041 246.283 820.124L33.3784 697.203C19.6414 689.285 19.5622 676.3 33.2201 668.343L244.739 545.422C258.397 537.465 280.844 537.465 294.581 545.422L507.446 668.343Z" fill="#30FDCA"/>
<path d="M543 647.519L542.921 673.726C542.921 679.427 539.199 685.127 531.717 689.442L531.796 663.235C539.279 658.92 543 653.219 543 647.519Z" fill="#445496"/>
<path d="M0.836548 673.568L0.915681 647.36C0.915681 653.14 4.67653 658.92 12.2774 663.275L12.1983 689.482C4.5974 685.088 0.836548 679.308 0.836548 673.568Z" fill="#445496"/>
<path d="M531.831 663.235L531.752 689.482L300.003 824.121L300.082 797.914L531.831 663.235Z" fill="#445496"/>
<path d="M245.498 797.915L245.418 824.122L12.2049 689.483L12.2446 663.236L245.498 797.915Z" fill="#445496"/>
<path d="M300.091 797.915L300.012 824.122C285.048 832.832 260.503 832.832 245.42 824.122L245.499 797.915C260.582 806.585 285.127 806.585 300.091 797.915Z" fill="#445496"/>
<path d="M531.661 631.604C546.705 640.314 546.784 654.526 531.82 663.235L300.071 797.914C285.107 806.623 260.562 806.623 245.479 797.914L12.2259 663.235C-2.81757 654.526 -2.89678 640.314 12.0675 631.604L243.816 496.926C258.781 488.216 283.365 488.216 298.408 496.926L531.661 631.604Z" fill="url(#paint2_linear)"/>
<path d="M294.295 494.749L294.215 520.956C280.993 513.316 259.576 513.316 246.433 520.956L246.512 494.749C259.655 487.108 281.072 487.108 294.295 494.749Z" fill="#BC7BFE"/>
<path d="M489.464 607.416L489.385 633.663L294.216 520.955L294.295 494.748L489.464 607.416Z" fill="#BC7BFE"/>
<path d="M499.403 621.353L499.324 647.56C499.324 642.533 495.998 637.465 489.347 633.625L489.427 607.418C496.117 611.258 499.442 616.325 499.403 621.353Z" fill="#BC7BFE"/>
<path d="M42.755 647.401L42.8341 621.194C42.8341 616.206 46.12 611.257 52.652 607.457L52.5727 633.664C46.0011 637.465 42.755 642.413 42.755 647.401Z" fill="#BC7BFE"/>
<path d="M509.063 621.392L508.984 647.599C508.984 654.012 504.787 660.386 496.395 665.255L496.474 639.048C504.827 634.179 509.023 627.805 509.063 621.392Z" fill="#BC7BFE"/>
<path d="M33.0932 647.362L33.1723 621.154C33.1723 627.647 37.4083 634.139 45.9593 639.048L45.8802 665.255C37.3292 660.347 33.0932 653.854 33.0932 647.362Z" fill="#BC7BFE"/>
<path d="M496.273 603.497C513.256 613.315 513.336 629.269 496.471 639.087L302.569 751.754C285.704 761.572 258.151 761.572 241.167 751.754L45.9981 639.087C29.0149 629.269 28.9356 613.315 45.8001 603.497L239.703 490.829C256.567 481.011 284.121 481.011 301.104 490.829L496.273 603.497ZM295.72 747.796L489.622 635.128C502.766 627.487 502.686 615.057 489.464 607.456L294.295 494.788C281.072 487.148 259.655 487.148 246.512 494.788L52.6093 607.456C39.5056 615.096 39.5453 627.487 52.7677 635.128L247.937 747.796C261.12 755.396 282.577 755.396 295.72 747.796Z" fill="#C07AFE"/>
<path d="M246.512 494.748L246.432 520.955L52.5301 633.663L52.6092 607.416L246.512 494.748Z" fill="#BC7BFE"/>
<path d="M496.471 639.048L496.392 665.295L302.489 777.962L302.569 751.755L496.471 639.048Z" fill="#BC7BFE"/>
<path d="M241.132 751.755L241.053 777.962L45.8839 665.295L45.963 639.048L241.132 751.755Z" fill="#BC7BFE"/>
<path d="M302.563 751.754L302.484 777.961C285.619 787.779 258.066 787.779 241.083 777.961L241.162 751.754C258.106 761.532 285.659 761.532 302.563 751.754Z" fill="#BC7BFE"/>
<path d="M439.104 638.89V644.115C439.104 649.816 435.383 655.517 427.901 659.832V654.606C435.383 650.291 439.104 644.59 439.104 638.89Z" fill="#CCD3E2"/>
<path d="M103.049 643.957V638.731C103.049 644.511 106.81 650.291 114.371 654.646V659.871C106.81 655.477 103.049 649.737 103.049 643.957Z" fill="#CCD3E2"/>
<path d="M427.903 654.605V659.871L298.885 734.85V729.585L427.903 654.605Z" fill="#CCD3E2"/>
<path d="M244.303 729.625V734.85L114.414 659.871V654.605L244.303 729.625Z" fill="#CCD3E2"/>
<path d="M298.89 729.587V734.813C283.926 743.522 259.342 743.522 244.298 734.813V729.587C259.342 738.296 283.926 738.296 298.89 729.587Z" fill="#CCD3E2"/>
<path d="M427.786 622.975C442.83 631.684 442.909 645.896 427.945 654.606L298.927 729.586C283.963 738.295 259.378 738.295 244.335 729.586L114.446 654.606C99.403 645.896 99.3239 631.684 114.288 622.975L243.306 547.995C258.27 539.286 282.854 539.286 297.898 547.995L427.786 622.975Z" fill="white"/>
<path d="M367.572 533.191C376.439 535.567 385.347 536.754 393.74 536.517L390.533 542.534C382.14 542.811 373.233 541.624 364.365 539.209C365.434 537.19 366.503 535.21 367.572 533.191Z" fill="white"/>
<path d="M393.736 536.517C410.64 536.002 422.319 529.668 427.544 519.89L424.338 525.907C419.112 535.685 407.434 542.019 390.53 542.534C391.48 540.713 392.747 538.298 393.736 536.517Z" fill="white"/>
<path d="M301.188 486.874C314.332 508.212 340.935 526.066 367.577 533.192C366.509 535.211 365.44 537.19 364.371 539.209C337.728 532.083 311.125 514.229 297.982 492.891C289.272 478.758 288.085 465.734 293.231 456.074L296.438 450.057C291.291 459.716 292.479 472.741 301.188 486.874Z" fill="white"/>
<path d="M293.235 456.034L296.442 450.017C301.667 440.238 313.346 433.904 330.21 433.39L327.004 439.407C310.139 439.961 298.461 446.295 293.235 456.034Z" fill="#E8EFF9"/>
<path d="M282.579 445.82L285.785 439.803C292.674 426.858 308.153 418.505 330.52 417.792L327.313 423.809C304.946 424.482 289.507 432.875 282.579 445.82Z" fill="url(#paint3_linear)"/>
<path d="M327.038 439.407C360.649 438.338 402.097 460.587 419.595 489.051C437.133 517.514 424.108 541.426 390.538 542.494C356.967 543.563 315.518 521.315 297.981 492.851C280.443 464.427 293.428 440.476 327.038 439.407Z" fill="#E8EFF9"/>
<path d="M427.551 519.89L424.344 525.907C429.491 516.248 428.303 503.223 419.594 489.09C402.056 460.627 360.607 438.378 327.037 439.447L330.243 433.43C363.854 432.361 405.302 454.609 422.8 483.073C431.51 497.206 432.697 510.23 427.551 519.89Z" fill="#E8EFF9"/>
<path d="M459.338 532.241L456.132 538.259C462.941 525.472 461.397 508.251 449.837 489.526C426.639 451.838 371.769 422.424 327.312 423.81L330.519 417.792C374.976 416.407 429.845 445.821 453.044 483.508C464.603 502.234 466.147 519.454 459.338 532.241Z" fill="url(#paint4_linear)"/>
<path d="M327.317 423.81C371.775 422.424 426.644 451.838 449.842 489.526C473.041 527.214 455.82 558.884 411.363 560.27C366.905 561.656 312.036 532.242 288.838 494.554C265.679 456.866 282.899 425.195 327.317 423.81ZM390.539 542.534C424.15 541.466 437.135 517.554 419.597 489.09C402.06 460.627 360.611 438.378 327.04 439.447C293.469 440.516 280.484 464.427 297.982 492.891C315.52 521.355 356.969 543.564 390.539 542.534Z" fill="white"/>
<path d="M294.63 456.231L295.699 454.212C289.959 465.019 291.226 479.588 300.965 495.384C320.561 527.173 366.997 552.074 404.487 550.926L403.419 552.945C365.929 554.132 319.492 529.231 299.896 497.403C290.196 481.607 288.89 467.038 294.63 456.231Z" fill="#CAAEFF"/>
<path d="M442.281 532.319L441.213 534.338C435.393 545.304 422.289 552.391 403.406 552.984L404.475 550.965C423.398 550.372 436.462 543.285 442.281 532.319Z" fill="#CAAEFF"/>
<path d="M289.701 453.618L290.77 451.599C296.986 439.92 310.92 432.359 331.071 431.726L330.002 433.745C309.852 434.378 295.917 441.939 289.701 453.618Z" fill="#CAAEFF"/>
<path d="M447.199 534.932L446.13 536.951C452.267 525.431 450.881 509.872 440.509 493.047C419.606 459.12 370.042 432.517 330.019 433.784L331.087 431.765C371.111 430.498 420.675 457.101 441.578 491.028C451.95 507.853 453.335 523.411 447.199 534.932Z" fill="#CAAEFF"/>
<path d="M330.012 433.745C370.036 432.478 419.6 459.081 440.502 493.008C461.405 526.935 445.847 555.557 405.823 556.784C365.8 558.051 316.235 531.448 295.372 497.521C274.43 463.634 289.988 435.011 330.012 433.745ZM403.448 552.944C440.977 551.757 455.546 524.956 435.95 493.166C416.354 461.377 369.917 436.437 332.387 437.624C294.897 438.812 280.289 465.613 299.885 497.442C319.482 529.231 365.958 554.132 403.448 552.944Z" fill="#42E8E0"/>
<path d="M343.347 599.578C343.268 599.34 343.189 599.063 343.11 598.826C343.11 596.252 343.11 593.719 343.15 591.146C343.229 591.383 343.308 591.66 343.387 591.898C343.387 594.471 343.387 597.044 343.347 599.578Z" fill="white"/>
<path d="M343.353 599.578C343.313 599.38 343.353 599.142 343.353 598.944C343.353 596.608 343.353 594.233 343.392 591.897C344.263 594.708 344.699 597.559 344.738 600.409C344.738 602.982 344.738 605.516 344.699 608.089C344.699 605.278 344.263 602.428 343.353 599.578Z" fill="white"/>
<path d="M201.422 573.807C185.23 583.229 177.115 595.541 177.075 607.893L177.115 600.213C177.154 587.861 185.27 575.549 201.461 566.127C234.082 547.165 287.17 547.165 319.988 566.127C332.3 573.253 340.02 582.002 343.147 591.187C343.147 593.76 343.147 596.293 343.108 598.867C339.98 589.682 332.26 580.933 319.949 573.807C287.13 554.805 234.042 554.845 201.422 573.807Z" fill="white"/>
<path d="M344.69 608.367C344.69 608.288 344.69 608.208 344.69 608.129C344.69 605.556 344.691 603.022 344.73 600.449C344.73 600.528 344.73 600.608 344.73 600.687C344.73 602.983 344.69 606.031 344.69 608.367Z" fill="white"/>
<path d="M344.731 600.646L344.691 608.326C344.652 620.678 336.536 632.989 320.345 642.411C287.724 661.374 234.676 661.374 201.818 642.411C185.31 632.871 177.036 620.361 177.075 607.851L177.115 600.171C177.075 612.681 185.349 625.191 201.857 634.731C234.716 653.694 287.764 653.694 320.384 634.731C336.576 625.349 344.691 612.997 344.731 600.646Z" fill="#E8EFF9"/>
<path d="M319.989 566.086C352.847 585.049 353.006 615.809 320.385 634.732C287.764 653.695 234.716 653.695 201.858 634.732C169.04 615.769 168.842 585.049 201.462 566.086C234.083 547.124 287.131 547.124 319.989 566.086Z" fill="#E8EFF9"/>
<path d="M373.513 603.892L373.474 611.572C373.434 627.922 362.666 644.232 341.249 656.703C298.058 681.802 227.829 681.802 184.361 656.703C162.509 644.074 151.582 627.487 151.622 610.939L151.662 603.259C151.622 619.807 162.548 636.394 184.401 649.023C227.869 674.121 298.098 674.121 341.289 649.023C362.745 636.552 373.474 620.242 373.513 603.892Z" fill="url(#paint5_linear)"/>
<path d="M340.784 558.17C384.252 583.269 384.489 623.965 341.299 649.024C298.108 674.123 227.879 674.123 184.411 649.024C140.943 623.926 140.706 583.229 183.896 558.17C227.087 533.071 297.316 533.071 340.784 558.17ZM201.869 634.733C234.727 653.696 287.775 653.696 320.396 634.733C353.017 615.771 352.858 585.05 320 566.087C287.182 547.125 234.094 547.125 201.473 566.087C168.853 585.05 169.011 615.81 201.869 634.733Z" fill="white"/>
<path d="M354.639 603.379V605.952C354.679 591.938 345.455 577.924 327.007 567.274C290.348 546.095 230.847 546.095 194.426 567.274C176.334 577.805 167.269 591.581 167.229 605.398V602.824C167.269 589.008 176.334 575.232 194.426 564.701C230.887 543.521 290.348 543.521 327.007 564.701C345.455 575.35 354.679 589.364 354.639 603.379Z" fill="#CAAEFF"/>
<path d="M360.932 603.378V605.952C360.892 620.678 351.233 635.405 331.914 646.648C293.038 669.253 229.579 669.253 190.426 646.648C170.751 635.286 160.893 620.322 160.933 605.397V602.824C160.893 617.749 170.711 632.713 190.426 644.075C229.579 666.68 293.038 666.68 331.914 644.075C351.193 632.872 360.892 618.145 360.932 603.378Z" fill="#CAAEFF"/>
<path d="M331.448 562.127C370.601 584.732 370.799 621.47 331.923 644.075C293.048 666.68 229.588 666.68 190.435 644.075C151.322 621.47 151.085 584.732 189.96 562.127C228.875 539.523 292.295 539.523 331.448 562.127ZM194.83 641.502C231.528 662.681 290.989 662.681 327.41 641.502C363.871 620.322 363.673 585.88 326.975 564.701C290.316 543.521 230.815 543.521 194.394 564.701C158.013 585.88 158.171 620.322 194.83 641.502Z" fill="#42E8E0"/>
<path d="M169.71 434.377C178.261 437.663 186.97 439.801 195.324 440.394L191.523 446.016C183.17 445.382 174.461 443.284 165.909 439.998C167.176 438.098 168.443 436.238 169.71 434.377Z" fill="white"/>
<path d="M108.651 381.41C119.459 403.975 144.004 424.482 169.696 434.379C168.429 436.239 167.163 438.14 165.896 440C140.203 430.103 115.659 409.597 104.851 387.031C97.6855 372.067 97.8834 359.003 104.02 349.977L107.82 344.355C101.684 353.382 101.486 366.446 108.651 381.41Z" fill="white"/>
<path d="M195.321 440.396C212.146 441.663 224.418 436.596 230.633 427.411L226.833 433.033C220.617 442.217 208.345 447.245 191.52 446.018C192.668 444.315 194.173 442.098 195.321 440.396Z" fill="white"/>
<path d="M103.994 349.976L107.794 344.354C114.01 335.17 126.282 330.142 143.107 331.369L139.306 336.991C122.481 335.763 110.209 340.791 103.994 349.976Z" fill="#E8EFF9"/>
<path d="M85.8155 335.408L89.6159 329.786C97.8106 317.672 114.042 310.982 136.33 312.645L132.529 318.266C110.241 316.604 94.0102 323.294 85.8155 335.408Z" fill="url(#paint6_linear)"/>
<path d="M230.625 427.41L226.825 433.032C232.961 424.006 233.159 410.942 225.994 395.977C211.584 365.851 172.748 339.446 139.296 336.952L143.096 331.33C176.548 333.824 215.344 360.229 229.794 390.356C236.96 405.32 236.762 418.384 230.625 427.41Z" fill="#E8EFF9"/>
<path d="M132.528 318.265C176.787 321.55 228.173 356.507 247.254 396.372C266.336 436.237 245.908 465.849 201.649 462.563C157.389 459.277 106.004 424.321 86.9223 384.456C67.8409 344.591 88.2683 314.979 132.528 318.265ZM191.514 446.015C224.966 448.51 240.405 426.103 225.995 396.016C211.585 365.889 172.749 339.484 139.297 336.99C105.845 334.496 90.406 356.903 104.816 387.029C119.266 417.116 158.062 443.521 191.514 446.015Z" fill="white"/>
<path d="M139.295 336.991C172.747 339.485 211.544 365.89 225.993 396.017C240.403 426.104 224.964 448.51 191.512 446.016C158.06 443.522 119.264 417.117 104.814 387.03C90.404 356.904 105.843 334.536 139.295 336.991Z" fill="#E8EFF9"/>
<path d="M252.157 439.761L248.356 445.383C256.472 433.427 256.709 416.127 247.248 396.333C228.166 356.468 176.781 321.512 132.521 318.226L136.322 312.604C180.581 315.89 231.967 350.847 251.048 390.712C260.549 410.506 260.272 427.806 252.157 439.761Z" fill="url(#paint7_linear)"/>
<path d="M95.9687 347.959L97.2355 346.099C90.3868 356.233 90.1492 370.802 98.146 387.508C114.258 421.158 157.726 450.77 195.097 453.541L193.83 455.401C156.459 452.63 112.991 423.018 96.8791 389.368C88.8823 372.702 89.1199 358.094 95.9687 347.959Z" fill="#CAAEFF"/>
<path d="M234.564 439.012L233.298 440.872C226.37 451.126 212.633 456.787 193.828 455.401L195.095 453.541C213.939 454.926 227.637 449.265 234.564 439.012Z" fill="#CAAEFF"/>
<path d="M91.3681 344.832L92.635 342.971C100.038 332.045 114.685 325.988 134.757 327.453L133.49 329.313C113.379 327.849 98.7711 333.906 91.3681 344.832Z" fill="#CAAEFF"/>
<path d="M239.157 442.099L237.89 443.96C245.214 433.152 245.451 417.594 236.94 399.74C219.759 363.873 173.322 332.242 133.457 329.313L134.723 327.452C174.589 330.421 221.026 362.013 238.207 397.879C246.758 415.734 246.481 431.292 239.157 442.099Z" fill="#CAAEFF"/>
<path d="M133.451 329.352C173.317 332.321 219.753 363.912 236.935 399.779C254.116 435.646 235.668 462.447 195.803 459.478C155.937 456.509 109.501 424.917 92.3193 389.051C75.138 353.184 93.5861 326.383 133.451 329.352ZM193.823 455.4C231.194 458.171 248.494 433.072 232.382 399.423C216.27 365.773 172.762 336.2 135.391 333.429C98.02 330.658 80.72 355.757 96.8324 389.367C112.984 423.017 156.452 452.629 193.823 455.4Z" fill="#42E8E0"/>
<path d="M421.333 314.544C427.628 299.223 426.678 286.199 420.067 277.489L424.184 282.873C430.795 291.543 431.745 304.568 425.45 319.928C412.782 350.806 375.53 379.389 342.276 383.783L338.159 378.399C371.413 374.005 408.665 345.422 421.333 314.544Z" fill="white"/>
<path d="M302.169 367.475C308.899 376.263 321.409 380.618 338.155 378.401L342.272 383.785C325.526 386.002 312.977 381.647 306.286 372.859C305.02 371.235 303.396 369.058 302.169 367.475Z" fill="white"/>
<path d="M420.07 277.491L424.187 282.875C417.457 274.087 404.947 269.732 388.202 271.949L384.084 266.565C400.791 264.348 413.34 268.703 420.07 277.491Z" fill="#E8EFF9"/>
<path d="M453.524 262.169L457.641 267.553C448.773 255.914 432.146 250.174 410.016 253.103L405.899 247.719C428.029 244.79 444.617 250.53 453.524 262.169Z" fill="url(#paint8_linear)"/>
<path d="M388.192 271.948C421.446 267.554 438.152 289.05 425.444 319.929C412.776 350.807 375.523 379.39 342.269 383.784C309.015 388.178 292.309 366.682 305.017 335.843C317.685 304.964 354.938 276.342 388.192 271.948Z" fill="#E8EFF9"/>
<path d="M306.289 372.858L302.172 367.474C295.561 358.804 294.611 345.78 300.905 330.459C313.573 299.58 350.826 270.998 384.08 266.604L388.197 271.987C354.943 276.382 317.691 304.964 305.022 335.843C298.688 351.164 299.638 364.188 306.289 372.858Z" fill="#E8EFF9"/>
<path d="M301.583 386.673L297.465 381.289C288.677 369.809 287.45 352.548 295.763 332.279C312.548 291.424 361.836 253.578 405.858 247.759L409.975 253.143C365.953 258.962 316.666 296.808 299.88 337.663C291.567 357.932 292.834 375.153 301.583 386.673Z" fill="url(#paint9_linear)"/>
<path d="M410.011 253.103C454.033 247.284 476.123 275.708 459.338 316.603C442.553 357.457 393.265 395.304 349.244 401.123C305.222 406.943 283.131 378.518 299.917 337.624C316.702 296.769 365.989 258.923 410.011 253.103ZM342.276 383.784C375.53 379.389 412.782 350.807 425.451 319.928C438.119 289.049 421.452 267.553 388.198 271.947C354.944 276.342 317.692 304.924 305.024 335.803C292.316 366.721 309.022 388.178 342.276 383.784Z" fill="white"/>
<path d="M442.765 279.113L444.151 280.895C451.554 290.633 452.623 305.202 445.616 322.344C431.443 356.825 389.717 388.852 352.584 393.76L351.198 391.979C388.332 387.07 430.058 355.043 444.23 320.562C451.277 303.42 450.208 288.852 442.765 279.113Z" fill="#CAAEFF"/>
<path d="M312.313 381.529L310.928 379.748C318.45 389.605 332.464 394.475 351.149 391.981L352.535 393.762C333.849 396.256 319.835 391.387 312.313 381.529Z" fill="#CAAEFF"/>
<path d="M447.197 275.748L448.583 277.53C440.586 267.039 425.622 261.853 405.669 264.466L404.284 262.684C424.236 260.072 439.161 265.258 447.197 275.748Z" fill="#CAAEFF"/>
<path d="M307.93 384.893L306.544 383.112C298.627 372.739 297.479 357.221 305 338.931C320.123 302.114 364.66 267.91 404.287 262.685L405.673 264.466C366.045 269.692 321.509 303.896 306.386 340.713C298.864 359.002 300.012 374.521 307.93 384.893Z" fill="#CAAEFF"/>
<path d="M405.663 264.506C445.291 259.28 465.243 284.973 450.12 321.79C434.998 358.567 390.501 392.771 350.873 397.997C311.245 403.223 291.293 377.53 306.376 340.753C321.459 303.896 366.035 269.732 405.663 264.506ZM352.575 393.801C389.709 388.892 431.435 356.865 445.607 322.384C459.78 287.902 441.094 263.793 403.921 268.702C366.787 273.611 325.022 305.638 310.849 340.159C296.717 374.6 315.402 398.67 352.575 393.801Z" fill="#42E8E0"/>
<path d="M204.093 146.295C217.514 169.533 236.081 189.802 256.587 201.679L248.274 206.508C227.727 194.672 209.2 174.363 195.78 151.125C198.551 149.541 201.322 147.918 204.093 146.295Z" fill="white"/>
<path d="M182.495 73.3345C182.416 96.929 190.69 123.097 204.11 146.295C201.339 147.919 198.568 149.502 195.796 151.125C182.376 127.887 174.102 101.719 174.181 78.1643C174.26 54.7281 182.534 38.2199 195.876 30.4606L204.189 25.6309C190.848 33.3901 182.574 49.8984 182.495 73.3345Z" fill="white"/>
<path d="M256.641 201.679C277.306 213.595 296.031 214.703 309.57 206.865L301.256 211.694C287.717 219.573 268.992 218.464 248.327 206.508C250.821 205.083 254.147 203.143 256.641 201.679Z" fill="white"/>
<path d="M195.878 30.4608L204.192 25.631C217.731 17.753 236.456 18.901 257.121 30.8171L248.807 35.6468C228.142 23.7308 209.417 22.6223 195.878 30.4608Z" fill="#E8EFF9"/>
<path d="M196.229 28.4816L204.543 23.6518C222.437 13.2402 247.219 14.705 274.574 30.5006L266.261 35.3304C238.905 19.5347 214.123 18.0699 196.229 28.4816Z" fill="url(#paint10_linear)"/>
<path d="M248.79 35.6464C289.843 59.3596 323.057 116.802 322.899 164.031C322.78 211.22 289.368 230.222 248.315 206.509C207.262 182.795 174.047 125.353 174.206 78.164C174.324 30.975 207.737 11.9331 248.79 35.6464Z" fill="#E8EFF9"/>
<path d="M309.521 206.866L301.208 211.695C314.549 203.936 322.823 187.467 322.902 164.031C323.021 116.842 289.846 59.3604 248.793 35.6471L257.106 30.8174C298.159 54.5306 331.374 111.973 331.215 159.202C331.136 182.638 322.862 199.106 309.521 206.866Z" fill="#E8EFF9"/>
<path d="M343.93 263.516L335.616 268.345C353.273 258.092 364.239 236.239 364.318 205.242C364.476 142.811 320.573 66.7231 266.218 35.3298L274.532 30.5C328.886 61.8934 372.79 137.942 372.631 200.412C372.552 231.41 361.586 253.262 343.93 263.516Z" fill="url(#paint11_linear)"/>
<path d="M266.213 35.3301C320.568 66.7234 364.471 142.772 364.312 205.242C364.154 267.673 319.934 292.89 265.58 261.497C211.225 230.103 167.322 154.055 167.48 91.5847C167.678 29.1543 211.898 3.93671 266.213 35.3301ZM248.319 206.509C289.372 230.222 322.784 211.18 322.903 164.031C323.022 116.842 289.847 59.36 248.794 35.6467C207.741 11.9334 174.329 30.9753 174.21 78.1643C174.052 125.353 207.266 182.796 248.319 206.509Z" fill="white"/>
<path d="M203.823 50.0567L206.594 48.4336C191.669 57.1034 182.366 75.5514 182.287 101.759C182.129 154.451 219.341 218.86 265.224 245.345L262.453 246.968C216.57 220.483 179.397 156.074 179.516 103.382C179.595 77.1745 188.898 58.7265 203.823 50.0567Z" fill="#CAAEFF"/>
<path d="M324.383 251.085L321.612 252.708C306.489 261.497 285.547 260.269 262.467 246.968L265.238 245.345C288.318 258.686 309.26 259.874 324.383 251.085Z" fill="#CAAEFF"/>
<path d="M199.869 43.2472L202.64 41.6241C218.792 32.2417 241.159 33.5481 265.783 47.7603L263.012 49.3833C238.388 35.1712 216.021 33.8648 199.869 43.2472Z" fill="#CAAEFF"/>
<path d="M328.331 257.854L325.56 259.477C341.514 250.213 351.411 230.538 351.49 202.628C351.649 146.374 311.942 77.6487 263.011 49.3828L265.782 47.7598C314.713 76.0257 354.42 144.751 354.261 201.005C354.182 228.954 344.285 248.63 328.331 257.854Z" fill="#CAAEFF"/>
<path d="M263.017 49.3842C311.948 77.6501 351.655 146.375 351.496 202.63C351.338 258.845 311.394 281.608 262.463 253.342C213.532 225.076 173.825 156.351 173.983 100.136C174.142 43.8815 214.086 21.1579 263.017 49.3842ZM262.463 246.968C308.345 273.453 345.756 252.115 345.914 199.423C346.073 146.731 308.9 82.2819 263.017 55.8371C217.134 29.3922 179.724 50.6906 179.565 103.382C179.407 156.035 216.58 220.484 262.463 246.968Z" fill="#42E8E0"/>
<path d="M32 625.25V0H506.859L506.582 625.492L494.033 643.408L312.323 752.313C287.106 768.78 254.762 768.86 229.426 752.555L44.7869 643.408L32 625.25Z" fill="url(#paint12_linear)"/>
</g>
<g filter="url(#filter0_d)">
<path d="M288.027 572.1L282.355 555.762L276.489 559.121L281.911 573.05L265.823 565.228L257.827 569.806L279.492 580.208L291.94 599.709L298.795 594.367L288.864 579.523L309.863 586.539L316.472 581.157L288.027 572.1Z" fill="white"/>
<path d="M288.027 572.1L282.355 555.762L276.489 559.121L281.911 573.05L265.823 565.228L257.827 569.806L279.492 580.208L291.94 599.709L298.795 594.367L288.864 579.523L309.863 586.539L316.472 581.157L288.027 572.1Z" stroke="#3BC3C3"/>
</g>
<g filter="url(#filter1_d)">
<path d="M353.738 367.918L362.558 382.795L367.635 378.333L359.542 365.767L376.867 370.22L383.788 364.138L360.483 358.27L344.393 341.646L338.742 348.249L351.437 360.812L329.46 358.129L324.058 364.722L353.738 367.918Z" fill="white"/>
<path d="M353.738 367.918L362.558 382.795L367.635 378.333L359.542 365.767L376.867 370.22L383.788 364.138L360.483 358.27L344.393 341.646L338.742 348.249L351.437 360.812L329.46 358.129L324.058 364.722L353.738 367.918Z" stroke="#3BC3C3"/>
</g>
<g filter="url(#filter2_d)">
<path d="M268.15 624.385L227.984 591.215C227.984 591.215 246.38 579.166 250.794 579.086C255.209 579.007 257.367 578.519 262.449 582.625C267.532 586.732 264.936 592.655 264.936 592.655L291.295 603.02L284.882 608.395L263.873 598.773L256.994 604.04C263.188 610.352 266.822 613.645 274.253 618.486L268.15 624.385Z" fill="white"/>
<path d="M268.15 624.385L227.984 591.215C227.984 591.215 246.38 579.166 250.794 579.086C255.209 579.007 257.367 578.519 262.449 582.625C267.532 586.732 264.936 592.655 264.936 592.655L291.295 603.02L284.882 608.395L263.873 598.773L256.994 604.04C263.188 610.352 266.822 613.645 274.253 618.486L268.15 624.385Z" stroke="#3BC3C3"/>
</g>
<g filter="url(#filter3_d)">
<path d="M362.778 312.718L408.757 337.203C408.757 337.203 393.136 352.682 388.827 353.64C384.517 354.599 382.5 355.508 376.7 352.499C370.9 349.49 372.261 343.168 372.261 343.168L344.364 338.273L349.574 331.726L372.082 336.961L377.771 330.427C370.442 325.478 366.223 322.977 357.976 319.717L362.778 312.718Z" fill="white"/>
<path d="M362.778 312.718L408.757 337.203C408.757 337.203 393.136 352.682 388.827 353.64C384.517 354.599 382.5 355.508 376.7 352.499C370.9 349.49 372.261 343.168 372.261 343.168L344.364 338.273L349.574 331.726L372.082 336.961L377.771 330.427C370.442 325.478 366.223 322.977 357.976 319.717L362.778 312.718Z" stroke="#3BC3C3"/>
</g>
<g filter="url(#filter4_i)">
<path d="M239.865 591.122L248.362 597.799C248.362 597.799 255.048 594.395 256.131 592.802C257.583 590.665 255.966 588.524 253.865 587.096C251.869 585.74 250.579 585.905 249.394 586.141C247.521 586.515 239.865 591.122 239.865 591.122Z" fill="#EBF1FA"/>
</g>
<path d="M239.865 591.122L248.362 597.799C248.362 597.799 255.048 594.395 256.131 592.802C257.583 590.665 255.966 588.524 253.865 587.096C251.869 585.74 250.579 585.905 249.394 586.141C247.521 586.515 239.865 591.122 239.865 591.122Z" stroke="#3BC3C3"/>
<g filter="url(#filter5_i)">
<path d="M397.134 339.666L387.475 334.82C387.475 334.82 381.603 339.489 380.86 341.267C379.863 343.651 381.875 345.425 384.22 346.405C386.445 347.336 387.677 346.917 388.791 346.449C390.552 345.709 397.134 339.666 397.134 339.666Z" fill="#EBF1FA"/>
</g>
<path d="M397.134 339.666L387.475 334.82C387.475 334.82 381.603 339.489 380.86 341.267C379.863 343.651 381.875 345.425 384.22 346.405C386.445 347.336 387.677 346.917 388.791 346.449C390.552 345.709 397.134 339.666 397.134 339.666Z" stroke="#3BC3C3"/>
<g filter="url(#filter6_d)">
<path d="M206.107 625.358L195.113 616.899L227.269 596.06L237.011 603.216L226.047 610.744L258.881 636.446L250.211 645.811L217.412 617.298L206.107 625.358Z" fill="white"/>
<path d="M206.107 625.358L195.113 616.899L227.269 596.06L237.011 603.216L226.047 610.744L258.881 636.446L250.211 645.811L217.412 617.298L206.107 625.358Z" stroke="#3BC3C3"/>
</g>
<g filter="url(#filter7_d)">
<path d="M423.377 299.381L435.838 305.475L408.489 332.313L397.514 327.246L406.756 317.681L369.452 299.051L376.078 288.143L413.909 309.535L423.377 299.381Z" fill="white"/>
<path d="M423.377 299.381L435.838 305.475L408.489 332.313L397.514 327.246L406.756 317.681L369.452 299.051L376.078 288.143L413.909 309.535L423.377 299.381Z" stroke="#3BC3C3"/>
</g>
<g filter="url(#filter8_d)">
<path d="M280.748 175.283L284.063 134.766L292.496 148.562L291.232 172.998L306.526 166.694L316.142 175.839L291.862 186.557L284.211 232.671L275.698 221.477L282.481 186.793L259.225 198.063L253.235 189.549L280.748 175.283Z" fill="white"/>
<path d="M280.748 175.283L284.063 134.766L292.496 148.562L291.232 172.998L306.526 166.694L316.142 175.839L291.862 186.557L284.211 232.671L275.698 221.477L282.481 186.793L259.225 198.063L253.235 189.549L280.748 175.283Z" stroke="#3BC3C3"/>
</g>
<g filter="url(#filter9_d)">
<path d="M229.361 70.5288L235.57 59L257.003 95.3321L251.053 106.381L243.198 93.4741L220.689 135.266L213.124 124.994L235.892 82.722L229.361 70.5288Z" fill="white"/>
<path d="M229.361 70.5288L235.57 59L257.003 95.3321L251.053 106.381L243.198 93.4741L220.689 135.266L213.124 124.994L235.892 82.722L229.361 70.5288Z" stroke="#3BC3C3"/>
</g>
<g filter="url(#filter10_d)">
<path d="M231.211 151.674L261.42 97.9803C261.42 97.9803 278.492 120.981 278.922 126.299C279.352 131.618 279.993 134.506 275.425 140.948C270.858 147.39 263.516 144.708 263.516 144.708L252.348 181.93L245.476 170.722L256.056 143.889L251.193 137.002L237.154 161.03L231.211 151.674Z" fill="white"/>
<path d="M231.211 151.674L261.42 97.9803C261.42 97.9803 278.492 120.981 278.922 126.299C279.352 131.618 279.993 134.506 275.425 140.948C270.858 147.39 263.516 144.708 263.516 144.708L252.348 181.93L245.476 170.722L256.056 143.889L251.193 137.002L237.154 161.03L231.211 151.674Z" stroke="#3BC3C3"/>
</g>
<g filter="url(#filter11_i)">
<path d="M260.823 113.605L254.278 125.757C254.278 125.757 258.695 132.96 260.821 134.105C263.673 135.641 266.135 133.349 267.645 130.545C269.079 127.882 268.708 126.294 268.261 124.847C267.553 122.559 260.823 113.605 260.823 113.605Z" fill="#E8EFF9"/>
</g>
<path d="M260.823 113.605L254.278 125.757C254.278 125.757 258.695 132.96 260.821 134.105C263.673 135.641 266.135 133.349 267.645 130.545C269.079 127.882 268.708 126.294 268.261 124.847C267.553 122.559 260.823 113.605 260.823 113.605Z" stroke="#3BC3C3"/>
<g filter="url(#filter12_d)">
<path d="M387.018 497.573L374.769 475.045L383.986 479.412L391.762 492.745L397.655 484.134L405.889 485.638L396.778 499.683L408.673 526.663L400.312 523.696L391.909 503.048L383.53 517.031L377.427 514.607L387.018 497.573Z" fill="white"/>
<path d="M387.018 497.573L374.769 475.045L383.986 479.412L391.762 492.745L397.655 484.134L405.889 485.638L396.778 499.683L408.673 526.663L400.312 523.696L391.909 503.048L383.53 517.031L377.427 514.607L387.018 497.573Z" stroke="#3BC3C3"/>
</g>
<g filter="url(#filter13_d)">
<path d="M323.706 460.043L323 451.813L346.864 463.583L347.541 471.469L338.936 467.372L341.496 497.204L333.955 494.397L331.365 464.222L323.706 460.043Z" fill="white"/>
<path d="M323.706 460.043L323 451.813L346.864 463.583L347.541 471.469L338.936 467.372L341.496 497.204L333.955 494.397L331.365 464.222L323.706 460.043Z" stroke="#3BC3C3"/>
</g>
<g filter="url(#filter14_d)">
<path d="M352.716 502.229L350.109 463.455C350.109 463.455 367.065 469.695 369.129 472.353C371.194 475.011 372.53 476.314 372.345 481.292C372.16 486.27 367.359 487.391 367.359 487.391L374.325 510.894L366.826 507.353L363.139 489.536L358.193 487.582L359.085 505.113L352.716 502.229Z" fill="white"/>
<path d="M352.716 502.229L350.109 463.455C350.109 463.455 367.065 469.695 369.129 472.353C371.194 475.011 372.53 476.314 372.345 481.292C372.16 486.27 367.359 487.391 367.359 487.391L374.325 510.894L366.826 507.353L363.139 489.536L358.193 487.582L359.085 505.113L352.716 502.229Z" stroke="#3BC3C3"/>
</g>
<g filter="url(#filter15_i)">
<path d="M355.194 471.906L355.938 480.581C355.938 480.581 360.757 482.856 362.275 482.726C364.311 482.551 364.818 480.491 364.646 478.489C364.483 476.589 363.738 475.879 363.002 475.269C361.839 474.307 355.194 471.906 355.194 471.906Z" fill="#E8EFF9"/>
</g>
<path d="M355.194 471.906L355.938 480.581C355.938 480.581 360.757 482.856 362.275 482.726C364.311 482.551 364.818 480.491 364.646 478.489C364.483 476.589 363.738 475.879 363.002 475.269C361.839 474.307 355.194 471.906 355.194 471.906Z" stroke="#3BC3C3"/>
<g filter="url(#filter16_d)">
<path d="M180.981 399.265L171.587 375.404L180.199 380.869L186.281 395.055L193.185 387.231L201.173 389.734L190.409 402.556L198.905 430.791L190.972 426.821L185.164 405.299L175.133 418.148L169.373 414.994L180.981 399.265Z" fill="white"/>
<path d="M180.981 399.265L171.587 375.404L180.199 380.869L186.281 395.055L193.185 387.231L201.173 389.734L190.409 402.556L198.905 430.791L190.972 426.821L185.164 405.299L175.133 418.148L169.373 414.994L180.981 399.265Z" stroke="#3BC3C3"/>
</g>
<g filter="url(#filter17_d)">
<path d="M122.749 354.254L123.058 346L145.298 360.607L145.003 368.517L136.966 363.395L135.848 393.316L128.708 389.605L129.838 359.34L122.749 354.254Z" fill="white"/>
<path d="M122.749 354.254L123.058 346L145.298 360.607L145.003 368.517L136.966 363.395L135.848 393.316L128.708 389.605L129.838 359.34L122.749 354.254Z" stroke="#3BC3C3"/>
</g>
<g filter="url(#filter18_d)">
<path d="M146.367 399.679L148.534 360.878C148.534 360.878 164.597 369.151 166.32 372.042C168.043 374.933 169.209 376.39 168.415 381.308C167.621 386.225 162.719 386.749 162.719 386.749L166.75 410.929L159.742 406.495L158.268 388.36L153.599 385.815L152.335 403.323L146.367 399.679Z" fill="white"/>
<path d="M146.367 399.679L148.534 360.878C148.534 360.878 164.597 369.151 166.32 372.042C168.043 374.933 169.209 376.39 168.415 381.308C167.621 386.225 162.719 386.749 162.719 386.749L166.75 410.929L159.742 406.495L158.268 388.36L153.599 385.815L152.335 403.323L146.367 399.679Z" stroke="#3BC3C3"/>
</g>
<g filter="url(#filter19_i)">
<path d="M152.544 369.889L152.219 378.589C152.219 378.589 156.723 381.438 158.245 381.495C160.288 381.572 161.043 379.589 161.118 377.581C161.189 375.675 160.538 374.879 159.882 374.184C158.845 373.086 152.544 369.889 152.544 369.889Z" fill="#E8EFF9"/>
</g>
<path d="M152.544 369.889L152.219 378.589C152.219 378.589 156.723 381.438 158.245 381.495C160.288 381.572 161.043 379.589 161.118 377.581C161.189 375.675 160.538 374.879 159.882 374.184C158.845 373.086 152.544 369.889 152.544 369.889Z" stroke="#3BC3C3"/>
<defs>
<filter id="filter0_d" x="250.517" y="547.895" width="71.0607" height="65.9432" filterUnits="userSpaceOnUse" color-interpolation-filters="sRGB">
<feFlood flood-opacity="0" result="BackgroundImageFix"/>
<feColorMatrix in="SourceAlpha" type="matrix" values="0 0 0 0 0 0 0 0 0 0 0 0 0 0 0 0 0 0 127 0"/>
<feOffset dy="4"/>
<feGaussianBlur stdDeviation="2"/>
<feColorMatrix type="matrix" values="0 0 0 0 0.713726 0 0 0 0 0.752941 0 0 0 0 0.905882 0 0 0 1 0"/>
<feBlend mode="normal" in2="BackgroundImageFix" result="effect1_dropShadow"/>
<feBlend mode="normal" in="SourceGraphic" in2="effect1_dropShadow" result="shape"/>
</filter>
<filter id="filter1_d" x="319.034" y="337.073" width="71.3872" height="59.5598" filterUnits="userSpaceOnUse" color-interpolation-filters="sRGB">
<feFlood flood-opacity="0" result="BackgroundImageFix"/>
<feColorMatrix in="SourceAlpha" type="matrix" values="0 0 0 0 0 0 0 0 0 0 0 0 0 0 0 0 0 0 127 0"/>
<feOffset dy="4"/>
<feGaussianBlur stdDeviation="2"/>
<feColorMatrix type="matrix" values="0 0 0 0 0.713726 0 0 0 0 0.752941 0 0 0 0 0.905882 0 0 0 1 0"/>
<feBlend mode="normal" in2="BackgroundImageFix" result="effect1_dropShadow"/>
<feBlend mode="normal" in="SourceGraphic" in2="effect1_dropShadow" result="shape"/>
</filter>
<filter id="filter2_d" x="219.4" y="568.567" width="77.9912" height="69.0956" filterUnits="userSpaceOnUse" color-interpolation-filters="sRGB">
<feFlood flood-opacity="0" result="BackgroundImageFix"/>
<feColorMatrix in="SourceAlpha" type="matrix" values="0 0 0 0 0 0 0 0 0 0 0 0 0 0 0 0 0 0 127 0"/>
<feOffset dy="4"/>
<feGaussianBlur stdDeviation="2"/>
<feColorMatrix type="matrix" values="0 0 0 0 0.682353 0 0 0 0 0.717647 0 0 0 0 0.87451 0 0 0 1 0"/>
<feBlend mode="normal" in2="BackgroundImageFix" result="effect1_dropShadow"/>
<feBlend mode="normal" in="SourceGraphic" in2="effect1_dropShadow" result="shape"/>
</filter>
<filter id="filter3_d" x="338.704" y="309.03" width="77.3544" height="61.006" filterUnits="userSpaceOnUse" color-interpolation-filters="sRGB">
<feFlood flood-opacity="0" result="BackgroundImageFix"/>
<feColorMatrix in="SourceAlpha" type="matrix" values="0 0 0 0 0 0 0 0 0 0 0 0 0 0 0 0 0 0 127 0"/>
<feOffset dy="4"/>
<feGaussianBlur stdDeviation="2"/>
<feColorMatrix type="matrix" values="0 0 0 0 0.682353 0 0 0 0 0.717647 0 0 0 0 0.87451 0 0 0 1 0"/>
<feBlend mode="normal" in2="BackgroundImageFix" result="effect1_dropShadow"/>
<feBlend mode="normal" in="SourceGraphic" in2="effect1_dropShadow" result="shape"/>
</filter>
<filter id="filter4_i" x="238.526" y="581.021" width="20.2362" height="23.5234" filterUnits="userSpaceOnUse" color-interpolation-filters="sRGB">
<feFlood flood-opacity="0" result="BackgroundImageFix"/>
<feBlend mode="normal" in="SourceGraphic" in2="BackgroundImageFix" result="shape"/>
<feColorMatrix in="SourceAlpha" type="matrix" values="0 0 0 0 0 0 0 0 0 0 0 0 0 0 0 0 0 0 127 0" result="hardAlpha"/>
<feOffset dy="4"/>
<feGaussianBlur stdDeviation="2"/>
<feComposite in2="hardAlpha" operator="arithmetic" k2="-1" k3="1"/>
<feColorMatrix type="matrix" values="0 0 0 0 0.678431 0 0 0 0 0.717647 0 0 0 0 0.870588 0 0 0 1 0"/>
<feBlend mode="normal" in2="shape" result="effect1_innerShadow"/>
</filter>
<filter id="filter5_i" x="378.877" y="332.751" width="19.4448" height="22.0005" filterUnits="userSpaceOnUse" color-interpolation-filters="sRGB">
<feFlood flood-opacity="0" result="BackgroundImageFix"/>
<feBlend mode="normal" in="SourceGraphic" in2="BackgroundImageFix" result="shape"/>
<feColorMatrix in="SourceAlpha" type="matrix" values="0 0 0 0 0 0 0 0 0 0 0 0 0 0 0 0 0 0 127 0" result="hardAlpha"/>
<feOffset dy="4"/>
<feGaussianBlur stdDeviation="2"/>
<feComposite in2="hardAlpha" operator="arithmetic" k2="-1" k3="1"/>
<feColorMatrix type="matrix" values="0 0 0 0 0.678431 0 0 0 0 0.717647 0 0 0 0 0.870588 0 0 0 1 0"/>
<feBlend mode="normal" in2="shape" result="effect1_innerShadow"/>
</filter>
<filter id="filter6_d" x="189.048" y="586.484" width="84.4358" height="71.7039" filterUnits="userSpaceOnUse" color-interpolation-filters="sRGB">
<feFlood flood-opacity="0" result="BackgroundImageFix"/>
<feColorMatrix in="SourceAlpha" type="matrix" values="0 0 0 0 0 0 0 0 0 0 0 0 0 0 0 0 0 0 127 0"/>
<feOffset dy="4"/>
<feGaussianBlur stdDeviation="2"/>
<feColorMatrix type="matrix" values="0 0 0 0 0.682353 0 0 0 0 0.717647 0 0 0 0 0.870588 0 0 0 1 0"/>
<feBlend mode="normal" in2="BackgroundImageFix" result="effect1_dropShadow"/>
<feBlend mode="normal" in="SourceGraphic" in2="effect1_dropShadow" result="shape"/>
</filter>
<filter id="filter7_d" x="358.842" y="284.292" width="82.569" height="61.9836" filterUnits="userSpaceOnUse" color-interpolation-filters="sRGB">
<feFlood flood-opacity="0" result="BackgroundImageFix"/>
<feColorMatrix in="SourceAlpha" type="matrix" values="0 0 0 0 0 0 0 0 0 0 0 0 0 0 0 0 0 0 127 0"/>
<feOffset dy="4"/>
<feGaussianBlur stdDeviation="2"/>
<feColorMatrix type="matrix" values="0 0 0 0 0.682353 0 0 0 0 0.717647 0 0 0 0 0.870588 0 0 0 1 0"/>
<feBlend mode="normal" in2="BackgroundImageFix" result="effect1_dropShadow"/>
<feBlend mode="normal" in="SourceGraphic" in2="effect1_dropShadow" result="shape"/>
</filter>
<filter id="filter8_d" x="248.497" y="133.197" width="72.533" height="108.7" filterUnits="userSpaceOnUse" color-interpolation-filters="sRGB">
<feFlood flood-opacity="0" result="BackgroundImageFix"/>
<feColorMatrix in="SourceAlpha" type="matrix" values="0 0 0 0 0 0 0 0 0 0 0 0 0 0 0 0 0 0 127 0"/>
<feOffset dy="4"/>
<feGaussianBlur stdDeviation="2"/>
<feColorMatrix type="matrix" values="0 0 0 0 0.113725 0 0 0 0 0.113725 0 0 0 0 0.258824 0 0 0 0.27 0"/>
<feBlend mode="normal" in2="BackgroundImageFix" result="effect1_dropShadow"/>
<feBlend mode="normal" in="SourceGraphic" in2="effect1_dropShadow" result="shape"/>
</filter>
<filter id="filter9_d" x="208.534" y="57.9824" width="53.0437" height="86.2159" filterUnits="userSpaceOnUse" color-interpolation-filters="sRGB">
<feFlood flood-opacity="0" result="BackgroundImageFix"/>
<feColorMatrix in="SourceAlpha" type="matrix" values="0 0 0 0 0 0 0 0 0 0 0 0 0 0 0 0 0 0 127 0"/>
<feOffset dy="4"/>
<feGaussianBlur stdDeviation="2"/>
<feColorMatrix type="matrix" values="0 0 0 0 0.109804 0 0 0 0 0.109804 0 0 0 0 0.254902 0 0 0 0.46 0"/>
<feBlend mode="normal" in2="BackgroundImageFix" result="effect1_dropShadow"/>
<feBlend mode="normal" in="SourceGraphic" in2="effect1_dropShadow" result="shape"/>
</filter>
<filter id="filter10_d" x="226.628" y="97.0635" width="57.0939" height="94.0806" filterUnits="userSpaceOnUse" color-interpolation-filters="sRGB">
<feFlood flood-opacity="0" result="BackgroundImageFix"/>
<feColorMatrix in="SourceAlpha" type="matrix" values="0 0 0 0 0 0 0 0 0 0 0 0 0 0 0 0 0 0 127 0"/>
<feOffset dy="4"/>
<feGaussianBlur stdDeviation="2"/>
<feColorMatrix type="matrix" values="0 0 0 0 0.12549 0 0 0 0 0.12549 0 0 0 0 0.270588 0 0 0 0.31 0"/>
<feBlend mode="normal" in2="BackgroundImageFix" result="effect1_dropShadow"/>
<feBlend mode="normal" in="SourceGraphic" in2="effect1_dropShadow" result="shape"/>
</filter>
<filter id="filter11_i" x="253.702" y="112.68" width="15.4596" height="26.418" filterUnits="userSpaceOnUse" color-interpolation-filters="sRGB">
<feFlood flood-opacity="0" result="BackgroundImageFix"/>
<feBlend mode="normal" in="SourceGraphic" in2="BackgroundImageFix" result="shape"/>
<feColorMatrix in="SourceAlpha" type="matrix" values="0 0 0 0 0 0 0 0 0 0 0 0 0 0 0 0 0 0 127 0" result="hardAlpha"/>
<feOffset dy="4"/>
<feGaussianBlur stdDeviation="2"/>
<feComposite in2="hardAlpha" operator="arithmetic" k2="-1" k3="1"/>
<feColorMatrix type="matrix" values="0 0 0 0 0.117647 0 0 0 0 0.117647 0 0 0 0 0.262745 0 0 0 0.47 0"/>
<feBlend mode="normal" in2="shape" result="effect1_innerShadow"/>
</filter>
<filter id="filter12_d" x="369.597" y="473.936" width="44.0005" height="61.5857" filterUnits="userSpaceOnUse" color-interpolation-filters="sRGB">
<feFlood flood-opacity="0" result="BackgroundImageFix"/>
<feColorMatrix in="SourceAlpha" type="matrix" values="0 0 0 0 0 0 0 0 0 0 0 0 0 0 0 0 0 0 127 0"/>
<feOffset dy="4"/>
<feGaussianBlur stdDeviation="2"/>
<feColorMatrix type="matrix" values="0 0 0 0 0.113725 0 0 0 0 0.113725 0 0 0 0 0.258824 0 0 0 0.27 0"/>
<feBlend mode="normal" in2="BackgroundImageFix" result="effect1_dropShadow"/>
<feBlend mode="normal" in="SourceGraphic" in2="effect1_dropShadow" result="shape"/>
</filter>
<filter id="filter13_d" x="318.426" y="450.973" width="33.6873" height="54.9751" filterUnits="userSpaceOnUse" color-interpolation-filters="sRGB">
<feFlood flood-opacity="0" result="BackgroundImageFix"/>
<feColorMatrix in="SourceAlpha" type="matrix" values="0 0 0 0 0 0 0 0 0 0 0 0 0 0 0 0 0 0 127 0"/>
<feOffset dy="4"/>
<feGaussianBlur stdDeviation="2"/>
<feColorMatrix type="matrix" values="0 0 0 0 0.109804 0 0 0 0 0.109804 0 0 0 0 0.254902 0 0 0 0.46 0"/>
<feBlend mode="normal" in2="BackgroundImageFix" result="effect1_dropShadow"/>
<feBlend mode="normal" in="SourceGraphic" in2="effect1_dropShadow" result="shape"/>
</filter>
<filter id="filter14_d" x="345.558" y="462.719" width="33.5635" height="57.1037" filterUnits="userSpaceOnUse" color-interpolation-filters="sRGB">
<feFlood flood-opacity="0" result="BackgroundImageFix"/>
<feColorMatrix in="SourceAlpha" type="matrix" values="0 0 0 0 0 0 0 0 0 0 0 0 0 0 0 0 0 0 127 0"/>
<feOffset dy="4"/>
<feGaussianBlur stdDeviation="2"/>
<feColorMatrix type="matrix" values="0 0 0 0 0.12549 0 0 0 0 0.12549 0 0 0 0 0.270588 0 0 0 0.31 0"/>
<feBlend mode="normal" in2="BackgroundImageFix" result="effect1_dropShadow"/>
<feBlend mode="normal" in="SourceGraphic" in2="effect1_dropShadow" result="shape"/>
</filter>
<filter id="filter15_i" x="354.629" y="471.171" width="10.5485" height="16.0602" filterUnits="userSpaceOnUse" color-interpolation-filters="sRGB">
<feFlood flood-opacity="0" result="BackgroundImageFix"/>
<feBlend mode="normal" in="SourceGraphic" in2="BackgroundImageFix" result="shape"/>
<feColorMatrix in="SourceAlpha" type="matrix" values="0 0 0 0 0 0 0 0 0 0 0 0 0 0 0 0 0 0 127 0" result="hardAlpha"/>
<feOffset dy="4"/>
<feGaussianBlur stdDeviation="2"/>
<feComposite in2="hardAlpha" operator="arithmetic" k2="-1" k3="1"/>
<feColorMatrix type="matrix" values="0 0 0 0 0.117647 0 0 0 0 0.117647 0 0 0 0 0.262745 0 0 0 0.47 0"/>
<feBlend mode="normal" in2="shape" result="effect1_innerShadow"/>
</filter>
<filter id="filter16_d" x="164.631" y="374.16" width="41.4074" height="65.5961" filterUnits="userSpaceOnUse" color-interpolation-filters="sRGB">
<feFlood flood-opacity="0" result="BackgroundImageFix"/>
<feColorMatrix in="SourceAlpha" type="matrix" values="0 0 0 0 0 0 0 0 0 0 0 0 0 0 0 0 0 0 127 0"/>
<feOffset dy="4"/>
<feGaussianBlur stdDeviation="2"/>
<feColorMatrix type="matrix" values="0 0 0 0 0.113725 0 0 0 0 0.113725 0 0 0 0 0.258824 0 0 0 0.27 0"/>
<feBlend mode="normal" in2="BackgroundImageFix" result="effect1_dropShadow"/>
<feBlend mode="normal" in="SourceGraphic" in2="effect1_dropShadow" result="shape"/>
</filter>
<filter id="filter17_d" x="118.24" y="345.095" width="31.5687" height="57.0285" filterUnits="userSpaceOnUse" color-interpolation-filters="sRGB">
<feFlood flood-opacity="0" result="BackgroundImageFix"/>
<feColorMatrix in="SourceAlpha" type="matrix" values="0 0 0 0 0 0 0 0 0 0 0 0 0 0 0 0 0 0 127 0"/>
<feOffset dy="4"/>
<feGaussianBlur stdDeviation="2"/>
<feColorMatrix type="matrix" values="0 0 0 0 0.109804 0 0 0 0 0.109804 0 0 0 0 0.254902 0 0 0 0.46 0"/>
<feBlend mode="normal" in2="BackgroundImageFix" result="effect1_dropShadow"/>
<feBlend mode="normal" in="SourceGraphic" in2="effect1_dropShadow" result="shape"/>
</filter>
<filter id="filter18_d" x="141.851" y="360.081" width="31.3182" height="59.868" filterUnits="userSpaceOnUse" color-interpolation-filters="sRGB">
<feFlood flood-opacity="0" result="BackgroundImageFix"/>
<feColorMatrix in="SourceAlpha" type="matrix" values="0 0 0 0 0 0 0 0 0 0 0 0 0 0 0 0 0 0 127 0"/>
<feOffset dy="4"/>
<feGaussianBlur stdDeviation="2"/>
<feColorMatrix type="matrix" values="0 0 0 0 0.12549 0 0 0 0 0.12549 0 0 0 0 0.270588 0 0 0 0.31 0"/>
<feBlend mode="normal" in2="BackgroundImageFix" result="effect1_dropShadow"/>
<feBlend mode="normal" in="SourceGraphic" in2="effect1_dropShadow" result="shape"/>
</filter>
<filter id="filter19_i" x="151.709" y="369.09" width="9.91468" height="16.9076" filterUnits="userSpaceOnUse" color-interpolation-filters="sRGB">
<feFlood flood-opacity="0" result="BackgroundImageFix"/>
<feBlend mode="normal" in="SourceGraphic" in2="BackgroundImageFix" result="shape"/>
<feColorMatrix in="SourceAlpha" type="matrix" values="0 0 0 0 0 0 0 0 0 0 0 0 0 0 0 0 0 0 127 0" result="hardAlpha"/>
<feOffset dy="4"/>
<feGaussianBlur stdDeviation="2"/>
<feComposite in2="hardAlpha" operator="arithmetic" k2="-1" k3="1"/>
<feColorMatrix type="matrix" values="0 0 0 0 0.117647 0 0 0 0 0.117647 0 0 0 0 0.262745 0 0 0 0.47 0"/>
<feBlend mode="normal" in2="shape" result="effect1_innerShadow"/>
</filter>
<linearGradient id="paint0_linear" x1="0.0702802" y1="764.853" x2="542.158" y2="764.853" gradientUnits="userSpaceOnUse">
<stop stop-color="#8991C3"/>
<stop offset="1" stop-color="#C7D7FF"/>
</linearGradient>
<linearGradient id="paint1_linear" x1="0.573325" y1="706.816" x2="542.661" y2="706.816" gradientUnits="userSpaceOnUse">
<stop stop-color="#96A0CF"/>
<stop offset="1" stop-color="#C7D7FF"/>
</linearGradient>
<linearGradient id="paint2_linear" x1="0.901314" y1="647.43" x2="542.989" y2="647.43" gradientUnits="userSpaceOnUse">
<stop stop-color="#919ACA"/>
<stop offset="1" stop-color="#C7D7FF"/>
</linearGradient>
<linearGradient id="paint3_linear" x1="283.431" y1="421.5" x2="469.422" y2="504.024" gradientUnits="userSpaceOnUse">
<stop stop-color="#7379AD"/>
<stop offset="1" stop-color="#C7D7FF"/>
</linearGradient>
<linearGradient id="paint4_linear" x1="282.99" y1="422.491" x2="468.981" y2="505.014" gradientUnits="userSpaceOnUse">
<stop stop-color="#696DA3"/>
<stop offset="1" stop-color="#C7D7FF"/>
</linearGradient>
<linearGradient id="paint5_linear" x1="151.628" y1="639.4" x2="373.52" y2="639.4" gradientUnits="userSpaceOnUse">
<stop stop-color="#4B61B8"/>
<stop offset="1" stop-color="#C7D7FF"/>
</linearGradient>
<linearGradient id="paint6_linear" x1="110.729" y1="323.873" x2="289.959" y2="417.137" gradientUnits="userSpaceOnUse">
<stop stop-color="#42E8E0"/>
<stop offset="1" stop-color="#C7D7FF"/>
</linearGradient>
<linearGradient id="paint7_linear" x1="107.72" y1="329.64" x2="286.95" y2="422.904" gradientUnits="userSpaceOnUse">
<stop stop-color="#252061"/>
<stop offset="1" stop-color="#C7D7FF"/>
</linearGradient>
<linearGradient id="paint8_linear" x1="311.922" y1="204.183" x2="459.186" y2="266.751" gradientUnits="userSpaceOnUse">
<stop stop-color="#8E96C7"/>
<stop offset="1" stop-color="#C7D7FF"/>
</linearGradient>
<linearGradient id="paint9_linear" x1="277.674" y1="284.787" x2="424.939" y2="347.354" gradientUnits="userSpaceOnUse">
<stop stop-color="#42E8E0"/>
<stop offset="1" stop-color="#C7D7FF"/>
</linearGradient>
<linearGradient id="paint10_linear" x1="240.814" y1="49.1601" x2="310.196" y2="300.206" gradientUnits="userSpaceOnUse">
<stop stop-color="#1E1651"/>
<stop offset="1" stop-color="#C7D7FF"/>
</linearGradient>
<linearGradient id="paint11_linear" x1="298.927" y1="33.0982" x2="368.309" y2="284.144" gradientUnits="userSpaceOnUse">
<stop stop-color="#888FC1"/>
<stop offset="1" stop-color="#C7D7FF"/>
</linearGradient>
<linearGradient id="paint12_linear" x1="231.868" y1="102.341" x2="245.753" y2="797.436" gradientUnits="userSpaceOnUse">
<stop stop-color="white" stop-opacity="0"/>
<stop offset="0.659375" stop-color="white" stop-opacity="0.16"/>
<stop offset="1" stop-color="#42E8E0" stop-opacity="0"/>
</linearGradient>
</defs>
</svg>
