<svg width="899" height="688" viewBox="0 0 899 688" fill="none" xmlns="http://www.w3.org/2000/svg">
<g opacity="0.82">
<g opacity="0.8">
<path d="M392.52 659.419L78.4569 478.645C64.4191 470.533 66.1911 456.246 82.4162 446.887L364.306 284.138C380.504 274.779 405.257 273.755 419.294 281.867L733.358 462.642C747.396 470.754 745.624 485.041 729.398 494.4L447.508 657.149C431.311 666.507 406.558 667.532 392.52 659.419Z" fill="url(#paint0_radial)"/>
</g>
<g opacity="0.7">
<g opacity="0.7">
<g opacity="0.7">
<g opacity="0.7">
<path opacity="0.7" d="M158.515 624.616L233.023 581.616L309.359 573.753L369.773 608.64L423.322 606.48L469.727 579.706" stroke="white" stroke-width="0.5349" stroke-miterlimit="10"/>
</g>
<g opacity="0.7">
<path opacity="0.7" d="M307.088 589.535L365.787 623.425L428.61 620.905L509.071 574.445" stroke="white" stroke-width="0.5349" stroke-miterlimit="10"/>
</g>
<path opacity="0.7" d="M473.243 581.173C471.554 582.142 468.84 582.142 467.152 581.173C465.463 580.204 465.463 578.626 467.152 577.657C468.84 576.688 471.554 576.688 473.243 577.657C474.904 578.626 474.904 580.204 473.243 581.173Z" fill="white"/>
<path opacity="0.7" d="M512.588 575.94C510.899 576.909 508.185 576.909 506.496 575.94C504.807 574.971 504.807 573.393 506.496 572.424C508.185 571.455 510.899 571.455 512.588 572.424C514.249 573.393 514.249 574.971 512.588 575.94Z" fill="white"/>
<path opacity="0.7" d="M431.906 622.511C430.217 623.48 427.504 623.48 425.815 622.511C424.126 621.542 424.126 619.964 425.815 618.995C427.504 618.026 430.217 618.026 431.906 618.995C433.595 619.964 433.595 621.542 431.906 622.511Z" fill="white"/>
<path opacity="0.7" d="M423.316 608.972C425.702 608.972 427.635 607.856 427.635 606.48C427.635 605.104 425.702 603.988 423.316 603.988C420.931 603.988 418.997 605.104 418.997 606.48C418.997 607.856 420.931 608.972 423.316 608.972Z" fill="white"/>
<path opacity="0.7" d="M312.208 575.746C310.519 576.715 307.805 576.715 306.116 575.746C304.427 574.777 304.427 573.199 306.116 572.23C307.805 571.261 310.519 571.261 312.208 572.23C313.897 573.199 313.897 574.777 312.208 575.746Z" fill="white"/>
<path opacity="0.7" d="M310.133 591.279C308.444 592.248 305.73 592.248 304.041 591.279C302.352 590.31 302.352 588.732 304.041 587.763C305.73 586.794 308.444 586.794 310.133 587.763C311.822 588.76 311.822 590.31 310.133 591.279Z" fill="white"/>
<path opacity="0.7" d="M161.559 626.387C159.87 627.356 157.156 627.356 155.467 626.387C153.778 625.418 153.778 623.84 155.467 622.871C157.156 621.902 159.87 621.902 161.559 622.871C163.248 623.84 163.248 625.418 161.559 626.387Z" fill="white"/>
</g>
<g opacity="0.7">
<g opacity="0.7">
<path opacity="0.7" d="M633.389 685.058L558.881 642.059L482.545 634.195L422.13 669.082L368.582 666.922L322.177 640.12" stroke="white" stroke-width="0.5349" stroke-miterlimit="10"/>
</g>
<g opacity="0.7">
<path opacity="0.7" d="M484.811 649.977L426.113 683.867L363.289 681.348L282.828 634.887" stroke="white" stroke-width="0.5349" stroke-miterlimit="10"/>
</g>
<path opacity="0.7" d="M318.662 641.616C320.351 642.585 323.064 642.585 324.753 641.616C326.442 640.647 326.442 639.069 324.753 638.1C323.064 637.131 320.351 637.131 318.662 638.1C317 639.069 317 640.647 318.662 641.616Z" fill="white"/>
<path opacity="0.7" d="M279.317 636.382C281.006 637.351 283.719 637.351 285.408 636.382C287.097 635.413 287.097 633.835 285.408 632.866C283.719 631.897 281.006 631.897 279.317 632.866C277.656 633.835 277.656 635.413 279.317 636.382Z" fill="white"/>
<path opacity="0.7" d="M359.999 682.954C361.688 683.923 364.401 683.923 366.09 682.954C367.779 681.985 367.779 680.406 366.09 679.437C364.401 678.468 361.688 678.468 359.999 679.437C358.31 680.406 358.31 681.985 359.999 682.954Z" fill="white"/>
<path opacity="0.7" d="M365.536 668.667C367.225 669.636 369.938 669.636 371.627 668.667C373.316 667.698 373.316 666.119 371.627 665.15C369.938 664.181 367.225 664.181 365.536 665.15C363.847 666.119 363.847 667.698 365.536 668.667Z" fill="white"/>
<path opacity="0.7" d="M479.697 636.189C481.386 637.158 484.099 637.158 485.788 636.189C487.477 635.22 487.477 633.642 485.788 632.673C484.099 631.704 481.386 631.704 479.697 632.673C478.008 633.642 478.008 635.22 479.697 636.189Z" fill="white"/>
<path opacity="0.7" d="M481.772 651.722C483.461 652.691 486.174 652.691 487.863 651.722C489.552 650.753 489.552 649.174 487.863 648.205C486.174 647.236 483.461 647.236 481.772 648.205C480.111 649.174 480.111 650.753 481.772 651.722Z" fill="white"/>
<path opacity="0.7" d="M630.346 686.83C632.035 687.799 634.748 687.799 636.437 686.83C638.126 685.861 638.126 684.283 636.437 683.314C634.748 682.345 632.035 682.345 630.346 683.314C628.657 684.283 628.657 685.861 630.346 686.83Z" fill="white"/>
</g>
<g opacity="0.7">
<g opacity="0.7">
<path opacity="0.7" d="M365.785 580.287L291.305 537.288L214.942 529.425L154.527 564.311L100.979 562.152L54.6016 535.377" stroke="white" stroke-width="0.5349" stroke-miterlimit="10"/>
</g>
<g opacity="0.7">
<path opacity="0.7" d="M217.242 545.207L158.543 579.097L95.6919 576.577L15.231 530.117" stroke="white" stroke-width="0.5349" stroke-miterlimit="10"/>
</g>
<path opacity="0.7" d="M51.0885 536.845C52.7775 537.814 55.4908 537.814 57.1798 536.845C58.8688 535.876 58.8688 534.297 57.1798 533.328C55.4908 532.359 52.7775 532.359 51.0885 533.328C49.3996 534.297 49.3996 535.876 51.0885 536.845Z" fill="white"/>
<path opacity="0.7" d="M11.7402 531.612C13.4292 532.581 16.1426 532.581 17.8316 531.612C19.5206 530.643 19.5206 529.065 17.8316 528.096C16.1426 527.127 13.4292 527.127 11.7402 528.096C10.0513 529.065 10.0513 530.643 11.7402 531.612Z" fill="white"/>
<path opacity="0.7" d="M92.3909 578.183C94.0799 579.152 96.7933 579.152 98.4823 578.183C100.171 577.214 100.171 575.636 98.4823 574.667C96.7933 573.697 94.0799 573.697 92.3909 574.667C90.702 575.636 90.7297 577.214 92.3909 578.183Z" fill="white"/>
<path opacity="0.7" d="M97.9281 563.924C99.6171 564.893 102.331 564.893 104.019 563.924C105.708 562.954 105.708 561.376 104.019 560.407C102.331 559.438 99.6171 559.438 97.9281 560.407C96.2392 561.376 96.2392 562.927 97.9281 563.924Z" fill="white"/>
<path opacity="0.7" d="M212.089 531.418C213.778 532.387 216.491 532.387 218.18 531.418C219.869 530.449 219.869 528.871 218.18 527.902C216.491 526.933 213.778 526.933 212.089 527.902C210.4 528.871 210.4 530.449 212.089 531.418Z" fill="white"/>
<path opacity="0.7" d="M214.195 546.978C215.884 547.948 218.598 547.948 220.287 546.978C221.976 546.009 221.976 544.431 220.287 543.462C218.598 542.493 215.884 542.493 214.195 543.462C212.506 544.431 212.506 545.982 214.195 546.978Z" fill="white"/>
<path opacity="0.7" d="M362.738 582.059C364.427 583.028 367.14 583.028 368.829 582.059C370.518 581.09 370.518 579.512 368.829 578.543C367.14 577.574 364.427 577.574 362.738 578.543C361.077 579.512 361.077 581.09 362.738 582.059Z" fill="white"/>
</g>
</g>
</g>
<g opacity="0.7">
<g opacity="0.7">
<g opacity="0.7">
<g opacity="0.7">
<path opacity="0.7" d="M894.048 436.449L819.567 393.422L743.204 385.559L682.789 420.445L629.241 418.286L582.836 391.512" stroke="white" stroke-width="0.5349" stroke-miterlimit="10"/>
</g>
<g opacity="0.7">
<path opacity="0.7" d="M745.474 401.341L686.804 435.231L623.952 432.711L543.491 386.251" stroke="white" stroke-width="0.5349" stroke-miterlimit="10"/>
</g>
<path opacity="0.7" d="M582.363 393.727C584.748 393.727 586.682 392.611 586.682 391.235C586.682 389.859 584.748 388.743 582.363 388.743C579.977 388.743 578.044 389.859 578.044 391.235C578.044 392.611 579.977 393.727 582.363 393.727Z" fill="white"/>
<path opacity="0.7" d="M539.976 387.746C541.665 388.715 544.378 388.715 546.067 387.746C547.756 386.777 547.756 385.199 546.067 384.23C544.378 383.261 541.665 383.261 539.976 384.23C538.315 385.199 538.315 386.777 539.976 387.746Z" fill="white"/>
<path opacity="0.7" d="M620.658 434.345C622.347 435.314 625.06 435.314 626.749 434.345C628.438 433.376 628.438 431.797 626.749 430.828C625.06 429.859 622.347 429.859 620.658 430.828C618.969 431.797 618.969 433.348 620.658 434.345Z" fill="white"/>
<path opacity="0.7" d="M626.198 420.058C627.887 421.027 630.601 421.027 632.29 420.058C633.979 419.089 633.979 417.51 632.29 416.541C630.601 415.572 627.887 415.572 626.198 416.541C624.509 417.51 624.509 419.089 626.198 420.058Z" fill="white"/>
<path opacity="0.7" d="M740.356 387.552C742.045 388.521 744.758 388.521 746.447 387.552C748.136 386.583 748.136 385.005 746.447 384.036C744.758 383.067 742.045 383.067 740.356 384.036C738.667 385.005 738.667 386.583 740.356 387.552Z" fill="white"/>
<path opacity="0.7" d="M742.431 403.113C744.12 404.082 746.833 404.082 748.522 403.113C750.211 402.144 750.211 400.566 748.522 399.596C746.833 398.627 744.12 398.627 742.431 399.596C740.77 400.566 740.77 402.144 742.431 403.113Z" fill="white"/>
<path opacity="0.7" d="M891.005 438.193C892.694 439.162 895.407 439.162 897.096 438.193C898.785 437.224 898.785 435.646 897.096 434.677C895.407 433.708 892.694 433.708 891.005 434.677C889.316 435.646 889.316 437.224 891.005 438.193Z" fill="white"/>
</g>
<g opacity="0.7">
<g opacity="0.7">
<path opacity="0.7" d="M529.854 501.571L604.362 458.572L680.725 450.681L741.14 485.567" stroke="white" stroke-width="0.5349" stroke-miterlimit="10"/>
</g>
<g opacity="0.7">
<path opacity="0.7" d="M678.427 466.49L737.125 500.353" stroke="white" stroke-width="0.5349" stroke-miterlimit="10"/>
</g>
<path opacity="0.7" d="M683.578 452.674C681.889 453.643 679.176 453.643 677.487 452.674C675.798 451.705 675.798 450.127 677.487 449.158C679.176 448.189 681.889 448.189 683.578 449.158C685.24 450.127 685.24 451.705 683.578 452.674Z" fill="white"/>
<path opacity="0.7" d="M678.419 468.982C680.805 468.982 682.739 467.867 682.739 466.49C682.739 465.114 680.805 463.999 678.419 463.999C676.034 463.999 674.1 465.114 674.1 466.49C674.1 467.867 676.034 468.982 678.419 468.982Z" fill="white"/>
<path opacity="0.7" d="M532.895 503.343C531.206 504.312 528.492 504.312 526.803 503.343C525.114 502.374 525.114 500.796 526.803 499.827C528.492 498.858 531.206 498.858 532.895 499.827C534.584 500.796 534.584 502.346 532.895 503.343Z" fill="white"/>
</g>
<g opacity="0.7">
<g opacity="0.7">
<path opacity="0.7" d="M538.547 544.404L613.027 501.377L689.39 493.513L749.805 528.4" stroke="white" stroke-width="0.5349" stroke-miterlimit="10"/>
</g>
<g opacity="0.7">
<path opacity="0.7" d="M687.086 509.296L745.784 543.186" stroke="white" stroke-width="0.5349" stroke-miterlimit="10"/>
</g>
<path opacity="0.7" d="M692.237 495.507C690.548 496.476 687.835 496.476 686.146 495.507C684.457 494.538 684.457 492.96 686.146 491.991C687.835 491.022 690.548 491.022 692.237 491.991C693.926 492.96 693.926 494.538 692.237 495.507Z" fill="white"/>
<path opacity="0.7" d="M690.131 511.068C688.442 512.037 685.729 512.037 684.04 511.068C682.351 510.099 682.351 508.52 684.04 507.551C685.729 506.582 688.442 506.582 690.131 507.551C691.82 508.52 691.82 510.099 690.131 511.068Z" fill="white"/>
<path opacity="0.7" d="M541.588 546.148C539.899 547.117 537.186 547.117 535.497 546.148C533.808 545.179 533.808 543.601 535.497 542.632C537.186 541.663 539.899 541.663 541.588 542.632C543.25 543.601 543.25 545.179 541.588 546.148Z" fill="white"/>
</g>
</g>
</g>
<g opacity="0.7">
<g opacity="0.7">
<g opacity="0.7">
<g opacity="0.7">
<path opacity="0.7" d="M148.043 297.788L222.551 340.815L298.886 348.678L359.329 313.791L412.877 315.951L459.254 342.725" stroke="white" stroke-width="0.5349" stroke-miterlimit="10"/>
</g>
<g opacity="0.7">
<path opacity="0.7" d="M296.616 332.896L355.314 299.006L418.166 301.526L498.599 347.986" stroke="white" stroke-width="0.5349" stroke-miterlimit="10"/>
</g>
<path opacity="0.7" d="M462.77 341.23C461.081 340.261 458.368 340.261 456.679 341.23C454.99 342.2 454.99 343.778 456.679 344.747C458.368 345.716 461.081 345.716 462.77 344.747C464.459 343.778 464.459 342.227 462.77 341.23Z" fill="white"/>
<path opacity="0.7" d="M502.118 346.491C500.429 345.522 497.716 345.522 496.027 346.491C494.338 347.46 494.338 349.038 496.027 350.007C497.716 350.976 500.429 350.976 502.118 350.007C503.807 349.038 503.807 347.46 502.118 346.491Z" fill="white"/>
<path opacity="0.7" d="M421.433 299.92C419.744 298.951 417.031 298.951 415.342 299.92C413.653 300.889 413.653 302.467 415.342 303.437C417.031 304.406 419.744 304.406 421.433 303.437C423.122 302.467 423.122 300.889 421.433 299.92Z" fill="white"/>
<path opacity="0.7" d="M415.917 314.179C414.228 313.21 411.514 313.21 409.825 314.179C408.136 315.149 408.136 316.727 409.825 317.696C411.514 318.665 414.228 318.665 415.917 317.696C417.578 316.727 417.578 315.149 415.917 314.179Z" fill="white"/>
<path opacity="0.7" d="M301.769 346.685C300.081 345.716 297.367 345.716 295.678 346.685C293.989 347.654 293.989 349.232 295.678 350.201C297.367 351.17 300.081 351.17 301.769 350.201C303.431 349.232 303.431 347.654 301.769 346.685Z" fill="white"/>
<path opacity="0.7" d="M299.66 331.124C297.971 330.155 295.257 330.155 293.568 331.124C291.88 332.093 291.88 333.672 293.568 334.641C295.257 335.61 297.971 335.61 299.66 334.641C301.349 333.672 301.349 332.093 299.66 331.124Z" fill="white"/>
<path opacity="0.7" d="M151.086 296.044C149.397 295.075 146.684 295.075 144.995 296.044C143.306 297.013 143.306 298.591 144.995 299.56C146.684 300.529 149.397 300.529 151.086 299.56C152.775 298.591 152.775 297.013 151.086 296.044Z" fill="white"/>
</g>
<g opacity="0.7">
<g opacity="0.7">
<path opacity="0.7" d="M622.906 237.345L548.426 280.372L472.063 288.236L411.648 253.349L358.099 255.509L311.722 282.283" stroke="white" stroke-width="0.5349" stroke-miterlimit="10"/>
</g>
<g opacity="0.7">
<path opacity="0.7" d="M474.37 272.454L415.672 238.564L352.82 241.084L272.359 287.544" stroke="white" stroke-width="0.5349" stroke-miterlimit="10"/>
</g>
<path opacity="0.7" d="M308.213 280.815C309.902 279.846 312.615 279.846 314.304 280.815C315.993 281.785 315.993 283.363 314.304 284.332C312.615 285.301 309.902 285.301 308.213 284.332C306.524 283.363 306.524 281.785 308.213 280.815Z" fill="white"/>
<path opacity="0.7" d="M268.864 286.049C270.553 285.08 273.267 285.08 274.956 286.049C276.645 287.018 276.645 288.596 274.956 289.565C273.267 290.534 270.553 290.534 268.864 289.565C267.175 288.596 267.175 287.018 268.864 286.049Z" fill="white"/>
<path opacity="0.7" d="M349.518 239.478C351.207 238.508 353.921 238.508 355.61 239.478C357.299 240.447 357.299 242.025 355.61 242.994C353.921 243.963 351.207 243.963 349.518 242.994C347.857 242.025 347.857 240.447 349.518 239.478Z" fill="white"/>
<path opacity="0.7" d="M355.052 253.737C356.741 252.768 359.455 252.768 361.144 253.737C362.833 254.706 362.833 256.284 361.144 257.253C359.455 258.223 356.741 258.223 355.052 257.253C353.363 256.284 353.363 254.706 355.052 253.737Z" fill="white"/>
<path opacity="0.7" d="M469.213 286.242C470.902 285.273 473.616 285.273 475.304 286.242C476.993 287.212 476.993 288.79 475.304 289.759C473.616 290.728 470.902 290.728 469.213 289.759C467.524 288.79 467.524 287.212 469.213 286.242Z" fill="white"/>
<path opacity="0.7" d="M474.362 274.946C476.747 274.946 478.681 273.83 478.681 272.454C478.681 271.078 476.747 269.962 474.362 269.962C471.976 269.962 470.042 271.078 470.042 272.454C470.042 273.83 471.976 274.946 474.362 274.946Z" fill="white"/>
<path opacity="0.7" d="M619.862 235.601C621.551 234.632 624.264 234.632 625.953 235.601C627.642 236.57 627.642 238.149 625.953 239.118C624.264 240.087 621.551 240.087 619.862 239.118C618.201 238.149 618.201 236.57 619.862 235.601Z" fill="white"/>
</g>
<g opacity="0.7">
<g opacity="0.7">
<path opacity="0.7" d="M355.34 342.116L280.832 385.143L204.496 393.007L144.054 358.12L90.5053 360.28L44.1282 387.054" stroke="white" stroke-width="0.5349" stroke-miterlimit="10"/>
</g>
<g opacity="0.7">
<path opacity="0.7" d="M206.763 377.224L148.065 343.334L85.2131 345.854L4.77991 392.314" stroke="white" stroke-width="0.5349" stroke-miterlimit="10"/>
</g>
<path opacity="0.7" d="M40.6152 385.559C42.3041 384.59 45.0175 384.59 46.7064 385.559C48.3954 386.528 48.3954 388.106 46.7064 389.075C45.0175 390.044 42.3041 390.044 40.6152 389.075C38.9262 388.106 38.9262 386.528 40.6152 385.559Z" fill="white"/>
<path opacity="0.7" d="M1.26684 390.82C2.9558 389.851 5.66925 389.851 7.35821 390.82C9.04716 391.789 9.04716 393.367 7.35821 394.336C5.66925 395.305 2.9558 395.305 1.26684 394.336C-0.422118 393.367 -0.422118 391.789 1.26684 390.82Z" fill="white"/>
<path opacity="0.7" d="M81.9521 344.248C83.6411 343.279 86.3545 343.279 88.0434 344.248C89.7324 345.217 89.7324 346.796 88.0434 347.765C86.3545 348.734 83.6411 348.734 81.9521 347.765C80.2632 346.796 80.2632 345.217 81.9521 344.248Z" fill="white"/>
<path opacity="0.7" d="M87.4582 358.508C89.1471 357.538 91.8606 357.538 93.5495 358.508C95.2385 359.477 95.2385 361.055 93.5495 362.024C91.8606 362.993 89.1471 362.993 87.4582 362.024C85.7969 361.055 85.7969 359.477 87.4582 358.508Z" fill="white"/>
<path opacity="0.7" d="M201.616 391.013C203.305 390.044 206.018 390.044 207.707 391.013C209.396 391.982 209.396 393.561 207.707 394.53C206.018 395.499 203.305 395.499 201.616 394.53C199.954 393.561 199.954 391.982 201.616 391.013Z" fill="white"/>
<path opacity="0.7" d="M203.722 375.453C205.411 374.484 208.124 374.484 209.813 375.453C211.502 376.422 211.502 378 209.813 378.969C208.124 379.938 205.411 379.938 203.722 378.969C202.033 378 202.033 376.422 203.722 375.453Z" fill="white"/>
<path opacity="0.7" d="M355.338 344.608C357.723 344.608 359.657 343.493 359.657 342.116C359.657 340.74 357.723 339.625 355.338 339.625C352.952 339.625 351.019 340.74 351.019 342.116C351.019 343.493 352.952 344.608 355.338 344.608Z" fill="white"/>
</g>
</g>
</g>
<path d="M402.687 224.986C368.603 224.986 340.998 193.422 340.998 154.493C340.998 115.564 368.631 83.9998 402.687 83.9998C436.771 83.9998 464.376 115.564 464.376 154.493C464.376 193.422 436.743 224.986 402.687 224.986Z" fill="url(#paint1_linear)"/>
<g filter="url(#filter0_d)">
<path d="M444.034 153.446L450.946 140.562L445.498 138.837L439.941 150.187L435.591 135.702L428.165 133.351L434.104 152.782L429.105 171.692L436.354 172.896L439.897 158.218L447.561 175.295L454.693 176.323L444.034 153.446Z" fill="white"/>
<path d="M444.034 153.446L450.946 140.562L445.498 138.837L439.941 150.187L435.591 135.702L428.165 133.351L434.104 152.782L429.105 171.692L436.354 172.896L439.897 158.218L447.561 175.295L454.693 176.323L444.034 153.446Z" stroke="#3BC3C3"/>
</g>
<g filter="url(#filter1_d)">
<path d="M400.133 171.028L397.757 127.052C397.757 127.052 415.786 131.591 418.364 134.291C420.941 136.991 422.481 138.054 422.838 143.566C423.195 149.079 418.025 150.857 418.025 150.857L426.675 173.186L419.659 172.276L413.611 153.7L406.396 152.438C406.018 159.905 406.051 164.051 407.296 171.445L400.133 171.028Z" fill="white"/>
<path d="M400.133 171.028L397.757 127.052C397.757 127.052 415.786 131.591 418.364 134.291C420.941 136.991 422.481 138.054 422.838 143.566C423.195 149.079 418.025 150.857 418.025 150.857L426.675 173.186L419.659 172.276L413.611 153.7L406.396 152.438C406.018 159.905 406.051 164.051 407.296 171.445L400.133 171.028Z" stroke="#3BC3C3"/>
</g>
<g filter="url(#filter2_i)">
<path d="M404.623 134.39L405.337 143.499C405.337 143.499 411.283 145.707 412.894 145.468C415.055 145.147 415.46 142.916 415.144 140.791C414.845 138.773 414.003 138.065 413.178 137.463C411.873 136.512 404.623 134.39 404.623 134.39Z" fill="#3BC3C3"/>
</g>
<path d="M404.623 134.39L405.337 143.499C405.337 143.499 411.283 145.707 412.894 145.468C415.055 145.147 415.46 142.916 415.144 140.791C414.845 138.773 414.003 138.065 413.178 137.463C411.873 136.512 404.623 134.39 404.623 134.39Z" stroke="#3BC3C3"/>
<g filter="url(#filter3_d)">
<path d="M363.996 133.002L362.96 121.321L394.336 129.384L395.466 139.541L384.504 137.034L387.326 172.173L376.535 172.145L375.483 135.417L363.996 133.002Z" fill="white"/>
<path d="M363.996 133.002L362.96 121.321L394.336 129.384L395.466 139.541L384.504 137.034L387.326 172.173L376.535 172.145L375.483 135.417L363.996 133.002Z" stroke="#3BC3C3"/>
</g>
<path d="M402.685 225.986C368.602 225.986 340.997 194.422 340.997 155.493C340.997 116.564 368.629 84.9995 402.685 84.9995C436.769 84.9995 464.374 116.564 464.374 155.493C464.374 194.422 436.741 225.986 402.685 225.986Z" fill="url(#paint2_linear)"/>
<path d="M346.888 157.074C346.888 121.052 370.533 91.3709 401.017 87.107C398.553 86.7471 396.034 86.5532 393.459 86.5532C359.375 86.5532 331.77 118.117 331.77 157.047C331.77 195.976 359.403 227.54 393.459 227.54C396.006 227.54 398.526 227.346 401.017 226.986C370.505 222.778 346.888 193.096 346.888 157.074Z" fill="url(#paint3_linear)"/>
<g opacity="0.5">
<path opacity="0.5" d="M346.86 159.594H331.77C331.826 161.283 331.909 162.972 332.075 164.633H347.192C347.026 162.972 346.915 161.31 346.86 159.594Z" fill="url(#paint4_linear)"/>
<path opacity="0.5" d="M347.438 147.023H332.348C332.127 148.685 331.988 150.374 331.877 152.063H346.995C347.106 150.346 347.244 148.685 347.438 147.023Z" fill="url(#paint5_linear)"/>
<path opacity="0.5" d="M348.24 172.192H333.122C333.455 173.881 333.815 175.57 334.258 177.231H349.375C348.96 175.57 348.572 173.909 348.24 172.192Z" fill="url(#paint6_linear)"/>
<path opacity="0.5" d="M351.789 184.79H336.671C337.308 186.506 338.028 188.195 338.775 189.829H353.893C353.118 188.168 352.425 186.506 351.789 184.79Z" fill="url(#paint7_linear)"/>
<path opacity="0.5" d="M350.071 134.426H334.981C334.482 136.087 334.039 137.748 333.652 139.465H348.769C349.157 137.748 349.6 136.059 350.071 134.426Z" fill="url(#paint8_linear)"/>
<path opacity="0.5" d="M355.086 121.828H339.969C339.138 123.461 338.363 125.15 337.643 126.867H352.76C353.48 125.15 354.256 123.461 355.086 121.828Z" fill="url(#paint9_linear)"/>
<path opacity="0.5" d="M365.359 106.738H350.242C348.802 108.344 347.445 110.005 346.144 111.777H361.262C362.563 110.005 363.947 108.316 365.359 106.738Z" fill="url(#paint10_linear)"/>
<path opacity="0.5" d="M380.773 94.1396H365.628C363.053 95.6348 360.589 97.2961 358.235 99.1789H373.353C375.706 97.2961 378.17 95.6071 380.773 94.1396Z" fill="url(#paint11_linear)"/>
<path opacity="0.5" d="M359.508 199.88H344.391C345.553 201.624 346.799 203.313 348.101 204.919H363.218C361.917 203.313 360.671 201.624 359.508 199.88Z" fill="url(#paint12_linear)"/>
<path opacity="0.5" d="M355.271 212.478C357.292 214.305 359.424 215.994 361.639 217.517H376.785C374.57 215.994 372.41 214.305 370.389 212.478H355.271Z" fill="url(#paint13_linear)"/>
</g>
<path opacity="0.6" d="M410.961 213.281C438.486 213.281 460.799 188.129 460.799 157.102C460.799 126.075 438.486 100.923 410.961 100.923C383.436 100.923 361.123 126.075 361.123 157.102C361.123 188.129 383.436 213.281 410.961 213.281Z" stroke="url(#paint14_linear)" stroke-width="1.0818" stroke-miterlimit="10"/>
<path opacity="0.6" d="M411.036 208.057C436.038 208.057 456.306 185.211 456.306 157.028C456.306 128.846 436.038 106 411.036 106C386.034 106 365.766 128.846 365.766 157.028C365.766 185.211 386.034 208.057 411.036 208.057Z" stroke="url(#paint15_linear)" stroke-width="0.3152" stroke-miterlimit="10"/>
<path d="M286.252 62.2711C294.475 71.7957 295.001 85.0582 287.913 93.1707C288.661 92.7 289.353 92.174 290.045 91.5925C299.072 83.8122 299.155 69.1377 290.267 58.8378C281.379 48.5379 266.843 46.489 257.817 54.2693C257.152 54.8507 256.515 55.4875 255.934 56.1521C264.988 50.2822 278.029 52.7465 286.252 62.2711Z" fill="url(#paint16_linear)"/>
<g opacity="0.5">
<path opacity="0.5" d="M286.831 62.9353C287.219 63.406 287.551 63.8768 287.911 64.3475L291.926 60.8865C291.594 60.4158 291.234 59.9451 290.846 59.4744L286.831 62.9353Z" fill="url(#paint17_linear)"/>
<path opacity="0.5" d="M283.816 59.7239C284.259 60.1116 284.674 60.5268 285.089 60.9422L289.076 57.4812C288.661 57.0659 288.246 56.6506 287.803 56.2629L283.816 59.7239Z" fill="url(#paint18_linear)"/>
<path opacity="0.5" d="M289.353 66.5905C289.657 67.1166 289.934 67.6426 290.211 68.1687L294.198 64.7077C293.921 64.1816 293.644 63.6279 293.34 63.1018L289.353 66.5905Z" fill="url(#paint19_linear)"/>
<path opacity="0.5" d="M291.29 70.716C291.511 71.3251 291.705 71.9342 291.871 72.5157L295.858 69.0547C295.692 68.4456 295.498 67.8364 295.277 67.2273L291.29 70.716Z" fill="url(#paint20_linear)"/>
<path opacity="0.5" d="M280.246 57.0103C280.745 57.3426 281.243 57.6748 281.741 58.0348L285.756 54.5738C285.258 54.2139 284.759 53.8816 284.261 53.5493L280.246 57.0103Z" fill="url(#paint21_linear)"/>
<path opacity="0.5" d="M276.027 54.823C276.608 55.0722 277.217 55.3214 277.799 55.626L281.814 52.165C281.232 51.8604 280.651 51.6113 280.042 51.3621L276.027 54.823Z" fill="url(#paint22_linear)"/>
<path opacity="0.5" d="M269.864 53.1619C270.611 53.245 271.359 53.3834 272.106 53.5495L276.121 50.0886C275.374 49.9224 274.626 49.784 273.878 49.7009L269.864 53.1619Z" fill="url(#paint23_linear)"/>
<path opacity="0.5" d="M262.908 53.3556C263.933 53.1618 264.957 53.051 266.009 52.9957L270.024 49.5347C268.972 49.59 267.948 49.7008 266.923 49.8946L262.908 53.3556Z" fill="url(#paint24_linear)"/>
<path opacity="0.5" d="M292.704 76.5025C292.787 77.2224 292.843 77.9699 292.87 78.6898L296.885 75.2288C296.857 74.5089 296.802 73.7891 296.719 73.0415L292.704 76.5025Z" fill="url(#paint25_linear)"/>
<path opacity="0.5" d="M292.698 82.2894C292.587 83.2307 292.393 84.1721 292.144 85.0858L296.159 81.6248C296.408 80.7111 296.574 79.7698 296.685 78.8284L292.698 82.2894Z" fill="url(#paint26_linear)"/>
</g>
<path d="M282.85 91.4264C282.49 91.731 281.964 91.6756 281.631 91.3156C281.327 90.9557 281.382 90.3743 281.742 90.042C282.157 89.6821 282.545 89.2944 282.905 88.9068C283.237 88.5469 283.791 88.5192 284.151 88.8514C284.511 89.1837 284.539 89.7374 284.206 90.0974C283.791 90.5404 283.348 90.9834 282.877 91.3987L282.85 91.4264ZM278.336 94.0567C278.253 94.1121 278.17 94.1675 278.06 94.2229C277.478 94.4444 276.897 94.6105 276.288 94.7489C275.817 94.8597 275.346 94.5828 275.235 94.1121C275.125 93.6414 275.402 93.1707 275.872 93.06C276.398 92.9215 276.924 92.7831 277.451 92.5893C277.894 92.4232 278.42 92.6447 278.586 93.1154C278.724 93.4476 278.613 93.8352 278.336 94.0567ZM286.92 85.7504C286.671 85.9719 286.338 86.0273 286.006 85.8888C285.563 85.695 285.342 85.1966 285.535 84.7536C285.757 84.2552 285.923 83.7292 286.061 83.2031C286.2 82.7324 286.671 82.4555 287.141 82.594C287.612 82.7324 287.889 83.2031 287.75 83.6738C287.584 84.2552 287.39 84.8367 287.141 85.4181C287.114 85.5566 287.03 85.6673 286.92 85.7504ZM271.47 94.9704C271.304 95.1089 271.082 95.192 270.833 95.192C270.224 95.1366 269.615 95.0535 269.006 94.9704C268.535 94.8874 268.203 94.4167 268.286 93.946C268.369 93.4753 268.84 93.143 269.31 93.2261C269.864 93.3092 270.418 93.3922 270.944 93.4476C271.442 93.4753 271.802 93.9183 271.747 94.389C271.747 94.6105 271.636 94.8043 271.47 94.9704ZM288.138 78.9392C288 79.0776 287.806 79.1607 287.584 79.1607C287.086 79.1607 286.698 78.8007 286.671 78.3023C286.671 77.7486 286.615 77.1948 286.56 76.6411C286.504 76.1704 286.837 75.7274 287.335 75.672C287.806 75.6166 288.249 75.9489 288.304 76.4473C288.387 77.0564 288.415 77.6655 288.443 78.2747C288.443 78.5239 288.332 78.773 288.138 78.9392ZM264.769 93.1154C264.52 93.3369 264.133 93.3922 263.8 93.2538C263.247 93.0046 262.721 92.7 262.194 92.3955C261.779 92.1463 261.641 91.6202 261.89 91.1772C262.139 90.7619 262.665 90.6235 263.108 90.8727C263.579 91.1495 264.077 91.4264 264.576 91.6479C265.019 91.8694 265.212 92.3955 264.991 92.8108C264.936 92.9492 264.88 93.06 264.769 93.1154ZM286.698 72.128C286.615 72.1833 286.532 72.2387 286.449 72.2664C286.006 72.4602 285.48 72.2387 285.314 71.768C285.12 71.2419 284.871 70.7435 284.622 70.2452C284.4 69.8022 284.566 69.2761 285.009 69.0546C285.452 68.8331 285.978 68.9992 286.2 69.4422C286.477 69.996 286.726 70.5497 286.947 71.1035C287.086 71.4911 286.975 71.9065 286.698 72.128ZM259.121 89.1006C258.789 89.4052 258.263 89.3775 257.931 89.0452C257.515 88.6299 257.128 88.2146 256.74 87.7716L256.712 87.7162C256.408 87.3563 256.463 86.8025 256.823 86.498C257.183 86.1934 257.764 86.2488 258.097 86.6087C258.457 87.024 258.817 87.4117 259.204 87.7993C259.536 88.1316 259.564 88.713 259.204 89.0452C259.149 89.0729 259.121 89.1006 259.121 89.1006ZM283.071 66.2028C282.711 66.5073 282.13 66.4796 281.825 66.092C281.465 65.6767 281.078 65.2613 280.69 64.8737C280.358 64.5415 280.33 63.96 280.69 63.6278C281.022 63.2955 281.576 63.2678 281.936 63.6278C282.351 64.0431 282.767 64.4861 283.154 64.9291V64.9568C283.486 65.3444 283.431 65.8982 283.071 66.2028ZM255.023 83.48C254.968 83.5353 254.913 83.563 254.857 83.5907C254.414 83.8122 253.888 83.6461 253.667 83.2031C253.39 82.677 253.141 82.0956 252.919 81.5418C252.725 81.0988 252.947 80.5727 253.417 80.4066C253.86 80.2128 254.386 80.4343 254.553 80.905C254.746 81.4311 254.996 81.9295 255.245 82.4279C255.411 82.7878 255.328 83.2308 255.023 83.48ZM277.755 61.745C277.478 61.9942 277.063 62.0219 276.731 61.8281C276.26 61.5512 275.762 61.2743 275.263 61.0528C274.82 60.8313 274.626 60.3053 274.848 59.8899C275.069 59.4469 275.568 59.2531 276.011 59.4746C276.564 59.7238 277.091 60.0283 277.617 60.3329C278.032 60.5821 278.17 61.1082 277.921 61.5512C277.893 61.6066 277.81 61.6896 277.755 61.745ZM253.002 76.8349C252.864 76.9456 252.725 77.0287 252.531 77.0287C252.061 77.0841 251.618 76.7518 251.562 76.2534C251.479 75.6443 251.452 75.0352 251.424 74.4261C251.424 73.9277 251.784 73.54 252.282 73.5124C252.781 73.5124 253.168 73.8723 253.196 74.3707C253.196 74.9244 253.251 75.4782 253.307 76.032C253.334 76.3642 253.224 76.6411 253.002 76.8349ZM271.248 59.3361C271.055 59.5023 270.805 59.5854 270.529 59.53C269.975 59.4469 269.421 59.3638 268.895 59.3085C268.397 59.2808 268.037 58.8378 268.092 58.3671C268.12 57.8964 268.563 57.5087 269.033 57.5641C269.643 57.6195 270.252 57.6749 270.861 57.7856C271.331 57.8687 271.664 58.3117 271.581 58.8101C271.498 59.0316 271.387 59.1977 271.248 59.3361ZM253.528 69.9129C253.307 70.1067 253.002 70.1898 252.698 70.1068C252.227 69.9683 251.95 69.4699 252.088 69.0269C252.255 68.4454 252.476 67.8363 252.698 67.2826C252.891 66.8396 253.39 66.6181 253.833 66.8119C254.276 67.0057 254.497 67.5041 254.303 67.9748C254.082 68.4732 253.916 68.9992 253.75 69.5253C253.75 69.6637 253.667 69.8022 253.528 69.9129ZM264.299 59.5023C264.188 59.5854 264.077 59.6684 263.939 59.6961C263.413 59.8345 262.887 60.0007 262.361 60.1668C261.918 60.3329 261.392 60.1114 261.225 59.6407C261.059 59.1977 261.281 58.6717 261.751 58.5055C262.333 58.284 262.914 58.1179 263.524 57.9517C263.994 57.841 264.465 58.1179 264.576 58.5886C264.659 58.9762 264.548 59.3085 264.299 59.5023ZM256.906 63.877C256.574 64.1539 256.075 64.1538 255.743 63.8493C255.383 63.517 255.356 62.9633 255.688 62.6033C256.103 62.1603 256.518 61.745 256.989 61.3574L257.017 61.3297C257.377 61.0251 257.931 61.0528 258.235 61.4404C258.54 61.8004 258.512 62.3818 258.124 62.6864C257.709 63.0463 257.321 63.4063 256.961 63.7939C256.961 63.8216 256.934 63.8493 256.906 63.877Z" fill="url(#paint27_linear)"/>
<path d="M485.536 63.2712C471.886 51.8084 471.443 29.8796 484.539 14.2914C497.636 -1.2969 519.315 -4.64715 532.965 6.78794C546.615 18.2507 547.058 40.1795 533.962 55.7678C520.838 71.356 499.158 74.7063 485.536 63.2712Z" fill="url(#paint28_linear)"/>
<path d="M533.938 55.7675C521.838 70.1929 502.373 74.1246 488.723 65.569C489.609 66.5381 490.551 67.4795 491.575 68.3378C505.225 79.8006 526.905 76.4504 540.001 60.8344C553.098 45.2461 552.655 23.3174 539.005 11.8546C537.98 10.9963 536.9 10.221 535.793 9.52881C546.591 21.5177 546.065 41.3421 533.938 55.7675Z" fill="url(#paint29_linear)"/>
<g opacity="0.5">
<path opacity="0.5" d="M533.098 56.792C532.516 57.4565 531.907 58.0933 531.27 58.7025L537.334 63.797C537.943 63.1879 538.552 62.5511 539.161 61.8866L533.098 56.792Z" fill="url(#paint30_linear)"/>
<path opacity="0.5" d="M537.088 51.5312C536.618 52.2788 536.092 52.9987 535.566 53.6909L541.629 58.7578C542.155 58.0379 542.654 57.318 543.124 56.5705L537.088 51.5312Z" fill="url(#paint31_linear)"/>
<path opacity="0.5" d="M528.314 61.3606C527.622 61.942 526.902 62.4681 526.155 62.9942L532.218 68.0611C532.938 67.535 533.658 67.0089 534.378 66.4275L528.314 61.3606Z" fill="url(#paint32_linear)"/>
<path opacity="0.5" d="M522.667 65.2092C521.836 65.6799 520.978 66.1229 520.12 66.5106L526.183 71.6051C527.042 71.1898 527.9 70.7745 528.731 70.3038L522.667 65.2092Z" fill="url(#paint33_linear)"/>
<path opacity="0.5" d="M540.277 45.6062C539.917 46.4368 539.529 47.2398 539.114 48.0704L545.178 53.165C545.593 52.362 545.981 51.5314 546.341 50.7008L540.277 45.6062Z" fill="url(#paint34_linear)"/>
<path opacity="0.5" d="M542.514 38.8779C542.293 39.8193 542.044 40.733 541.739 41.6744L547.803 46.769C548.107 45.8276 548.357 44.9139 548.578 43.9725L542.514 38.8779Z" fill="url(#paint35_linear)"/>
<path opacity="0.5" d="M543.482 29.3809C543.51 30.5161 543.51 31.6236 543.427 32.7865L549.491 37.8811C549.574 36.7459 549.574 35.6106 549.546 34.5031L543.482 29.3809Z" fill="url(#paint36_linear)"/>
<path opacity="0.5" d="M541.546 19.1643C542.072 20.6318 542.515 22.1269 542.819 23.6774L548.883 28.772C548.578 27.2215 548.135 25.7263 547.609 24.2589L541.546 19.1643Z" fill="url(#paint37_linear)"/>
<path opacity="0.5" d="M514.491 68.6702C513.439 68.9747 512.387 69.2239 511.307 69.4454L517.371 74.54C518.423 74.3462 519.503 74.0693 520.555 73.7647L514.491 68.6702Z" fill="url(#paint38_linear)"/>
<path opacity="0.5" d="M505.911 70.0545C504.471 70.1098 503.059 70.0545 501.647 69.916L507.711 75.0106C509.123 75.149 510.535 75.1767 511.947 75.1213L505.911 70.0545Z" fill="url(#paint39_linear)"/>
</g>
<path d="M490.082 57.6783C489.528 57.2076 489.5 56.4046 489.971 55.8508C490.442 55.2971 491.3 55.2694 491.881 55.7124C492.518 56.2385 493.183 56.7369 493.847 57.1799C494.456 57.5952 494.622 58.3981 494.235 59.0073C493.847 59.6164 493.016 59.7825 492.407 59.3949C491.632 58.8965 490.884 58.3428 490.192 57.7336L490.082 57.6783ZM485.125 51.6423C485.015 51.5315 484.904 51.4208 484.821 51.2824C484.378 50.4794 483.963 49.6488 483.603 48.7904C483.326 48.1259 483.63 47.3507 484.295 47.0738C484.959 46.7969 485.735 47.1015 486.011 47.7937C486.316 48.5412 486.704 49.2888 487.091 50.0087C487.451 50.6455 487.23 51.4485 486.593 51.8084C486.122 52.0576 485.541 52.0022 485.125 51.6423ZM499.412 62.3575C499.052 62.0529 498.859 61.5546 498.969 61.0562C499.136 60.3363 499.828 59.8933 500.548 60.0594C501.35 60.2532 502.153 60.3917 502.984 60.4747C503.704 60.5578 504.23 61.2223 504.147 61.9422C504.064 62.6621 503.399 63.1881 502.68 63.1051C501.766 62.9943 500.852 62.8282 499.966 62.6344C499.772 62.579 499.578 62.4683 499.412 62.3575ZM482.163 41.7301C481.914 41.5086 481.72 41.204 481.692 40.8164C481.609 39.9304 481.581 38.9889 481.609 38.0753C481.609 37.3554 482.218 36.7739 482.938 36.7739C483.658 36.7739 484.239 37.383 484.239 38.1029C484.239 38.9336 484.239 39.7642 484.322 40.5949C484.378 41.3147 483.852 41.9515 483.104 42.0069C482.744 42.0623 482.412 41.9516 482.163 41.7301ZM509.795 62.5236C509.574 62.3298 509.408 62.0806 509.352 61.7484C509.214 61.0285 509.685 60.3363 510.404 60.1979C511.207 60.0594 512.01 59.8656 512.813 59.6164C513.506 59.4226 514.253 59.8102 514.447 60.5301C514.641 61.2223 514.253 61.9699 513.533 62.1637C512.647 62.4129 511.761 62.6344 510.875 62.8005C510.488 62.8836 510.072 62.7451 509.795 62.5236ZM483.27 31.4025C482.883 31.0702 482.689 30.5441 482.855 30.0181C483.104 29.1597 483.409 28.2738 483.741 27.4431C484.018 26.7786 484.766 26.4463 485.458 26.6955C486.122 26.9724 486.482 27.72 486.205 28.4122C485.901 29.1874 485.624 29.9904 485.402 30.7657C485.208 31.4579 484.461 31.8732 483.769 31.6517C483.575 31.5963 483.409 31.5132 483.27 31.4025ZM519.486 58.7858C519.375 58.7027 519.292 58.592 519.209 58.4535C518.822 57.8444 519.043 57.0138 519.652 56.6538C520.372 56.2385 521.064 55.7678 521.729 55.2694C522.31 54.8541 523.141 54.9649 523.556 55.574C523.971 56.1554 523.861 56.986 523.279 57.4014C522.559 57.9274 521.784 58.4258 521.009 58.8965C520.511 59.2011 519.901 59.118 519.486 58.7858ZM487.839 22.0717C487.313 21.6287 487.202 20.8534 487.617 20.2996C488.116 19.6075 488.669 18.8876 489.223 18.2231L489.279 18.1677C489.749 17.6139 490.552 17.5585 491.106 18.0292C491.66 18.4999 491.715 19.3583 491.244 19.912C490.718 20.5212 490.22 21.1857 489.749 21.8225C489.334 22.4039 488.503 22.5424 487.922 22.1271C487.894 22.1271 487.867 22.0994 487.839 22.0717ZM527.377 52.0022C526.823 51.5315 526.768 50.7009 527.239 50.1472C527.765 49.5103 528.263 48.8458 528.761 48.1813C529.177 47.5999 530.007 47.4614 530.589 47.8767C531.17 48.2921 531.309 49.1227 530.893 49.7041C530.367 50.424 529.814 51.1439 529.26 51.8361L529.232 51.8638C528.762 52.3899 527.931 52.4452 527.377 52.0022ZM495.176 14.7067C495.093 14.6513 495.01 14.5683 494.955 14.4575C494.539 13.8761 494.65 13.0454 495.259 12.6301C495.979 12.104 496.754 11.6057 497.53 11.135C498.166 10.7473 498.969 10.9688 499.329 11.578C499.689 12.1871 499.495 13.0177 498.886 13.3777C498.166 13.793 497.474 14.2637 496.81 14.7621C496.284 15.122 495.619 15.0666 495.176 14.7067ZM532.693 43.0867C532.278 42.7268 532.112 42.1454 532.306 41.5916C532.61 40.8164 532.887 40.0134 533.108 39.2381C533.302 38.5459 534.05 38.1306 534.742 38.3521C535.434 38.546 535.85 39.2935 535.628 39.9857C535.379 40.844 535.074 41.73 534.742 42.5607C534.465 43.2252 533.718 43.5851 533.025 43.3083C532.915 43.2252 532.804 43.1698 532.693 43.0867ZM504.507 10.1382C504.313 9.97208 504.175 9.75057 504.092 9.50138C503.898 8.80918 504.285 8.06162 505.005 7.8678C505.891 7.61861 506.777 7.3971 507.663 7.23097C508.383 7.09253 509.075 7.56322 509.186 8.2831C509.325 9.00299 508.854 9.69519 508.134 9.80595C507.331 9.94438 506.5 10.1382 505.725 10.3874C505.282 10.5258 504.839 10.4151 504.507 10.1382ZM534.714 32.8976C534.41 32.6484 534.244 32.2885 534.244 31.8732C534.244 31.0425 534.216 30.2119 534.161 29.3813C534.105 28.6614 534.631 28.0246 535.351 27.9692C536.071 27.9138 536.708 28.4399 536.763 29.1598C536.846 30.0458 536.874 30.9872 536.846 31.9009C536.846 32.6208 536.237 33.2022 535.517 33.2022C535.24 33.2022 534.936 33.0638 534.714 32.8976ZM514.862 9.27987C514.53 9.00299 514.336 8.55999 514.391 8.11698C514.475 7.3971 515.139 6.87104 515.859 6.98179C516.773 7.09254 517.686 7.25867 518.572 7.45248C519.292 7.61861 519.708 8.33849 519.541 9.03069C519.375 9.75057 518.655 10.1659 517.963 9.99976C517.16 9.80594 516.357 9.66749 515.527 9.55674C515.277 9.52906 515.028 9.41831 514.862 9.27987ZM532.776 22.7085C532.61 22.57 532.499 22.4039 532.416 22.2101C532.084 21.4625 531.724 20.715 531.337 19.9951C530.977 19.3583 531.198 18.5553 531.835 18.1954C532.472 17.8354 533.275 18.0569 533.635 18.6937C534.078 19.4967 534.493 20.3273 534.853 21.158C535.13 21.8225 534.825 22.5977 534.161 22.8746C533.662 23.0961 533.164 23.013 532.776 22.7085ZM524.581 12.7962C524.082 12.3809 523.944 11.6333 524.331 11.0519C524.719 10.4428 525.55 10.2766 526.159 10.692C526.906 11.1903 527.626 11.7164 528.318 12.2979L528.374 12.3255C528.928 12.7962 528.983 13.5992 528.512 14.1529C528.042 14.7067 527.183 14.7621 526.63 14.2914C526.02 13.7653 525.384 13.2946 524.719 12.8516C524.664 12.8516 524.608 12.8239 524.581 12.7962Z" fill="url(#paint40_linear)"/>
<path d="M389.178 575.884L183.928 457.74C174.763 452.452 174.542 424.653 178.252 415.267L370.71 315.48C381.314 309.361 397.484 308.697 406.649 313.985L616.551 420.888C624.248 433.07 619.928 461.921 609.324 468.013L425.089 574.362C414.512 580.508 398.343 581.173 389.178 575.884Z" fill="url(#paint41_linear)"/>
<path d="M389.172 545.345L183.922 427.2C174.757 421.912 175.92 412.581 186.497 406.462L370.704 300.113C381.309 293.994 397.478 293.33 406.643 298.618L611.893 416.762C621.058 422.051 619.895 431.381 609.318 437.5L425.083 543.849C414.506 549.968 398.337 550.633 389.172 545.345Z" fill="url(#paint42_linear)"/>
<path d="M388.868 531.639L207.651 427.367C198.486 422.078 199.649 412.748 210.226 406.629L371.01 313.791C381.614 307.672 397.784 307.008 406.948 312.296L588.165 416.569C597.33 421.857 596.167 431.188 585.59 437.307L424.807 530.144C414.23 536.263 398.061 536.928 388.868 531.639Z" fill="url(#paint43_linear)"/>
<path d="M391.193 493.516L237.332 404.97C230.465 401.011 230.299 391.542 233.096 384.509L377.377 309.696C385.324 305.1 397.451 304.602 404.317 308.589L561.64 388.69C567.427 397.827 564.159 408.071 556.213 412.668L418.106 492.409C410.187 497.005 398.06 497.503 391.193 493.516Z" fill="url(#paint44_linear)"/>
<path d="M391.19 481.998L237.328 393.452C230.462 389.492 231.32 382.487 239.267 377.891L377.374 298.15C385.32 293.554 397.447 293.056 404.314 297.043L558.175 385.589C565.042 389.548 564.184 396.553 556.237 401.149L418.13 480.89C410.184 485.459 398.056 485.985 391.19 481.998Z" fill="url(#paint45_linear)"/>
<path d="M390.973 471.725L255.109 393.563C248.242 389.603 249.101 382.598 257.047 378.002L377.572 308.422C385.519 303.826 397.646 303.328 404.513 307.315L540.377 385.478C547.244 389.437 546.385 396.442 538.439 401.038L417.914 470.618C409.967 475.186 397.84 475.712 390.973 471.725Z" fill="url(#paint46_linear)"/>
<path d="M390.863 447.471L246.72 364.491C240.269 360.78 240.131 351.893 242.733 345.303L377.905 275.225C385.353 270.933 396.705 270.463 403.157 274.173L550.567 349.262C555.966 357.818 552.92 367.426 545.5 371.717L416.115 446.419C408.667 450.711 397.315 451.181 390.863 447.471Z" fill="url(#paint47_linear)"/>
<path d="M390.862 436.673L246.719 353.692C240.268 349.982 241.098 343.42 248.519 339.129L377.904 264.427C385.352 260.135 396.704 259.664 403.156 263.375L547.299 346.355C553.75 350.065 552.919 356.627 545.499 360.919L416.113 435.621C408.665 439.912 397.313 440.383 390.862 436.673Z" fill="url(#paint48_linear)"/>
<path d="M390.667 427.065L263.386 353.831C256.935 350.12 257.765 343.558 265.186 339.267L378.097 274.062C385.545 269.77 396.897 269.3 403.321 273.01L530.602 346.244C537.053 349.954 536.222 356.516 528.802 360.808L415.891 426.013C408.47 430.305 397.118 430.775 390.667 427.065Z" fill="url(#paint49_linear)"/>
<path d="M391.246 405.663L255.88 327.749C249.844 324.26 249.678 315.926 252.142 309.724L379.091 243.91C386.068 239.868 396.756 239.425 402.792 242.941L541.231 313.462C546.326 321.492 543.446 330.518 536.469 334.56L414.947 404.721C407.969 408.708 397.31 409.151 391.246 405.663Z" fill="url(#paint50_linear)"/>
<path d="M391.239 395.529L255.873 317.615C249.837 314.126 250.585 307.952 257.562 303.937L379.084 233.776C386.062 229.734 396.749 229.291 402.785 232.807L538.151 310.721C544.215 314.209 543.439 320.384 536.462 324.399L414.94 394.56C407.963 398.574 397.303 399.017 391.239 395.529Z" fill="url(#paint51_linear)"/>
<path d="M391.052 386.502L271.523 317.726C265.487 314.237 266.235 308.063 273.212 304.048L379.257 242.83C386.234 238.788 396.922 238.345 402.958 241.861L522.486 310.638C528.55 314.126 527.774 320.301 520.797 324.315L414.753 385.533C407.775 389.548 397.115 389.991 391.052 386.502Z" fill="url(#paint52_linear)"/>
<path d="M395.483 358.759L316.434 313.268C312.89 311.219 312.807 294.136 314.247 290.509L388.367 252.078C392.437 249.725 398.667 249.475 402.211 251.497L483.059 292.668C486.022 297.348 484.361 314.874 480.291 317.228L409.327 358.206C405.257 360.531 399.027 360.781 395.483 358.759Z" fill="url(#paint53_linear)"/>
<path d="M395.485 340.596L316.436 295.105C312.892 293.056 313.363 289.456 317.433 287.103L388.397 246.125C392.467 243.771 398.697 243.522 402.241 245.544L481.29 291.035C484.834 293.084 484.363 296.683 480.293 299.036L409.329 340.014C405.259 342.368 399.029 342.617 395.485 340.596Z" fill="url(#paint54_linear)"/>
<path d="M395.375 335.308L325.574 295.16C322.029 293.111 322.5 289.512 326.57 287.159L388.508 251.414C392.578 249.06 398.808 248.811 402.352 250.832L472.153 290.979C475.697 293.028 475.226 296.628 471.156 298.981L409.219 334.726C405.149 337.08 398.919 337.357 395.375 335.308Z" fill="#C6F8FF"/>
<path opacity="0.8" d="M190 204.637L325.016 305.85L393.389 326.876C398.27 328.374 404.256 328.374 409.136 326.876L477.51 305.85L605 207.147C605 207.147 488.545 165.261 399.352 168.142C305.687 171.177 190 204.637 190 204.637Z" fill="url(#paint55_linear)"/>
<g opacity="0.5">
<path opacity="0.5" d="M492.647 154.257H492.142C491.973 154.257 491.853 154.118 491.853 153.924V153.343C491.853 153.149 491.973 153.011 492.142 153.011H492.647C492.815 153.011 492.935 153.149 492.935 153.343V153.924C492.935 154.118 492.815 154.257 492.647 154.257Z" fill="white"/>
<path opacity="0.5" d="M487.256 240.393H486.752C486.583 240.393 486.463 240.255 486.463 240.061V239.48C486.463 239.286 486.583 239.147 486.752 239.147H487.256C487.425 239.147 487.545 239.286 487.545 239.48V240.061C487.545 240.227 487.425 240.393 487.256 240.393Z" fill="white"/>
<path opacity="0.5" d="M453.029 221.704H452.524C452.356 221.704 452.236 221.566 452.236 221.372V220.79C452.236 220.597 452.356 220.458 452.524 220.458H453.029C453.198 220.458 453.318 220.597 453.318 220.79V221.372C453.318 221.566 453.198 221.704 453.029 221.704Z" fill="white"/>
<path opacity="0.5" d="M430.05 227.823H429.546C429.377 227.823 429.257 227.685 429.257 227.491V226.909C429.257 226.716 429.377 226.577 429.546 226.577H430.05C430.219 226.577 430.339 226.716 430.339 226.909V227.491C430.339 227.657 430.219 227.823 430.05 227.823Z" fill="white"/>
<path opacity="0.5" d="M418.178 200.523L417.721 200.302C417.577 200.218 417.504 200.025 417.577 199.859L417.769 199.332C417.841 199.166 418.009 199.083 418.154 199.166L418.61 199.388C418.754 199.471 418.827 199.665 418.754 199.831L418.562 200.357C418.49 200.523 418.322 200.606 418.178 200.523Z" fill="white"/>
<path opacity="0.5" d="M400.047 252.632L399.59 252.41C399.446 252.327 399.374 252.133 399.446 251.967L399.638 251.441C399.711 251.275 399.879 251.192 400.023 251.275L400.48 251.497C400.624 251.58 400.696 251.773 400.624 251.94L400.432 252.466C400.36 252.632 400.191 252.715 400.047 252.632Z" fill="white"/>
<path opacity="0.5" d="M372.308 177.597L371.851 177.376C371.707 177.293 371.635 177.099 371.707 176.933L371.899 176.407C371.971 176.241 372.14 176.158 372.284 176.241L372.741 176.462C372.885 176.545 372.957 176.739 372.885 176.905L372.692 177.431C372.62 177.57 372.452 177.653 372.308 177.597Z" fill="white"/>
<path opacity="0.5" d="M325.912 201.243L325.455 201.021C325.311 200.938 325.238 200.744 325.311 200.578L325.503 200.052C325.575 199.886 325.743 199.803 325.887 199.886L326.344 200.108C326.488 200.191 326.561 200.384 326.488 200.551L326.296 201.077C326.248 201.243 326.08 201.326 325.912 201.243Z" fill="white"/>
<path opacity="0.5" d="M348.699 279.489L348.242 279.267C348.098 279.184 348.026 278.991 348.098 278.824L348.29 278.298C348.362 278.132 348.531 278.049 348.675 278.132L349.132 278.354C349.276 278.437 349.348 278.631 349.276 278.797L349.084 279.323C349.011 279.489 348.843 279.572 348.699 279.489Z" fill="white"/>
<path opacity="0.5" d="M357.357 226.107L356.9 225.885C356.756 225.802 356.684 225.608 356.756 225.442L356.948 224.916C357.02 224.75 357.189 224.667 357.333 224.75L357.79 224.971C357.934 225.054 358.006 225.248 357.934 225.414L357.742 225.94C357.694 226.107 357.525 226.162 357.357 226.107Z" fill="white"/>
<path opacity="0.5" d="M325.912 161.622L325.455 161.4C325.311 161.317 325.238 161.123 325.311 160.957L325.503 160.431C325.575 160.265 325.743 160.182 325.887 160.265L326.344 160.487C326.488 160.57 326.561 160.763 326.488 160.93L326.296 161.456C326.248 161.594 326.08 161.677 325.912 161.622Z" fill="white"/>
<path opacity="0.5" d="M289.157 213.703L288.7 213.481C288.556 213.398 288.484 213.204 288.556 213.038L288.748 212.512C288.82 212.346 288.989 212.263 289.133 212.346L289.59 212.567C289.734 212.65 289.806 212.844 289.734 213.01L289.542 213.536C289.469 213.703 289.301 213.786 289.157 213.703Z" fill="white"/>
<path opacity="0.5" d="M289.157 174.081L288.7 173.86C288.556 173.777 288.484 173.583 288.556 173.417L288.748 172.891C288.82 172.724 288.989 172.641 289.133 172.724L289.59 172.946C289.734 173.029 289.806 173.223 289.734 173.389L289.542 173.915C289.469 174.053 289.301 174.137 289.157 174.081Z" fill="white"/>
<path opacity="0.5" d="M515.535 200.523L515.078 200.302C514.934 200.218 514.862 200.025 514.934 199.859L515.127 199.332C515.199 199.166 515.367 199.083 515.511 199.166L515.968 199.388C516.112 199.471 516.184 199.665 516.112 199.831L515.92 200.357C515.872 200.523 515.679 200.606 515.535 200.523Z" fill="white"/>
<path opacity="0.5" d="M518.538 174.164L518.081 173.942C517.937 173.859 517.865 173.666 517.937 173.499L518.129 172.973C518.201 172.807 518.37 172.724 518.514 172.807L518.971 173.029C519.115 173.112 519.187 173.306 519.115 173.472L518.923 173.998C518.85 174.164 518.682 174.247 518.538 174.164Z" fill="white"/>
<path opacity="0.5" d="M473.365 211.487L472.908 211.266C472.764 211.183 472.692 210.989 472.764 210.823L472.956 210.297C473.028 210.13 473.196 210.047 473.341 210.13L473.797 210.352C473.942 210.435 474.014 210.629 473.942 210.795L473.749 211.321C473.701 211.487 473.509 211.57 473.365 211.487Z" fill="white"/>
<path opacity="0.5" d="M454.346 165.443L453.89 165.221C453.745 165.138 453.673 164.944 453.745 164.778L453.938 164.252C454.01 164.086 454.178 164.003 454.322 164.086L454.779 164.308C454.923 164.391 454.995 164.584 454.923 164.751L454.731 165.277C454.659 165.443 454.491 165.526 454.346 165.443Z" fill="white"/>
<path opacity="0.5" d="M404.256 299.867H403.752C403.583 299.867 403.463 299.729 403.463 299.535V298.953C403.463 298.76 403.583 298.621 403.752 298.621H404.256C404.425 298.621 404.545 298.76 404.545 298.953V299.535C404.545 299.701 404.425 299.867 404.256 299.867Z" fill="white"/>
<path opacity="0.5" d="M461.634 256.951L461.177 256.729C461.033 256.646 460.961 256.452 461.033 256.286L461.225 255.76C461.297 255.594 461.466 255.511 461.61 255.594L462.067 255.816C462.211 255.899 462.283 256.093 462.211 256.259L462.018 256.785C461.946 256.923 461.778 257.006 461.634 256.951Z" fill="white"/>
<path opacity="0.5" d="M327.046 235.631L326.59 235.41C326.445 235.327 326.373 235.133 326.445 234.967L326.638 234.441C326.71 234.275 326.878 234.191 327.022 234.275L327.479 234.496C327.623 234.579 327.695 234.773 327.623 234.939L327.431 235.465C327.383 235.631 327.215 235.714 327.046 235.631Z" fill="white"/>
<path opacity="0.5" d="M426.32 283.531L425.863 283.31C425.719 283.227 425.647 283.033 425.719 282.867L425.911 282.341C425.983 282.174 426.152 282.091 426.296 282.174L426.753 282.396C426.897 282.479 426.969 282.673 426.897 282.839L426.704 283.365C426.632 283.531 426.464 283.614 426.32 283.531Z" fill="white"/>
<path opacity="0.5" d="M438.054 183.523L437.598 183.301C437.453 183.218 437.381 183.024 437.453 182.858L437.646 182.332C437.718 182.166 437.886 182.083 438.03 182.166L438.487 182.387C438.631 182.47 438.703 182.664 438.631 182.83L438.439 183.356C438.367 183.523 438.199 183.606 438.054 183.523Z" fill="white"/>
</g>
<g opacity="0.5">
<path opacity="0.5" d="M426.867 11.0829H426.362C426.194 11.0829 426.074 10.9444 426.074 10.7506V10.1692C426.074 9.97534 426.194 9.83691 426.362 9.83691H426.867C427.035 9.83691 427.156 9.97534 427.156 10.1692V10.7506C427.156 10.9167 427.035 11.0829 426.867 11.0829Z" fill="white"/>
<path opacity="0.5" d="M421.488 97.2196H420.983C420.815 97.2196 420.695 97.0812 420.695 96.8873V96.3059C420.695 96.1121 420.815 95.9736 420.983 95.9736H421.488C421.656 95.9736 421.777 96.1121 421.777 96.3059V96.8873C421.777 97.0535 421.632 97.2196 421.488 97.2196Z" fill="white"/>
<path opacity="0.5" d="M389.468 53.888H388.963C388.795 53.888 388.674 53.7496 388.674 53.5558V52.9743C388.674 52.7805 388.795 52.6421 388.963 52.6421H389.468C389.636 52.6421 389.756 52.7805 389.756 52.9743V53.5558C389.756 53.7496 389.636 53.888 389.468 53.888Z" fill="white"/>
<path opacity="0.5" d="M364.274 84.6498H363.77C363.601 84.6498 363.481 84.5113 363.481 84.3175V83.736C363.481 83.5422 363.601 83.4038 363.77 83.4038H364.274C364.443 83.4038 364.563 83.5422 364.563 83.736V84.3175C364.563 84.4836 364.443 84.6498 364.274 84.6498Z" fill="white"/>
<path opacity="0.5" d="M343.125 30.8798L342.668 30.6583C342.524 30.5752 342.452 30.3814 342.524 30.2153L342.716 29.6892C342.788 29.5231 342.956 29.44 343.101 29.5231L343.557 29.7446C343.702 29.8276 343.774 30.0215 343.702 30.1876L343.509 30.7136C343.437 30.8798 343.269 30.9628 343.125 30.8798Z" fill="white"/>
<path opacity="0.5" d="M334.282 109.458L333.826 109.236C333.681 109.153 333.609 108.96 333.681 108.793L333.874 108.267C333.946 108.101 334.114 108.018 334.258 108.101L334.715 108.323C334.859 108.406 334.931 108.6 334.859 108.766L334.667 109.292C334.595 109.458 334.427 109.541 334.282 109.458Z" fill="white"/>
<path opacity="0.5" d="M306.532 34.3961L306.075 34.1746C305.931 34.0915 305.859 33.8977 305.931 33.7316L306.124 33.2055C306.196 33.0394 306.364 32.9564 306.508 33.0394L306.965 33.2609C307.109 33.344 307.181 33.5378 307.109 33.7039L306.917 34.23C306.845 34.3961 306.676 34.4792 306.532 34.3961Z" fill="white"/>
<path opacity="0.5" d="M282.93 136.315L282.474 136.094C282.33 136.011 282.257 135.817 282.33 135.651L282.522 135.124C282.594 134.958 282.762 134.875 282.907 134.958L283.363 135.18C283.507 135.263 283.58 135.457 283.507 135.623L283.315 136.149C283.243 136.315 283.075 136.37 282.93 136.315Z" fill="white"/>
<path opacity="0.5" d="M291.581 82.9327L291.125 82.7113C290.98 82.6282 290.908 82.4344 290.98 82.2682L291.173 81.7422C291.245 81.576 291.413 81.493 291.557 81.576L292.014 81.7976C292.158 81.8806 292.23 82.0744 292.158 82.2405L291.966 82.7666C291.894 82.905 291.725 82.9881 291.581 82.9327Z" fill="white"/>
<path opacity="0.5" d="M449.759 57.3493L449.303 57.1278C449.159 57.0447 449.086 56.8509 449.159 56.6847L449.351 56.1587C449.423 55.9925 449.591 55.9095 449.735 55.9925L450.192 56.2141C450.336 56.2971 450.408 56.4909 450.336 56.6571L450.144 57.1831C450.072 57.3493 449.904 57.4046 449.759 57.3493Z" fill="white"/>
<path opacity="0.5" d="M470.314 110.565L469.857 110.344C469.713 110.261 469.641 110.067 469.713 109.901L469.906 109.374C469.978 109.208 470.146 109.125 470.29 109.208L470.747 109.43C470.891 109.513 470.963 109.707 470.891 109.873L470.699 110.399C470.627 110.565 470.458 110.648 470.314 110.565Z" fill="white"/>
<path opacity="0.5" d="M518.671 105.609L518.214 105.388C518.07 105.305 517.998 105.111 518.07 104.945L518.262 104.419C518.334 104.253 518.502 104.169 518.647 104.253L519.103 104.474C519.248 104.557 519.32 104.751 519.248 104.917L519.055 105.443C518.983 105.609 518.815 105.692 518.671 105.609Z" fill="white"/>
<path opacity="0.5" d="M550.577 89.1347L550.12 88.9132C549.976 88.8301 549.904 88.6363 549.976 88.4701L550.168 87.9441C550.24 87.778 550.409 87.6949 550.553 87.7779L551.009 87.9994C551.154 88.0825 551.226 88.2763 551.154 88.4425L550.961 88.9685C550.889 89.1347 550.721 89.2177 550.577 89.1347Z" fill="white"/>
<path opacity="0.5" d="M338.459 156.665H337.954C337.785 156.665 337.665 156.527 337.665 156.333V155.752C337.665 155.558 337.785 155.419 337.954 155.419H338.459C338.627 155.419 338.747 155.558 338.747 155.752V156.333C338.747 156.527 338.627 156.665 338.459 156.665Z" fill="white"/>
<path opacity="0.5" d="M395.858 113.749L395.401 113.528C395.257 113.445 395.185 113.251 395.257 113.085L395.449 112.559C395.522 112.393 395.69 112.31 395.834 112.393L396.291 112.614C396.435 112.697 396.507 112.891 396.435 113.057L396.243 113.583C396.171 113.749 396.002 113.832 395.858 113.749Z" fill="white"/>
<path opacity="0.5" d="M261.27 92.4574L260.814 92.2359C260.669 92.1528 260.597 91.959 260.669 91.7929L260.862 91.2668C260.934 91.1007 261.102 91.0176 261.246 91.1007L261.703 91.3222C261.847 91.4053 261.919 91.5991 261.847 91.7652L261.655 92.2913C261.583 92.4574 261.415 92.5404 261.27 92.4574Z" fill="white"/>
<path opacity="0.5" d="M360.522 140.357L360.065 140.136C359.921 140.053 359.849 139.859 359.921 139.693L360.113 139.167C360.185 139.001 360.354 138.918 360.498 139.001L360.955 139.222C361.099 139.305 361.171 139.499 361.099 139.665L360.907 140.191C360.858 140.357 360.666 140.413 360.522 140.357Z" fill="white"/>
<path opacity="0.5" d="M417.382 44.3915L416.925 44.17C416.781 44.0869 416.709 43.8931 416.781 43.727L416.973 43.2009C417.045 43.0348 417.213 42.9517 417.358 43.0348L417.814 43.2563C417.959 43.3394 418.031 43.5331 417.959 43.6993L417.766 44.2253C417.694 44.3638 417.526 44.4468 417.382 44.3915Z" fill="white"/>
</g>
<path opacity="0.15" d="M157.885 228.9L19.3629 308.863V183.298L157.885 103.336V228.9Z" fill="url(#paint56_linear)"/>
<g opacity="0.2">
<path opacity="0.2" d="M25.7826 233.275L149.381 161.924" stroke="#E2F4FF" stroke-width="0.1353" stroke-miterlimit="10"/>
<path opacity="0.2" d="M25.7826 205.919L149.381 134.568" stroke="#E2F4FF" stroke-width="0.1353" stroke-miterlimit="10"/>
<path opacity="0.2" d="M25.7826 260.631L149.381 189.279" stroke="#E2F4FF" stroke-width="0.1353" stroke-miterlimit="10"/>
<path opacity="0.2" d="M25.7826 287.986L149.381 216.635" stroke="#E2F4FF" stroke-width="0.1353" stroke-miterlimit="10"/>
</g>
<path d="M136.311 224.166L140.575 221.729V143.317L136.311 145.782V224.166Z" fill="url(#paint57_linear)"/>
<path d="M123.408 231.642L127.671 229.177V174.328L123.408 176.792V231.642Z" fill="url(#paint58_linear)"/>
<path d="M110.507 239.09L114.771 236.626V147.194L110.507 149.63V239.09Z" fill="url(#paint59_linear)"/>
<path d="M97.603 246.538L101.867 244.074V213.036L97.603 215.472V246.538Z" fill="url(#paint60_linear)"/>
<path d="M84.6991 253.986L88.963 251.522V204.895L84.6991 207.359V253.986Z" fill="url(#paint61_linear)"/>
<path d="M71.7951 261.434L76.059 258.97V184.711L71.7951 187.147V261.434Z" fill="url(#paint62_linear)"/>
<path d="M58.8946 268.882L63.1585 266.418V231.033L58.8946 233.497V268.882Z" fill="url(#paint63_linear)"/>
<path d="M46.001 276.33L50.2372 273.865V235.601L46.001 238.037V276.33Z" fill="url(#paint64_linear)"/>
<path d="M33.0659 283.778L37.3297 281.314V229.593L33.0659 232.057V283.778Z" fill="url(#paint65_linear)"/>
<path opacity="0.15" d="M647.715 232.888L786.238 312.878V187.286L647.715 107.323V232.888Z" fill="url(#paint66_linear)"/>
<g opacity="0.2">
<path opacity="0.2" d="M779.814 237.29L656.216 165.911" stroke="#E2F4FF" stroke-width="0.1353" stroke-miterlimit="10"/>
<path opacity="0.2" d="M779.814 209.934L656.216 138.555" stroke="#E2F4FF" stroke-width="0.1353" stroke-miterlimit="10"/>
<path opacity="0.2" d="M779.814 264.646L656.216 193.294" stroke="#E2F4FF" stroke-width="0.1353" stroke-miterlimit="10"/>
<path opacity="0.2" d="M779.814 292.002L656.216 220.65" stroke="#E2F4FF" stroke-width="0.1353" stroke-miterlimit="10"/>
</g>
<path opacity="0.6" d="M670.251 162.034C676.343 165.551 678.281 198.942 686.006 203.262C693.758 207.581 690.381 175.491 696.472 179.339C704.058 184.157 700.154 225.633 710.371 231.808C720.588 237.982 723.855 181.61 734.82 187.452C745.756 193.294 742.738 232.528 750.629 237.096C758.548 241.665 758.077 229.316 763.532 232.472C768.433 235.297 773.389 255.758 775.299 265.31L774.413 290.395L653.75 220.733L656.878 198.195C661.17 178.01 665.628 159.349 670.251 162.034Z" fill="#00F3DD"/>
<g filter="url(#filter4_d)">
<path d="M509.677 7.59605L513.118 4.99976L514.54 18.8122L511.243 21.3003L510.666 16.3605L498.193 25.7721L497.34 21.6603L509.956 12.1406L509.677 7.59605Z" fill="white"/>
<path d="M509.677 7.59605L513.118 4.99976L514.54 18.8122L511.243 21.3003L510.666 16.3605L498.193 25.7721L497.34 21.6603L509.956 12.1406L509.677 7.59605Z" stroke="#3BC3C3"/>
</g>
<g filter="url(#filter5_d)">
<path d="M499.086 32.1253L515.497 20.2107C515.497 20.2107 517.446 29.4358 516.844 31.086C516.243 32.7362 516.038 33.6883 513.787 34.9882C511.536 36.2881 509.708 34.4776 509.708 34.4776L501.255 44.0794L500.738 39.7828L507.588 33.2081L507.079 30.4801L499.58 35.7404L499.086 32.1253Z" fill="white"/>
<path d="M499.086 32.1253L515.497 20.2107C515.497 20.2107 517.446 29.4358 516.844 31.086C516.243 32.7362 516.038 33.6883 513.787 34.9882C511.536 36.2881 509.708 34.4776 509.708 34.4776L501.255 44.0794L500.738 39.7828L507.588 33.2081L507.079 30.4801L499.58 35.7404L499.086 32.1253Z" stroke="#3BC3C3"/>
</g>
<g filter="url(#filter6_d)">
<path d="M510.665 45.9914L517.643 36.7956L518.642 41.2957L514.115 46.7476L519.556 46.9615L521.177 51.0179L512.441 50.8902L503.82 63.6351L502.811 59.1172L509.603 49.6725L501.098 49.8506L500.475 46.4809L510.665 45.9914Z" fill="white"/>
<path d="M510.665 45.9914L517.643 36.7956L518.642 41.2957L514.115 46.7476L519.556 46.9615L521.177 51.0179L512.441 50.8902L503.82 63.6351L502.811 59.1172L509.603 49.6725L501.098 49.8506L500.475 46.4809L510.665 45.9914Z" stroke="#3BC3C3"/>
</g>
<g filter="url(#filter7_i)">
<path d="M513.174 24.8035L509.548 27.5401C509.548 27.5401 509.88 30.3014 510.359 30.9359C511.001 31.7871 512.052 31.4393 512.889 30.8078C513.683 30.2082 513.791 29.682 513.856 29.1877C513.958 28.4063 513.174 24.8035 513.174 24.8035Z" fill="#3BC3C3"/>
</g>
<path d="M513.174 24.8035L509.548 27.5401C509.548 27.5401 509.88 30.3014 510.359 30.9359C511.001 31.7871 512.052 31.4393 512.889 30.8078C513.683 30.2082 513.791 29.682 513.856 29.1877C513.958 28.4063 513.174 24.8035 513.174 24.8035Z" stroke="#3BC3C3"/>
<path d="M485.536 63.2712C471.886 51.8084 471.443 29.8796 484.539 14.2914C497.636 -1.2969 519.315 -4.64715 532.965 6.78794C546.616 18.2507 547.059 40.1795 533.962 55.7678C520.838 71.356 499.159 74.7063 485.536 63.2712Z" fill="url(#paint67_linear)"/>
<path d="M286.058 95.0257C277.032 102.806 262.523 100.757 253.608 90.4571C244.72 80.1572 244.803 65.4827 253.829 57.7024C262.856 49.9221 277.364 51.971 286.28 62.2709C295.167 72.5708 295.057 87.2454 286.058 95.0257Z" fill="url(#paint68_linear)"/>
<g filter="url(#filter8_d)">
<path d="M280.319 77.3151L273.618 69.2464L277.662 70.2681L281.84 75.0016L283.522 71.0792L286.945 71.0299L284.403 77.3879L291.314 87.271L287.724 86.7432L282.716 79.1243L280.462 85.3992L277.821 84.9105L280.319 77.3151Z" fill="white"/>
<path d="M280.319 77.3151L273.618 69.2464L277.662 70.2681L281.84 75.0016L283.522 71.0792L286.945 71.0299L284.403 77.3879L291.314 87.271L287.724 86.7432L282.716 79.1243L280.462 85.3992L277.821 84.9105L280.319 77.3151Z" stroke="#3BC3C3"/>
</g>
<g filter="url(#filter9_d)">
<path d="M251.936 67.2755L251 64.0293L261.509 66.86L262.406 69.9709L258.628 69.0088L262.021 80.7764L258.772 80.2478L255.341 68.3451L251.936 67.2755Z" fill="white"/>
<path d="M251.936 67.2755L251 64.0293L261.509 66.86L262.406 69.9709L258.628 69.0088L262.021 80.7764L258.772 80.2478L255.341 68.3451L251.936 67.2755Z" stroke="#3BC3C3"/>
</g>
<g filter="url(#filter10_d)">
<path d="M266.922 81.9026L262.802 66.5509C262.802 66.5509 270.1 67.7106 271.139 68.6135C272.178 69.5165 272.818 69.9334 273.138 71.9455C273.459 73.9575 271.621 74.7879 271.621 74.7879L276.279 83.6665L272.99 82.84L270.098 75.9833L267.958 75.5912L269.706 82.555L266.922 81.9026Z" fill="white"/>
<path d="M266.922 81.9026L262.802 66.5509C262.802 66.5509 270.1 67.7106 271.139 68.6135C272.178 69.5165 272.818 69.9334 273.138 71.9455C273.459 73.9575 271.621 74.7879 271.621 74.7879L276.279 83.6665L272.99 82.84L270.098 75.9833L267.958 75.5912L269.706 82.555L266.922 81.9026Z" stroke="#3BC3C3"/>
</g>
<g filter="url(#filter11_i)">
<path d="M265.511 69.5388L266.498 72.9605C266.498 72.9605 268.612 73.4913 269.211 73.3188C270.014 73.0873 270.054 72.2205 269.826 71.4309C269.61 70.6812 269.255 70.4552 268.911 70.2692C268.368 69.975 265.511 69.5388 265.511 69.5388Z" fill="#3BC3C3"/>
</g>
<path d="M265.511 69.5388L266.498 72.9605C266.498 72.9605 268.612 73.4913 269.211 73.3188C270.014 73.0873 270.054 72.2205 269.826 71.4309C269.61 70.6812 269.255 70.4552 268.911 70.2692C268.368 69.975 265.511 69.5388 265.511 69.5388Z" stroke="#3BC3C3"/>
<path d="M286.058 95.0257C277.032 102.806 262.523 100.757 253.608 90.4571C244.72 80.1572 244.803 65.4827 253.829 57.7024C262.856 49.9221 277.364 51.971 286.28 62.2709C295.167 72.5708 295.057 87.2454 286.058 95.0257Z" fill="url(#paint69_linear)"/>
</g>
<defs>
<filter id="filter0_d" x="423.409" y="132.587" width="36.1275" height="52.3634" filterUnits="userSpaceOnUse" color-interpolation-filters="sRGB">
<feFlood flood-opacity="0" result="BackgroundImageFix"/>
<feColorMatrix in="SourceAlpha" type="matrix" values="0 0 0 0 0 0 0 0 0 0 0 0 0 0 0 0 0 0 127 0"/>
<feOffset dy="4"/>
<feGaussianBlur stdDeviation="2"/>
<feColorMatrix type="matrix" values="0 0 0 0 0.126979 0 0 0 0 0.575 0 0 0 0 0.575 0 0 0 1 0"/>
<feBlend mode="normal" in2="BackgroundImageFix" result="effect1_dropShadow"/>
<feBlend mode="normal" in="SourceGraphic" in2="effect1_dropShadow" result="shape"/>
</filter>
<filter id="filter1_d" x="393.221" y="126.401" width="38.2237" height="55.3887" filterUnits="userSpaceOnUse" color-interpolation-filters="sRGB">
<feFlood flood-opacity="0" result="BackgroundImageFix"/>
<feColorMatrix in="SourceAlpha" type="matrix" values="0 0 0 0 0 0 0 0 0 0 0 0 0 0 0 0 0 0 127 0"/>
<feOffset dy="4"/>
<feGaussianBlur stdDeviation="2"/>
<feColorMatrix type="matrix" values="0 0 0 0 0.126979 0 0 0 0 0.575 0 0 0 0 0.575 0 0 0 1 0"/>
<feBlend mode="normal" in2="BackgroundImageFix" result="effect1_dropShadow"/>
<feBlend mode="normal" in="SourceGraphic" in2="effect1_dropShadow" result="shape"/>
</filter>
<filter id="filter2_i" x="404.068" y="133.706" width="11.6711" height="16.2796" filterUnits="userSpaceOnUse" color-interpolation-filters="sRGB">
<feFlood flood-opacity="0" result="BackgroundImageFix"/>
<feBlend mode="normal" in="SourceGraphic" in2="BackgroundImageFix" result="shape"/>
<feColorMatrix in="SourceAlpha" type="matrix" values="0 0 0 0 0 0 0 0 0 0 0 0 0 0 0 0 0 0 127 0" result="hardAlpha"/>
<feOffset dy="4"/>
<feGaussianBlur stdDeviation="2"/>
<feComposite in2="hardAlpha" operator="arithmetic" k2="-1" k3="1"/>
<feColorMatrix type="matrix" values="0 0 0 0 0.145098 0 0 0 0 0.607843 0 0 0 0 0.607843 0 0 0 1 0"/>
<feBlend mode="normal" in2="shape" result="effect1_innerShadow"/>
</filter>
<filter id="filter3_d" x="358.399" y="120.661" width="41.6411" height="60.0137" filterUnits="userSpaceOnUse" color-interpolation-filters="sRGB">
<feFlood flood-opacity="0" result="BackgroundImageFix"/>
<feColorMatrix in="SourceAlpha" type="matrix" values="0 0 0 0 0 0 0 0 0 0 0 0 0 0 0 0 0 0 127 0"/>
<feOffset dy="4"/>
<feGaussianBlur stdDeviation="2"/>
<feColorMatrix type="matrix" values="0 0 0 0 0.14902 0 0 0 0 0.615686 0 0 0 0 0.615686 0 0 0 1 0"/>
<feBlend mode="normal" in2="BackgroundImageFix" result="effect1_dropShadow"/>
<feBlend mode="normal" in="SourceGraphic" in2="effect1_dropShadow" result="shape"/>
</filter>
<filter id="filter4_d" x="492.786" y="4.06665" width="26.2804" height="30.5803" filterUnits="userSpaceOnUse" color-interpolation-filters="sRGB">
<feFlood flood-opacity="0" result="BackgroundImageFix"/>
<feColorMatrix in="SourceAlpha" type="matrix" values="0 0 0 0 0 0 0 0 0 0 0 0 0 0 0 0 0 0 127 0"/>
<feOffset dy="4"/>
<feGaussianBlur stdDeviation="2"/>
<feColorMatrix type="matrix" values="0 0 0 0 0.14902 0 0 0 0 0.615686 0 0 0 0 0.615686 0 0 0 1 0"/>
<feBlend mode="normal" in2="BackgroundImageFix" result="effect1_dropShadow"/>
<feBlend mode="normal" in="SourceGraphic" in2="effect1_dropShadow" result="shape"/>
</filter>
<filter id="filter5_d" x="494.551" y="19.3533" width="26.9091" height="33.8952" filterUnits="userSpaceOnUse" color-interpolation-filters="sRGB">
<feFlood flood-opacity="0" result="BackgroundImageFix"/>
<feColorMatrix in="SourceAlpha" type="matrix" values="0 0 0 0 0 0 0 0 0 0 0 0 0 0 0 0 0 0 127 0"/>
<feOffset dy="4"/>
<feGaussianBlur stdDeviation="2"/>
<feColorMatrix type="matrix" values="0 0 0 0 0.126979 0 0 0 0 0.575 0 0 0 0 0.575 0 0 0 1 0"/>
<feBlend mode="normal" in2="BackgroundImageFix" result="effect1_dropShadow"/>
<feBlend mode="normal" in="SourceGraphic" in2="effect1_dropShadow" result="shape"/>
</filter>
<filter id="filter6_d" x="489.169" y="33.5818" width="41.8296" height="39.6049" filterUnits="userSpaceOnUse" color-interpolation-filters="sRGB">
<feFlood flood-opacity="0" result="BackgroundImageFix"/>
<feColorMatrix in="SourceAlpha" type="matrix" values="0 0 0 0 0 0 0 0 0 0 0 0 0 0 0 0 0 0 127 0"/>
<feOffset dy="4"/>
<feGaussianBlur stdDeviation="2"/>
<feColorMatrix type="matrix" values="0 0 0 0 0.126979 0 0 0 0 0.575 0 0 0 0 0.575 0 0 0 1 0"/>
<feBlend mode="normal" in2="BackgroundImageFix" result="effect1_dropShadow"/>
<feBlend mode="normal" in="SourceGraphic" in2="effect1_dropShadow" result="shape"/>
</filter>
<filter id="filter7_i" x="509.017" y="23.9338" width="5.34782" height="12.0078" filterUnits="userSpaceOnUse" color-interpolation-filters="sRGB">
<feFlood flood-opacity="0" result="BackgroundImageFix"/>
<feBlend mode="normal" in="SourceGraphic" in2="BackgroundImageFix" result="shape"/>
<feColorMatrix in="SourceAlpha" type="matrix" values="0 0 0 0 0 0 0 0 0 0 0 0 0 0 0 0 0 0 127 0" result="hardAlpha"/>
<feOffset dy="4"/>
<feGaussianBlur stdDeviation="2"/>
<feComposite in2="hardAlpha" operator="arithmetic" k2="-1" k3="1"/>
<feColorMatrix type="matrix" values="0 0 0 0 0.145098 0 0 0 0 0.607843 0 0 0 0 0.607843 0 0 0 1 0"/>
<feBlend mode="normal" in2="shape" result="effect1_innerShadow"/>
</filter>
<filter id="filter8_d" x="268.253" y="68.386" width="28.1348" height="27.5482" filterUnits="userSpaceOnUse" color-interpolation-filters="sRGB">
<feFlood flood-opacity="0" result="BackgroundImageFix"/>
<feColorMatrix in="SourceAlpha" type="matrix" values="0 0 0 0 0 0 0 0 0 0 0 0 0 0 0 0 0 0 127 0"/>
<feOffset dy="4"/>
<feGaussianBlur stdDeviation="2"/>
<feColorMatrix type="matrix" values="0 0 0 0 0.126979 0 0 0 0 0.575 0 0 0 0 0.575 0 0 0 1 0"/>
<feBlend mode="normal" in2="BackgroundImageFix" result="effect1_dropShadow"/>
<feBlend mode="normal" in="SourceGraphic" in2="effect1_dropShadow" result="shape"/>
</filter>
<filter id="filter9_d" x="246.274" y="63.3159" width="20.8535" height="26.0808" filterUnits="userSpaceOnUse" color-interpolation-filters="sRGB">
<feFlood flood-opacity="0" result="BackgroundImageFix"/>
<feColorMatrix in="SourceAlpha" type="matrix" values="0 0 0 0 0 0 0 0 0 0 0 0 0 0 0 0 0 0 127 0"/>
<feOffset dy="4"/>
<feGaussianBlur stdDeviation="2"/>
<feColorMatrix type="matrix" values="0 0 0 0 0.14902 0 0 0 0 0.615686 0 0 0 0 0.615686 0 0 0 1 0"/>
<feBlend mode="normal" in2="BackgroundImageFix" result="effect1_dropShadow"/>
<feBlend mode="normal" in="SourceGraphic" in2="effect1_dropShadow" result="shape"/>
</filter>
<filter id="filter10_d" x="258.119" y="65.936" width="23.1223" height="26.4875" filterUnits="userSpaceOnUse" color-interpolation-filters="sRGB">
<feFlood flood-opacity="0" result="BackgroundImageFix"/>
<feColorMatrix in="SourceAlpha" type="matrix" values="0 0 0 0 0 0 0 0 0 0 0 0 0 0 0 0 0 0 127 0"/>
<feOffset dy="4"/>
<feGaussianBlur stdDeviation="2"/>
<feColorMatrix type="matrix" values="0 0 0 0 0.126979 0 0 0 0 0.575 0 0 0 0 0.575 0 0 0 1 0"/>
<feBlend mode="normal" in2="BackgroundImageFix" result="effect1_dropShadow"/>
<feBlend mode="normal" in="SourceGraphic" in2="effect1_dropShadow" result="shape"/>
</filter>
<filter id="filter11_i" x="264.815" y="68.9265" width="5.63172" height="8.92673" filterUnits="userSpaceOnUse" color-interpolation-filters="sRGB">
<feFlood flood-opacity="0" result="BackgroundImageFix"/>
<feBlend mode="normal" in="SourceGraphic" in2="BackgroundImageFix" result="shape"/>
<feColorMatrix in="SourceAlpha" type="matrix" values="0 0 0 0 0 0 0 0 0 0 0 0 0 0 0 0 0 0 127 0" result="hardAlpha"/>
<feOffset dy="4"/>
<feGaussianBlur stdDeviation="2"/>
<feComposite in2="hardAlpha" operator="arithmetic" k2="-1" k3="1"/>
<feColorMatrix type="matrix" values="0 0 0 0 0.145098 0 0 0 0 0.607843 0 0 0 0 0.607843 0 0 0 1 0"/>
<feBlend mode="normal" in2="shape" result="effect1_innerShadow"/>
</filter>
<radialGradient id="paint0_radial" cx="0" cy="0" r="1" gradientUnits="userSpaceOnUse" gradientTransform="translate(405.899 470.658) rotate(30.0007) scale(241.753 241.767)">
<stop offset="0.421875" stop-color="#B8C4FF"/>
<stop offset="0.8625" stop-color="#D6AFEF"/>
</radialGradient>
<linearGradient id="paint1_linear" x1="385.081" y1="102.45" x2="423.691" y2="216.601" gradientUnits="userSpaceOnUse">
<stop stop-color="#88FFF3"/>
<stop offset="1" stop-color="#68B69D"/>
</linearGradient>
<linearGradient id="paint2_linear" x1="450.497" y1="132.5" x2="383.497" y2="176.5" gradientUnits="userSpaceOnUse">
<stop stop-color="#68A8B6" stop-opacity="0.51"/>
<stop offset="0.767571" stop-color="#88FFF3" stop-opacity="0"/>
</linearGradient>
<linearGradient id="paint3_linear" x1="398.228" y1="152.886" x2="323.946" y2="191.076" gradientUnits="userSpaceOnUse">
<stop offset="0.0873" stop-color="#88FFF3"/>
<stop offset="0.9709" stop-color="#3C53D7"/>
</linearGradient>
<linearGradient id="paint4_linear" x1="331.769" y1="162.119" x2="347.184" y2="162.119" gradientUnits="userSpaceOnUse">
<stop stop-color="#70C5A3"/>
<stop offset="0.4947" stop-color="#0A11AB"/>
<stop offset="1"/>
</linearGradient>
<linearGradient id="paint5_linear" x1="331.879" y1="149.529" x2="347.443" y2="149.529" gradientUnits="userSpaceOnUse">
<stop stop-color="#70C5A3"/>
<stop offset="0.4947" stop-color="#0A11AB"/>
<stop offset="1"/>
</linearGradient>
<linearGradient id="paint6_linear" x1="333.142" y1="174.709" x2="349.383" y2="174.709" gradientUnits="userSpaceOnUse">
<stop stop-color="#70C5A3"/>
<stop offset="0.4947" stop-color="#0A11AB"/>
<stop offset="1"/>
</linearGradient>
<linearGradient id="paint7_linear" x1="336.662" y1="187.299" x2="353.882" y2="187.299" gradientUnits="userSpaceOnUse">
<stop stop-color="#7DFBDC"/>
<stop offset="0.4947" stop-color="#0A11AB"/>
<stop offset="1"/>
</linearGradient>
<linearGradient id="paint8_linear" x1="333.654" y1="136.939" x2="350.079" y2="136.939" gradientUnits="userSpaceOnUse">
<stop stop-color="#7DFBDC"/>
<stop offset="0.4947" stop-color="#0A11AB"/>
<stop offset="1"/>
</linearGradient>
<linearGradient id="paint9_linear" x1="337.659" y1="124.351" x2="355.096" y2="124.351" gradientUnits="userSpaceOnUse">
<stop stop-color="#70C5A3"/>
<stop offset="0.4947" stop-color="#0A11AB"/>
<stop offset="1"/>
</linearGradient>
<linearGradient id="paint10_linear" x1="346.163" y1="109.243" x2="365.373" y2="109.243" gradientUnits="userSpaceOnUse">
<stop stop-color="#70C5A3"/>
<stop offset="0.4947" stop-color="#0A11AB"/>
<stop offset="1"/>
</linearGradient>
<linearGradient id="paint11_linear" x1="358.224" y1="96.6504" x2="380.76" y2="96.6504" gradientUnits="userSpaceOnUse">
<stop stop-color="#70C5A3"/>
<stop offset="0.4947" stop-color="#0A11AB"/>
<stop offset="1"/>
</linearGradient>
<linearGradient id="paint12_linear" x1="344.394" y1="202.407" x2="363.229" y2="202.407" gradientUnits="userSpaceOnUse">
<stop stop-color="#70C5A3"/>
<stop offset="0.4947" stop-color="#0A11AB"/>
<stop offset="1"/>
</linearGradient>
<linearGradient id="paint13_linear" x1="355.264" y1="214.997" x2="376.765" y2="214.997" gradientUnits="userSpaceOnUse">
<stop stop-color="#70C5A3"/>
<stop offset="0.4947" stop-color="#0A11AB"/>
<stop offset="1"/>
</linearGradient>
<linearGradient id="paint14_linear" x1="440.021" y1="109.18" x2="381.883" y2="205.029" gradientUnits="userSpaceOnUse">
<stop stop-color="#70C5A3"/>
<stop offset="0.4947" stop-color="#0A11AB"/>
<stop offset="1" stop-color="#000067"/>
</linearGradient>
<linearGradient id="paint15_linear" x1="436.956" y1="114.276" x2="385.101" y2="199.767" gradientUnits="userSpaceOnUse">
<stop stop-color="#70C5A3"/>
<stop offset="0.4947" stop-color="#0A11AB"/>
<stop offset="1" stop-color="#000067"/>
</linearGradient>
<linearGradient id="paint16_linear" x1="271.71" y1="72.895" x2="300.099" y2="66.0278" gradientUnits="userSpaceOnUse">
<stop offset="0.0873" stop-color="#7DFBDC"/>
<stop offset="0.9709" stop-color="#3C53D7"/>
</linearGradient>
<linearGradient id="paint17_linear" x1="291.409" y1="60.1506" x2="287.329" y2="63.6735" gradientUnits="userSpaceOnUse">
<stop stop-color="#70C5A3"/>
<stop offset="0.4947" stop-color="#0A11AB"/>
<stop offset="1"/>
</linearGradient>
<linearGradient id="paint18_linear" x1="288.504" y1="56.8443" x2="284.384" y2="60.401" gradientUnits="userSpaceOnUse">
<stop stop-color="#70C5A3"/>
<stop offset="0.4947" stop-color="#0A11AB"/>
<stop offset="1"/>
</linearGradient>
<linearGradient id="paint19_linear" x1="293.924" y1="63.7982" x2="289.625" y2="67.5098" gradientUnits="userSpaceOnUse">
<stop stop-color="#70C5A3"/>
<stop offset="0.4947" stop-color="#0A11AB"/>
<stop offset="1"/>
</linearGradient>
<linearGradient id="paint20_linear" x1="295.869" y1="67.9341" x2="291.311" y2="71.8695" gradientUnits="userSpaceOnUse">
<stop stop-color="#70C5A3"/>
<stop offset="0.4947" stop-color="#0A11AB"/>
<stop offset="1"/>
</linearGradient>
<linearGradient id="paint21_linear" x1="285.16" y1="53.9168" x2="280.812" y2="57.6703" gradientUnits="userSpaceOnUse">
<stop stop-color="#70C5A3"/>
<stop offset="0.4947" stop-color="#0A11AB"/>
<stop offset="1"/>
</linearGradient>
<linearGradient id="paint22_linear" x1="281.213" y1="51.4992" x2="276.597" y2="55.4842" gradientUnits="userSpaceOnUse">
<stop stop-color="#70C5A3"/>
<stop offset="0.4947" stop-color="#0A11AB"/>
<stop offset="1"/>
</linearGradient>
<linearGradient id="paint23_linear" x1="275.521" y1="49.4439" x2="270.436" y2="53.8339" gradientUnits="userSpaceOnUse">
<stop stop-color="#70C5A3"/>
<stop offset="0.4947" stop-color="#0A11AB"/>
<stop offset="1"/>
</linearGradient>
<linearGradient id="paint24_linear" x1="269.442" y1="48.8686" x2="263.477" y2="54.0188" gradientUnits="userSpaceOnUse">
<stop stop-color="#70C5A3"/>
<stop offset="0.4947" stop-color="#0A11AB"/>
<stop offset="1"/>
</linearGradient>
<linearGradient id="paint25_linear" x1="297.276" y1="73.7012" x2="292.291" y2="78.0056" gradientUnits="userSpaceOnUse">
<stop stop-color="#70C5A3"/>
<stop offset="0.4947" stop-color="#0A11AB"/>
<stop offset="1"/>
</linearGradient>
<linearGradient id="paint26_linear" x1="297.27" y1="79.518" x2="291.578" y2="84.4319" gradientUnits="userSpaceOnUse">
<stop stop-color="#70C5A3"/>
<stop offset="0.4947" stop-color="#0A11AB"/>
<stop offset="1"/>
</linearGradient>
<linearGradient id="paint27_linear" x1="233.47" y1="64.5526" x2="313.155" y2="90.3724" gradientUnits="userSpaceOnUse">
<stop offset="0.0873" stop-color="#42E8E0"/>
<stop offset="0.9709" stop-color="#3C53D7"/>
</linearGradient>
<linearGradient id="paint28_linear" x1="533.781" y1="20.1041" x2="479.923" y2="52.8369" gradientUnits="userSpaceOnUse">
<stop stop-color="#42E8E0"/>
<stop offset="1" stop-color="#7DFBDC"/>
</linearGradient>
<linearGradient id="paint29_linear" x1="514.792" y1="36.8177" x2="531.698" y2="77.0978" gradientUnits="userSpaceOnUse">
<stop offset="0.0873" stop-color="#42E8E0"/>
<stop offset="0.9709" stop-color="#3C53D7"/>
</linearGradient>
<linearGradient id="paint30_linear" x1="538.295" y1="62.8684" x2="532.121" y2="57.6836" gradientUnits="userSpaceOnUse">
<stop stop-color="#70C5A3"/>
<stop offset="0.4947" stop-color="#0A11AB"/>
<stop offset="1"/>
</linearGradient>
<linearGradient id="paint31_linear" x1="542.488" y1="57.7875" x2="536.254" y2="52.5527" gradientUnits="userSpaceOnUse">
<stop stop-color="#70C5A3"/>
<stop offset="0.4947" stop-color="#0A11AB"/>
<stop offset="1"/>
</linearGradient>
<linearGradient id="paint32_linear" x1="533.515" y1="67.4478" x2="527.011" y2="61.9854" gradientUnits="userSpaceOnUse">
<stop stop-color="#70C5A3"/>
<stop offset="0.4947" stop-color="#0A11AB"/>
<stop offset="1"/>
</linearGradient>
<linearGradient id="paint33_linear" x1="527.874" y1="71.308" x2="520.977" y2="65.5162" gradientUnits="userSpaceOnUse">
<stop stop-color="#7DFBDC"/>
<stop offset="0.4947" stop-color="#315994"/>
<stop offset="1"/>
</linearGradient>
<linearGradient id="paint34_linear" x1="546.017" y1="52.1489" x2="539.438" y2="46.6244" gradientUnits="userSpaceOnUse">
<stop stop-color="#7DFBDC"/>
<stop offset="0.4947" stop-color="#0A11AB"/>
<stop offset="1"/>
</linearGradient>
<linearGradient id="paint35_linear" x1="548.642" y1="45.7612" x2="541.658" y2="39.8964" gradientUnits="userSpaceOnUse">
<stop stop-color="#7DFBDC"/>
<stop offset="0.4947" stop-color="#0A11AB"/>
<stop offset="1"/>
</linearGradient>
<linearGradient id="paint36_linear" x1="550.316" y1="36.8502" x2="542.623" y2="30.3891" gradientUnits="userSpaceOnUse">
<stop stop-color="#7DFBDC"/>
<stop offset="0.4947" stop-color="#0A11AB"/>
<stop offset="1"/>
</linearGradient>
<linearGradient id="paint37_linear" x1="549.719" y1="27.7478" x2="540.693" y2="20.1677" gradientUnits="userSpaceOnUse">
<stop stop-color="#7DFBDC"/>
<stop offset="0.4947" stop-color="#0A11AB"/>
<stop offset="1"/>
</linearGradient>
<linearGradient id="paint38_linear" x1="519.685" y1="74.7569" x2="512.142" y2="68.4222" gradientUnits="userSpaceOnUse">
<stop stop-color="#70C5A3"/>
<stop offset="0.4947" stop-color="#0A11AB"/>
<stop offset="1"/>
</linearGradient>
<linearGradient id="paint39_linear" x1="511.1" y1="76.1434" x2="502.489" y2="68.9118" gradientUnits="userSpaceOnUse">
<stop stop-color="#70C5A3"/>
<stop offset="0.4947" stop-color="#0A11AB"/>
<stop offset="1"/>
</linearGradient>
<linearGradient id="paint40_linear" x1="517.995" y1="-21.6341" x2="498.866" y2="102.172" gradientUnits="userSpaceOnUse">
<stop offset="0.0873" stop-color="#7DFBDC"/>
<stop offset="0.9709" stop-color="#3C53D7"/>
</linearGradient>
<linearGradient id="paint41_linear" x1="643.656" y1="522.092" x2="212.074" y2="386.571" gradientUnits="userSpaceOnUse">
<stop stop-color="#000053"/>
<stop offset="0.5425" stop-color="#23007F"/>
<stop offset="1" stop-color="#4F34D7"/>
</linearGradient>
<linearGradient id="paint42_linear" x1="387.999" y1="320.977" x2="390.841" y2="581.179" gradientUnits="userSpaceOnUse">
<stop offset="0.0291" stop-color="#42E8E0"/>
<stop offset="0.9709" stop-color="#223DBA"/>
</linearGradient>
<linearGradient id="paint43_linear" x1="217.076" y1="323.342" x2="480.822" y2="467.204" gradientUnits="userSpaceOnUse">
<stop offset="0.0873" stop-color="#7DFBDC"/>
<stop offset="0.8175" stop-color="#326098"/>
<stop offset="1" stop-color="#2D498A"/>
</linearGradient>
<linearGradient id="paint44_linear" x1="444.383" y1="495.515" x2="383.9" y2="365.531" gradientUnits="userSpaceOnUse">
<stop stop-color="#000053"/>
<stop offset="0.5425" stop-color="#23007F"/>
<stop offset="1" stop-color="#315A95"/>
</linearGradient>
<linearGradient id="paint45_linear" x1="390.307" y1="313.806" x2="392.438" y2="508.864" gradientUnits="userSpaceOnUse">
<stop offset="0.0291" stop-color="#7DFBDC"/>
<stop offset="0.9709" stop-color="#223DBA"/>
</linearGradient>
<linearGradient id="paint46_linear" x1="391.114" y1="321.976" x2="393.015" y2="495.987" gradientUnits="userSpaceOnUse">
<stop offset="0.0873" stop-color="#7DFBDC"/>
<stop offset="0.9709" stop-color="#2D498B"/>
</linearGradient>
<linearGradient id="paint47_linear" x1="440.708" y1="449.337" x2="384.043" y2="327.555" gradientUnits="userSpaceOnUse">
<stop stop-color="#000053"/>
<stop offset="0.5425" stop-color="#23007F"/>
<stop offset="1" stop-color="#4F34D7"/>
</linearGradient>
<linearGradient id="paint48_linear" x1="390.048" y1="279.094" x2="392.044" y2="461.843" gradientUnits="userSpaceOnUse">
<stop offset="0.0291" stop-color="#6DC077"/>
<stop offset="0.9709" stop-color="#223DBA"/>
</linearGradient>
<linearGradient id="paint49_linear" x1="390.798" y1="286.748" x2="392.578" y2="449.778" gradientUnits="userSpaceOnUse">
<stop offset="0.0873" stop-color="#7DFBDC"/>
<stop offset="0.9709" stop-color="#2D4A8B"/>
</linearGradient>
<linearGradient id="paint50_linear" x1="430.504" y1="391.186" x2="377.288" y2="276.817" gradientUnits="userSpaceOnUse">
<stop stop-color="#000053"/>
<stop offset="0.5425" stop-color="#23007F"/>
<stop offset="1" stop-color="#4F34D7"/>
</linearGradient>
<linearGradient id="paint51_linear" x1="388.37" y1="226.098" x2="390.245" y2="397.722" gradientUnits="userSpaceOnUse">
<stop offset="0.0291" stop-color="#7DFBDC"/>
<stop offset="0.9709" stop-color="#223DBA"/>
</linearGradient>
<linearGradient id="paint52_linear" x1="369.245" y1="264.499" x2="429.765" y2="372.703" gradientUnits="userSpaceOnUse">
<stop offset="0.0873" stop-color="#7DFBDC"/>
<stop offset="0.9709" stop-color="#305592"/>
</linearGradient>
<linearGradient id="paint53_linear" x1="404.352" y1="313.326" x2="369.61" y2="238.661" gradientUnits="userSpaceOnUse">
<stop stop-color="#000053"/>
<stop offset="0.5425" stop-color="#23007F"/>
<stop offset="1" stop-color="#35498E"/>
</linearGradient>
<linearGradient id="paint54_linear" x1="395.046" y1="254.17" x2="396.141" y2="354.388" gradientUnits="userSpaceOnUse">
<stop stop-color="#62A4A1"/>
<stop offset="1" stop-color="#2F3C9E"/>
</linearGradient>
<linearGradient id="paint55_linear" x1="395.316" y1="177.522" x2="398.175" y2="309.693" gradientUnits="userSpaceOnUse">
<stop stop-color="#F1EBF9" stop-opacity="0"/>
<stop offset="0.252" stop-color="#F2EEFA" stop-opacity="0"/>
<stop offset="0.2989" stop-color="#F3F0FA" stop-opacity="0"/>
<stop offset="0.4873" stop-color="#EDF9FD" stop-opacity="0.137"/>
<stop offset="0.805313" stop-color="#E1FEFE" stop-opacity="0"/>
<stop offset="1" stop-color="#E6FFFF"/>
</linearGradient>
<linearGradient id="paint56_linear" x1="44.4094" y1="163.903" x2="150.557" y2="224.974" gradientUnits="userSpaceOnUse">
<stop offset="0.0873" stop-color="#84E4A4"/>
<stop offset="0.9709" stop-color="#3C53D7"/>
</linearGradient>
<linearGradient id="paint57_linear" x1="138.447" y1="224.852" x2="106.142" y2="168.899" gradientUnits="userSpaceOnUse">
<stop offset="0.0873" stop-color="#42E8E0"/>
<stop offset="0.9709" stop-color="#3C53D7"/>
</linearGradient>
<linearGradient id="paint58_linear" x1="125.541" y1="232.302" x2="93.2357" y2="176.35" gradientUnits="userSpaceOnUse">
<stop offset="0.0873" stop-color="#42E8E0"/>
<stop offset="0.9709" stop-color="#3C53D7"/>
</linearGradient>
<linearGradient id="paint59_linear" x1="112.637" y1="239.406" x2="86.2345" y2="193.676" gradientUnits="userSpaceOnUse">
<stop offset="0.0873" stop-color="#42E8E0"/>
<stop offset="0.9709" stop-color="#3C53D7"/>
</linearGradient>
<linearGradient id="paint60_linear" x1="99.7309" y1="247.204" x2="67.4255" y2="191.252" gradientUnits="userSpaceOnUse">
<stop offset="0.0873" stop-color="#42E8E0"/>
<stop offset="0.9709" stop-color="#3C53D7"/>
</linearGradient>
<linearGradient id="paint61_linear" x1="86.8245" y1="254.655" x2="54.5193" y2="198.702" gradientUnits="userSpaceOnUse">
<stop offset="0.0873" stop-color="#42E8E0"/>
<stop offset="0.9709" stop-color="#3C53D7"/>
</linearGradient>
<linearGradient id="paint62_linear" x1="73.918" y1="262.105" x2="41.6132" y2="206.153" gradientUnits="userSpaceOnUse">
<stop offset="0.0873" stop-color="#42E8E0"/>
<stop offset="0.9709" stop-color="#3C53D7"/>
</linearGradient>
<linearGradient id="paint63_linear" x1="61.015" y1="269.556" x2="28.7099" y2="213.604" gradientUnits="userSpaceOnUse">
<stop offset="0.0873" stop-color="#42E8E0"/>
<stop offset="0.9709" stop-color="#3C53D7"/>
</linearGradient>
<linearGradient id="paint64_linear" x1="48.1189" y1="277.007" x2="15.8137" y2="221.054" gradientUnits="userSpaceOnUse">
<stop offset="0.0873" stop-color="#42E8E0"/>
<stop offset="0.9709" stop-color="#3C53D7"/>
</linearGradient>
<linearGradient id="paint65_linear" x1="35.2089" y1="284.458" x2="2.90342" y2="228.505" gradientUnits="userSpaceOnUse">
<stop offset="0.0873" stop-color="#42E8E0"/>
<stop offset="0.9709" stop-color="#3C53D7"/>
</linearGradient>
<linearGradient id="paint66_linear" x1="761.188" y1="167.904" x2="655.041" y2="228.976" gradientUnits="userSpaceOnUse">
<stop offset="0.0873" stop-color="#84E4A4"/>
<stop offset="0.9709" stop-color="#3C53D7"/>
</linearGradient>
<linearGradient id="paint67_linear" x1="537.501" y1="-4.50024" x2="491.501" y2="69.9998" gradientUnits="userSpaceOnUse">
<stop stop-color="#42E8E0" stop-opacity="0.53"/>
<stop offset="1" stop-color="white" stop-opacity="0"/>
</linearGradient>
<linearGradient id="paint68_linear" x1="262.7" y1="58.577" x2="278.568" y2="97.6155" gradientUnits="userSpaceOnUse">
<stop stop-color="#88FFF3"/>
<stop offset="1" stop-color="#68B69D"/>
</linearGradient>
<linearGradient id="paint69_linear" x1="262.7" y1="58.577" x2="278.568" y2="97.6155" gradientUnits="userSpaceOnUse">
<stop stop-color="#7DFBAD" stop-opacity="0"/>
<stop offset="1" stop-color="#68B69D" stop-opacity="0.35"/>
</linearGradient>
</defs>
</svg>
