<?xml version="1.0" standalone="no"?>
<!DOCTYPE svg PUBLIC "-//W3C//DTD SVG 20010904//EN"
 "http://www.w3.org/TR/2001/REC-SVG-20010904/DTD/svg10.dtd">
<svg version="1.0" xmlns="http://www.w3.org/2000/svg"
 width="25.000000pt" height="25.000000pt" viewBox="0 0 25.000000 25.000000"
 preserveAspectRatio="xMidYMid meet">

<g transform="translate(0.000000,25.000000) scale(0.100000,-0.100000)"
fill="#000000" stroke="none">
<path d="M0 125 l0 -125 125 0 125 0 0 125 0 125 -125 0 -125 0 0 -125z m178
11 c13 -13 11 -20 -19 -60 -19 -25 -38 -46 -42 -46 -7 0 -36 61 -52 109 -7 24
-7 24 46 18 29 -4 59 -13 67 -21z"/>
<path d="M100 141 c0 -10 30 -24 37 -17 3 3 2 9 -2 15 -8 13 -35 15 -35 2z"/>
<path d="M85 113 c4 -10 10 -26 12 -35 8 -28 41 -21 58 12 17 33 18 40 6 40
-5 0 -16 -15 -25 -32 -12 -26 -16 -28 -16 -12 0 21 -17 44 -33 44 -5 0 -6 -8
-2 -17z"/>
</g>
</svg>
